<?xml version="1.0" encoding="utf-8"?>
<!-- Generator: Adobe Illustrator 16.0.4, SVG Export Plug-In . SVG Version: 6.00 Build 0)  -->
<!DOCTYPE svg PUBLIC "-//W3C//DTD SVG 1.1//EN" "http://www.w3.org/Graphics/SVG/1.1/DTD/svg11.dtd">
<svg version="1.1" id="Capa_1" xmlns="http://www.w3.org/2000/svg" xmlns:xlink="http://www.w3.org/1999/xlink" x="0px" y="0px"
	 width="325.263px" height="24.726px" viewBox="0 0 325.263 24.726" enable-background="new 0 0 325.263 24.726"
	 xml:space="preserve">
<g>
	<g>
		<g>
			<path d="M113.223,2.502c0-1.526-0.838-2.396-2.427-2.5L110.669,0H94.246c-3.465,0-5.753,0.655-7.004,1.993
				C85.941,3.364,85.291,5.3,85.291,7.73v8.437c0,0.806-0.049,1.466-0.142,1.968c-0.292,1.03-1.225,1.551-2.846,1.551H61.622
				c-1.741,0-2.659,0.889-2.659,2.504c0,1.658,0.883,2.536,2.559,2.536h20.146c1.874,0,3.298-0.138,4.354-0.419
				c1.082-0.281,1.979-0.813,2.672-1.572c1.287-1.379,1.942-3.302,1.942-5.706v-8.51c0-1.198,0.055-1.709,0.1-1.922
				c0.241-1.047,1.178-1.559,2.86-1.559h16.886C112.251,5.038,113.223,4.138,113.223,2.502"/>
			<path d="M149.958,0.002L149.824,0h-16.422c-3.462,0-5.755,0.655-7.004,1.993c-1.296,1.375-1.955,3.308-1.955,5.738v8.437
				c0,0.824-0.043,1.485-0.132,1.968c-0.3,1.03-1.236,1.551-2.853,1.551h-20.677c-1.742,0-2.662,0.889-2.662,2.504
				c0,1.658,0.885,2.536,2.557,2.536h20.146c1.857,0,3.319-0.14,4.355-0.42c1.087-0.279,1.986-0.812,2.674-1.57
				c1.288-1.377,1.943-3.3,1.943-5.706v-8.51c0-0.985,0.036-1.63,0.098-1.917c0.24-1.053,1.174-1.564,2.859-1.564h16.889
				c2.267,0,2.742-1.375,2.742-2.536C152.383,0.976,151.547,0.105,149.958,0.002"/>
			<path d="M202.494,9.842h-23.722c-1.685,0-2.605,0.889-2.605,2.502c0,1.585,0.854,2.457,2.476,2.538h22.814
				c2.492,0,4.427-0.668,5.761-1.989c1.312-1.302,2.021-2.794,2.1-4.434c0-0.008,0-2.089,0-2.089
				c0.024-2.017-0.804-3.636-2.476-4.796C205.362,0.53,203.514,0,201.354,0H166.18c-3.85,0-6.674,0.976-8.404,2.898
				c-1.741,1.955-2.66,4.402-2.723,7.285c0,0.007-0.006,4.128-0.006,4.128c0,3.679,1.109,6.481,3.298,8.323
				c1.644,1.406,4.206,2.09,7.831,2.09h39.907c2.676,0,3.234-1.375,3.234-2.536c0-0.764-0.219-1.374-0.656-1.8
				c-0.493-0.481-1.259-0.719-2.259-0.704h-40.342c-3.732,0-5.549-1.783-5.549-5.446l0.002-4.038
				c0.049-1.946,0.688-3.365,1.903-4.21c0.906-0.634,2.378-0.955,4.374-0.955h35.717c0.951,0,1.401,0.432,1.466,1.389
				c0,0.006,0.004,2.068,0.004,2.081C203.978,9.047,203.791,9.702,202.494,9.842"/>
			<path d="M265.274,19.686h-40.32c-3.734,0-5.552-1.783-5.552-5.446v-4.043c0.054-1.966,0.674-3.34,1.898-4.209
				c0.904-0.628,2.376-0.949,4.364-0.949h25.688c1.672,0,2.593-0.889,2.593-2.502c0-1.608-0.854-2.483-2.476-2.536h-26.413
				c-3.842,0-6.67,0.976-8.396,2.898c-1.741,1.949-2.66,4.402-2.729,7.287v4.126c0,3.685,1.115,6.483,3.306,8.323
				c1.644,1.406,4.2,2.09,7.819,2.09h39.906c2.673,0,3.233-1.375,3.233-2.536c0-0.77-0.221-1.374-0.654-1.8
				C267.045,19.909,266.286,19.671,265.274,19.686"/>
			<path d="M319.672,14.28c0,2.076-0.613,3.523-1.866,4.417c-0.923,0.657-2.391,0.989-4.36,0.989h-30.854
				c-1.966,0-3.429-0.332-4.357-0.989c-1.279-0.895-1.899-2.342-1.899-4.417v-4.081c0.041-1.825,0.466-3.147,1.266-3.929
				c0.838-0.815,2.283-1.232,4.287-1.232h32.231c2.002,0,3.435,0.417,4.281,1.232c0.809,0.787,1.242,2.115,1.272,3.959V14.28
				 M321.955,2.057C320.32,0.692,317.677,0,314.09,0H282c-1.874,0-3.443,0.157-4.651,0.468c-4.235,1.078-6.417,4.34-6.479,9.693
				c0-0.007-0.006,0.068-0.006,4.047c0,3.006,0.917,5.555,2.736,7.578c1.743,1.953,4.57,2.939,8.4,2.939h32.09
				c3.823,0,6.678-0.996,8.471-2.966c1.791-1.964,2.702-4.502,2.702-7.552v-3.985C325.227,6.615,324.115,3.874,321.955,2.057z"/>
			<path d="M45.436,0H11.129C9.253,0,7.691,0.157,6.483,0.468C2.24,1.551,0.061,4.825,0,10.191v4.017c0,3.01,0.919,5.555,2.73,7.578
				c1.747,1.953,4.572,2.939,8.395,2.939h26.397c1.636-0.079,2.491-0.953,2.491-2.536l0.002-7.061
				c-0.081-1.607-0.97-2.457-2.57-2.457c-1.663,0-2.538,0.893-2.538,2.562c0,0,0,3.8,0,4.451c-0.755,0-23.175,0-23.175,0
				c-1.972,0-3.441-0.332-4.362-0.989c-1.277-0.895-1.896-2.342-1.896-4.417v-4.077c0.042-1.838,0.47-3.157,1.268-3.927
				c0.844-0.821,2.289-1.238,4.291-1.238h35.054c1.621,0,2.545,0.513,2.829,1.576c0.061,0.234,0.13,0.76,0.13,1.905v16.207h5.349
				V7.713c0-2.432-0.657-4.358-1.951-5.73C51.189,0.651,48.898,0,45.436,0"/>
		</g>
	</g>
</g>
</svg>
