<?xml version="1.0" encoding="UTF-8" standalone="no"?>
<svg
   xmlns:dc="http://purl.org/dc/elements/1.1/"
   xmlns:cc="http://creativecommons.org/ns#"
   xmlns:rdf="http://www.w3.org/1999/02/22-rdf-syntax-ns#"
   xmlns:svg="http://www.w3.org/2000/svg"
   xmlns="http://www.w3.org/2000/svg"
   viewBox="0 0 424.17334 185.61333"
   height="185.61333"
   width="424.17334"
   xml:space="preserve"
   id="svg2"
   version="1.1"><metadata
     id="metadata8"><rdf:RDF><cc:Work
         rdf:about=""><dc:format>image/svg+xml</dc:format><dc:type
           rdf:resource="http://purl.org/dc/dcmitype/StillImage" /></cc:Work></rdf:RDF></metadata><defs
     id="defs6" /><g
     transform="matrix(1.3333333,0,0,-1.3333333,0,185.61333)"
     id="g10"><g
       transform="scale(0.1)"
       id="g12"><path
         id="path14"
         style="fill:#e51635;fill-opacity:1;fill-rule:nonzero;stroke:none"
         d="m 246.465,480.742 c -34.055,19.883 -63.242,28.75 -95.242,28.75 -63.2542,0 -110.2738,-44.953 -110.2738,-105.777 0,-61.996 45.4063,-104.945 111.8828,-104.945 31.211,0 65.254,10.878 96.465,31.16 V 286.59 C 222.141,272.391 192.539,262.27 149.18,262.27 45.4023,262.27 0,342.109 0,400.082 c 0,84.34 63.6445,145.934 151.609,145.934 28.371,0 57.161,-6.934 94.856,-22.715 v -42.559" /><path
         id="path16"
         style="fill:#e51635;fill-opacity:1;fill-rule:nonzero;stroke:none"
         d="m 339.695,506.699 v 35.672 H 578.047 L 402.117,301.57 h 175.93 V 265.898 H 328.762 L 504.656,506.699 H 339.695" /><path
         id="path18"
         style="fill:#e51635;fill-opacity:1;fill-rule:nonzero;stroke:none"
         d="m 834.238,506.699 h -117.16 v -83.551 h 113.11 V 387.5 H 717.078 V 301.57 H 837.883 V 265.898 H 677.336 v 276.473 h 156.902 v -35.672" /><path
         id="path20"
         style="fill:#e51635;fill-opacity:1;fill-rule:nonzero;stroke:none"
         d="m 1172.3,480.742 c -34.06,19.883 -63.24,28.75 -95.28,28.75 -63.22,0 -110.235,-44.953 -110.235,-105.777 0,-61.996 45.395,-104.945 111.875,-104.945 31.21,0 65.26,10.878 96.47,31.16 v -43.34 c -27.16,-14.199 -56.75,-24.32 -100.11,-24.32 -103.79,0 -149.2,79.839 -149.2,137.812 0,84.34 63.653,145.934 151.61,145.934 28.39,0 57.17,-6.934 94.87,-22.715 v -42.559" /><path
         id="path22"
         style="fill:#e51635;fill-opacity:1;fill-rule:nonzero;stroke:none"
         d="m 1512.8,265.898 h -39.74 V 386.309 H 1318.22 V 265.898 h -39.74 v 276.473 h 39.74 V 421.996 h 154.84 v 120.375 h 39.74 V 265.898" /><path
         id="path24"
         style="fill:#0e2b58;fill-opacity:1;fill-rule:nonzero;stroke:none"
         d="m 1672.88,265.898 h -39.71 v 276.473 h 39.71 V 265.898" /><path
         id="path26"
         style="fill:#0e2b58;fill-opacity:1;fill-rule:nonzero;stroke:none"
         d="m 2048.68,265.898 h -34.07 L 1829.79,478.719 V 265.898 h -37.3 v 276.473 h 31.64 L 2011.37,328.32 v 214.051 h 37.31 V 265.898" /><path
         id="path28"
         style="fill:#0e2b58;fill-opacity:1;fill-rule:nonzero;stroke:none"
         d="m 2261.47,263.48 h -8.11 l -119.55,278.891 h 39.71 l 83.09,-194.16 82.71,194.16 h 39.34 L 2261.47,263.48" /><path
         id="path30"
         style="fill:#0e2b58;fill-opacity:1;fill-rule:nonzero;stroke:none"
         d="m 2622.66,506.699 h -117.15 v -83.551 h 113.07 V 387.5 h -113.07 v -85.93 h 120.78 v -35.672 h -160.54 v 276.473 h 156.91 v -35.672" /><path
         id="path32"
         style="fill:#0e2b58;fill-opacity:1;fill-rule:nonzero;stroke:none"
         d="m 2864.63,481.523 c -23.47,22.325 -46.19,28.809 -64.82,28.809 -25.57,0 -43.81,-13.379 -43.81,-32.832 0,-53.102 119.61,-52.301 119.61,-140.27 0,-43.378 -32.83,-74.96 -77.42,-74.96 -30,0 -54.32,8.089 -77.46,25.511 v 50.27 c 20.29,-25.922 45.8,-40.121 72.99,-40.121 30.82,0 44.98,19.422 44.98,34.851 0,57.149 -119.55,63.61 -119.55,139.407 0,45.019 33.22,73.828 83.9,73.828 21.1,0 42.13,-6.485 61.58,-19.465 v -45.028" /><path
         id="path34"
         style="fill:#0e2b58;fill-opacity:1;fill-rule:nonzero;stroke:none"
         d="m 3181.25,506.699 h -95.7 V 265.898 h -39.72 v 240.801 h -95.65 v 35.672 h 231.07 v -35.672" /><path
         id="path36"
         style="fill:#0e2b58;fill-opacity:1;fill-rule:nonzero;stroke:none"
         d="m 1743.6,917.148 c -7.5,-33.574 -12.4,-51.64 -18.85,-71.347 -16.48,-50.02 -33.59,-73.223 -49.18,-73.223 -43.36,0 -78.42,119.5 -78.42,261.972 0,142.48 35.18,258.09 78.46,258.09 29.94,0 54.22,-43.45 67.6,-123.99 -17.19,137.11 -60.19,223.41 -112.62,223.41 -67.16,0 -121.69,-160.98 -121.69,-359.61 0,-198.466 54.53,-359.325 121.69,-359.325 54.35,0 100.08,99.578 115.9,244.297 -0.96,-0.098 -1.93,-0.176 -2.89,-0.274" /><path
         id="path38"
         style="fill:#e51635;fill-opacity:1;fill-rule:nonzero;stroke:none"
         d="m 1492.24,1015.29 c -97.44,17.55 -131.57,38.28 -131.57,59.24 0,24.94 57.6,46.7 136.39,59.1 0.13,1.58 0.3,3.11 0.46,4.67 -129.16,-17.6 -225.05,-56.97 -225.05,-102.52 0,-36.073 61.78,-80.948 224.37,-102.05 -2.58,26.817 -4.13,54.239 -4.6,81.56" /><path
         id="path40"
         style="fill:#e51635;fill-opacity:1;fill-rule:nonzero;stroke:none"
         d="m 1765.96,1140.91 c 0,0 145.45,-22.93 150.31,-64.97 0,-38.45 -123.61,-69.75 -276.08,-70.19 -13.73,0 -13.16,0.15 -25.82,0.83 0.96,-29.939 3.33,-56.943 6.79,-80.916 11,-0.246 9.73,-0.449 21.87,-0.449 202.62,0.449 366.58,50.898 366.58,112.275 0,37.44 -76.46,88.9 -243.65,103.42" /><path
         id="path42"
         style="fill:#0e2b58;fill-opacity:1;fill-rule:nonzero;stroke:none"
         d="M 29.2969,36.8789 H 13.5742 V 146.25 H 29.2969 V 36.8789" /><path
         id="path44"
         style="fill:#0e2b58;fill-opacity:1;fill-rule:nonzero;stroke:none"
         d="m 69.5391,99.3984 h 0.3242 c 5.4492,6.9106 13.4765,10.9026 21.4844,10.9026 13.6323,0 24.5433,-9.301 24.5433,-29.0315 V 36.8789 h -14.27 v 44.5703 c 0,10.5703 -5.4608,17.4805 -14.121,17.4805 -6.25,0 -11.2187,-2.8711 -17.9609,-10.4102 V 36.8789 H 55.2656 v 71.9921 h 14.2735 v -9.4726" /><path
         id="path46"
         style="fill:#0e2b58;fill-opacity:1;fill-rule:nonzero;stroke:none"
         d="m 127.766,108.871 h 15.562 l 19.399,-44.2616 18.914,44.2616 h 15.234 L 165.129,35.4297 h -4.809 l -32.554,73.4413" /><path
         id="path48"
         style="fill:#0e2b58;fill-opacity:1;fill-rule:nonzero;stroke:none"
         d="m 255.762,80.1797 c -0.481,10.8789 -6.731,17.8086 -16.836,17.8086 -10.899,0 -17.481,-6.457 -19.395,-17.8086 z m 12.843,-36.25 c -8.664,-5.7813 -16.527,-8.5 -28.71,-8.5 -22.454,0 -34.961,18.4414 -34.961,38.3008 0,21.8398 13.789,36.5705 33.679,36.5705 19.082,0 31.27,-12.9729 31.27,-39.5901 h -50.672 c 2.234,-14.2812 10.418,-21.6406 24.207,-21.6406 8.66,0 16.836,3.1797 25.187,8.6485 V 43.9297" /><path
         id="path50"
         style="fill:#0e2b58;fill-opacity:1;fill-rule:nonzero;stroke:none"
         d="m 331.133,90.2617 c -8.02,5.3086 -15.547,7.5586 -20.84,7.5586 -5.781,0 -9.465,-2.7422 -9.465,-6.5898 0,-3.1992 4.817,-7.0703 17.485,-14.4297 11.855,-7.8711 16.191,-12.832 16.191,-20.1914 0,-12.6797 -10.102,-21.1797 -23.734,-21.1797 -8.817,0 -15.711,1.7422 -25.016,6.5703 v 15.3906 c 9.305,-6.4101 17.801,-9.4609 23.57,-9.4609 5.774,0.3398 10.586,3.0508 10.586,8.1914 0,9.9375 -33.68,15.2305 -33.68,34.6289 0,12.18 9.305,19.551 23.743,19.551 6.726,0 13.621,-1.903 21.16,-5.922 V 90.2617" /><path
         id="path52"
         style="fill:#0e2b58;fill-opacity:1;fill-rule:nonzero;stroke:none"
         d="m 371.711,108.871 h 22.762 V 96.0586 H 371.711 V 59.1602 c 0,-8.4922 6.094,-10.8907 10.254,-10.8907 5.125,0 10.43,1.75 16.199,5.2891 V 40.2383 c -4.98,-2.7188 -12.668,-4.8086 -17.312,-4.8086 -15.571,0 -23.411,9.6094 -23.411,22.6211 v 38.0078 h -12.519 v 1.5625 l 26.789,26.1489 v -14.899" /><path
         id="path54"
         style="fill:#0e2b58;fill-opacity:1;fill-rule:nonzero;stroke:none"
         d="m 426.063,108.871 v -9.4726 c 7.375,7.4026 14.281,10.9026 21,10.9026 9.136,0 16.687,-4.481 21.492,-12.9729 6.258,7.0509 13.789,12.9729 24.062,12.9729 14.578,0 23.887,-11.2112 23.887,-28.2112 V 36.8789 h -14.27 v 44.5703 c 0,10.9219 -6.738,16.8399 -14.91,16.8399 -4.648,0.1718 -10.906,-3.8477 -16.035,-9.1485 V 36.8789 H 457.02 v 44.7305 c 0,11.6992 -5.946,16.6797 -13.004,16.6797 -7.207,0 -12.024,-2.2305 -17.953,-9.1485 V 36.8789 h -14.266 v 71.9921 h 14.266" /><path
         id="path56"
         style="fill:#0e2b58;fill-opacity:1;fill-rule:nonzero;stroke:none"
         d="m 587.383,80.1797 c -0.488,10.8789 -6.731,17.8086 -16.836,17.8086 -10.899,0 -17.481,-6.457 -19.402,-17.8086 z m 12.832,-36.25 c -8.66,-5.7813 -16.516,-8.5 -28.699,-8.5 -22.453,0 -34.961,18.4414 -34.961,38.3008 0,21.8398 13.789,36.5705 33.66,36.5705 19.101,0 31.289,-12.9729 31.289,-39.5901 H 550.82 c 2.246,-14.2812 10.418,-21.6406 24.207,-21.6406 8.672,0 16.848,3.1797 25.188,8.6485 V 43.9297" /><path
         id="path58"
         style="fill:#0e2b58;fill-opacity:1;fill-rule:nonzero;stroke:none"
         d="m 634.855,99.3984 h 0.313 c 5.457,6.9106 13.465,10.9026 21.492,10.9026 13.621,0 24.531,-9.301 24.531,-29.0315 V 36.8789 h -14.277 v 44.5703 c 0,10.5703 -5.437,17.4805 -14.101,17.4805 -6.258,0 -11.231,-2.8711 -17.958,-10.4102 V 36.8789 h -14.281 v 71.9921 h 14.281 v -9.4726" /><path
         id="path60"
         style="fill:#0e2b58;fill-opacity:1;fill-rule:nonzero;stroke:none"
         d="m 721.758,108.871 h 22.773 V 96.0586 H 721.758 V 59.1602 c 0,-8.4922 6.094,-10.8907 10.273,-10.8907 5.125,0 10.418,1.75 16.184,5.2891 V 40.2383 c -4.961,-2.7188 -12.668,-4.8086 -17.317,-4.8086 -15.546,0 -23.41,9.6094 -23.41,22.6211 v 38.0078 h -12.5 v 1.5625 l 26.77,26.1489 v -14.899" /><path
         id="path62"
         style="fill:#0e2b58;fill-opacity:1;fill-rule:nonzero;stroke:none"
         d="m 842.355,72.4688 c -12.187,-4.1602 -22.777,-8.3282 -22.777,-16.8399 0,-5.918 4.328,-10.0976 10.266,-10.0976 4.48,0 8.652,2.25 12.511,5.9375 z m 24.54,-31.4297 c -6.582,-4.3399 -9.305,-5.6094 -13.797,-5.6094 -6.25,0 -9.629,2.2305 -10.91,7.3711 -6.25,-4.961 -12.833,-7.3711 -19.407,-7.3711 -10.586,0 -17.636,8.3203 -17.636,17.6406 0,14.2578 13,18.6094 24.535,22.7695 l 12.675,4.4805 v 3.8399 c 0,9.0078 -4.335,12.6796 -13,12.6796 -7.851,0 -15.871,-3.6718 -22.761,-11.871 v 15.5622 c 5.601,6.559 13.465,9.77 23.886,9.77 14.598,0 26.141,-7.371 26.141,-23.7112 V 49.5391 c 0,-2.7188 0.969,-3.6797 2.727,-3.6797 1.453,0 4.336,1.4492 7.547,3.8515 v -8.6718" /><path
         id="path64"
         style="fill:#0e2b58;fill-opacity:1;fill-rule:nonzero;stroke:none"
         d="m 897.512,99.3984 h 0.32 c 5.449,6.9106 13.469,10.9026 21.484,10.9026 13.645,0 24.539,-9.301 24.539,-29.0315 V 36.8789 h -14.277 v 44.5703 c 0,10.5703 -5.445,17.4805 -14.109,17.4805 -6.258,0 -11.223,-2.8711 -17.957,-10.4102 V 36.8789 h -14.27 v 71.9921 h 14.27 v -9.4726" /><path
         id="path66"
         style="fill:#0e2b58;fill-opacity:1;fill-rule:nonzero;stroke:none"
         d="m 1015.7,94.7695 c -4.81,1.9102 -8.51,2.7305 -13.32,2.7305 -13.786,0 -23.095,-9.9609 -23.095,-25.0312 0,-13.4571 5.461,-23.5782 21.975,-23.5782 h 14.44 z m 14.27,-57.8906 h -30.322 c -21.472,0 -34.941,14.5899 -34.941,37.6797 0,20.832 14.902,35.7424 35.913,35.7424 4.81,0 9.3,-0.781 15.08,-2.871 v 38.82 h 14.27 V 36.8789" /><path
         id="path68"
         style="fill:#0e2b58;fill-opacity:1;fill-rule:nonzero;stroke:none"
         d="m 1119.77,50.9805 h 19.72 c 18.44,0 23.41,9.1406 23.41,17.3281 0,9.9414 -7.69,17.0117 -24.21,17.0117 h -18.92 z m 0,48.4179 h 10.42 c 15.55,0 23.08,5.7816 23.08,17.4806 0,8.199 -4.65,15.25 -19.07,15.25 h -14.43 z m -15.73,46.8516 h 31.77 c 23.56,0 33.66,-14.121 33.66,-27.93 0,-11.359 -5.29,-18.7614 -16.68,-23.4098 v -0.3008 c 16.37,-3.0781 26.3,-13.8008 26.3,-28.5508 0,-13.4805 -10.1,-29.1797 -37.52,-29.1797 h -37.53 V 146.25" /><path
         id="path70"
         style="fill:#0e2b58;fill-opacity:1;fill-rule:nonzero;stroke:none"
         d="m 1242.11,36.8789 v 9.1406 c -5.93,-6.4297 -14.27,-10.5898 -21.32,-10.5898 -14.59,0 -24.86,10.4297 -24.86,28.7109 v 44.7304 h 14.28 V 63.168 c 0,-10.0977 4.97,-15.8594 14.75,-15.8594 6.42,0 12.51,3.5 17.15,10.082 v 51.4804 h 14.28 V 36.8789 h -14.28" /><path
         id="path72"
         style="fill:#0e2b58;fill-opacity:1;fill-rule:nonzero;stroke:none"
         d="m 1322.46,90.2617 c -8.03,5.3086 -15.57,7.5586 -20.86,7.5586 -5.76,0 -9.45,-2.7422 -9.45,-6.5898 0,-3.1992 4.8,-7.0703 17.48,-14.4297 11.86,-7.8711 16.2,-12.832 16.2,-20.1914 0,-12.6797 -10.11,-21.1797 -23.74,-21.1797 -8.82,0 -15.72,1.7422 -25.01,6.5703 v 15.3906 c 9.29,-6.4101 17.79,-9.4609 23.57,-9.4609 5.77,0.3398 10.58,3.0508 10.58,8.1914 0,9.9375 -33.67,15.2305 -33.67,34.6289 0,12.18 9.3,19.551 23.73,19.551 6.74,0 13.63,-1.903 21.17,-5.922 V 90.2617" /><path
         id="path74"
         style="fill:#0e2b58;fill-opacity:1;fill-rule:nonzero;stroke:none"
         d="m 1360.95,36.8789 h -14.28 v 71.9921 h 14.28 z m -7.07,85.3121 c -4.64,0 -8.49,3.848 -8.49,8.5 0,4.649 3.85,8.489 8.49,8.489 4.66,0 8.51,-3.84 8.51,-8.489 0,-4.652 -3.85,-8.5 -8.51,-8.5" /><path
         id="path76"
         style="fill:#0e2b58;fill-opacity:1;fill-rule:nonzero;stroke:none"
         d="m 1399.42,99.3984 h 0.33 c 5.45,6.9106 13.47,10.9026 21.48,10.9026 13.63,0 24.54,-9.301 24.54,-29.0315 V 36.8789 h -14.27 v 44.5703 c 0,10.5703 -5.46,17.4805 -14.12,17.4805 -6.25,0 -11.22,-2.8711 -17.96,-10.4102 V 36.8789 h -14.27 v 71.9921 h 14.27 v -9.4726" /><path
         id="path78"
         style="fill:#0e2b58;fill-opacity:1;fill-rule:nonzero;stroke:none"
         d="m 1516.96,80.1797 c -0.47,10.8789 -6.73,17.8086 -16.83,17.8086 -10.91,0 -17.48,-6.457 -19.4,-17.8086 z m 12.83,-36.25 c -8.65,-5.7813 -16.51,-8.5 -28.7,-8.5 -22.45,0 -34.96,18.4414 -34.96,38.3008 0,21.8398 13.8,36.5705 33.67,36.5705 19.1,0 31.28,-12.9729 31.28,-39.5901 h -50.68 c 2.25,-14.2812 10.43,-21.6406 24.22,-21.6406 8.66,0 16.84,3.1797 25.17,8.6485 V 43.9297" /><path
         id="path80"
         style="fill:#0e2b58;fill-opacity:1;fill-rule:nonzero;stroke:none"
         d="m 1592.33,90.2617 c -8.01,5.3086 -15.55,7.5586 -20.85,7.5586 -5.77,0 -9.45,-2.7422 -9.45,-6.5898 0,-3.1992 4.82,-7.0703 17.48,-14.4297 11.86,-7.8711 16.19,-12.832 16.19,-20.1914 0,-12.6797 -10.09,-21.1797 -23.74,-21.1797 -8.82,0 -15.71,1.7422 -25.02,6.5703 v 15.3906 c 9.31,-6.4101 17.82,-9.4609 23.58,-9.4609 5.78,0.3398 10.59,3.0508 10.59,8.1914 0,9.9375 -33.68,15.2305 -33.68,34.6289 0,12.18 9.31,19.551 23.74,19.551 6.73,0 13.62,-1.903 21.16,-5.922 V 90.2617" /><path
         id="path82"
         style="fill:#0e2b58;fill-opacity:1;fill-rule:nonzero;stroke:none"
         d="m 1658.09,90.2617 c -8.02,5.3086 -15.56,7.5586 -20.86,7.5586 -5.77,0 -9.46,-2.7422 -9.46,-6.5898 0,-3.1992 4.81,-7.0703 17.47,-14.4297 11.89,-7.8711 16.21,-12.832 16.21,-20.1914 0,-12.6797 -10.11,-21.1797 -23.74,-21.1797 -8.81,0 -15.72,1.7422 -25.01,6.5703 v 15.3906 c 9.29,-6.4101 17.8,-9.4609 23.58,-9.4609 5.77,0.3398 10.57,3.0508 10.57,8.1914 0,9.9375 -33.68,15.2305 -33.68,34.6289 0,12.18 9.3,19.551 23.74,19.551 6.73,0 13.64,-1.903 21.18,-5.922 V 90.2617" /><path
         id="path84"
         style="fill:#0e2b58;fill-opacity:1;fill-rule:nonzero;stroke:none"
         d="m 1744.34,50.9805 h 25.04 c 35.59,0 43.77,27.0898 43.77,40.5508 0,21.9887 -13.97,40.5977 -44.59,40.5977 h -24.22 z m -15.72,95.2695 h 42.52 c 40.41,0 58.2,-28.879 58.2,-54.7187 0,-28.0508 -21.97,-54.6524 -58.07,-54.6524 h -42.65 V 146.25" /><path
         id="path86"
         style="fill:#0e2b58;fill-opacity:1;fill-rule:nonzero;stroke:none"
         d="m 1898.13,80.1797 c -0.49,10.8789 -6.74,17.8086 -16.84,17.8086 -10.89,0 -17.46,-6.457 -19.39,-17.8086 z m 12.81,-36.25 c -8.65,-5.7813 -16.5,-8.5 -28.69,-8.5 -22.44,0 -34.94,18.4414 -34.94,38.3008 0,21.8398 13.77,36.5705 33.65,36.5705 19.1,0 31.29,-12.9729 31.29,-39.5901 h -50.68 c 2.26,-14.2812 10.43,-21.6406 24.22,-21.6406 8.65,0 16.83,3.1797 25.15,8.6485 V 43.9297" /><path
         id="path88"
         style="fill:#0e2b58;fill-opacity:1;fill-rule:nonzero;stroke:none"
         d="m 1919.63,108.871 h 15.57 l 19.39,-44.2616 18.93,44.2616 h 15.23 L 1957,35.4297 h -4.81 l -32.56,73.4413" /><path
         id="path90"
         style="fill:#0e2b58;fill-opacity:1;fill-rule:nonzero;stroke:none"
         d="m 2047.64,80.1797 c -0.49,10.8789 -6.74,17.8086 -16.83,17.8086 -10.92,0 -17.5,-6.457 -19.42,-17.8086 z m 12.83,-36.25 c -8.67,-5.7813 -16.52,-8.5 -28.71,-8.5 -22.46,0 -34.96,18.4414 -34.96,38.3008 0,21.8398 13.79,36.5705 33.67,36.5705 19.11,0 31.29,-12.9729 31.29,-39.5901 h -50.68 c 2.23,-14.2812 10.41,-21.6406 24.2,-21.6406 8.67,0 16.85,3.1797 25.19,8.6485 V 43.9297" /><path
         id="path92"
         style="fill:#0e2b58;fill-opacity:1;fill-rule:nonzero;stroke:none"
         d="m 2095.73,36.8789 h -14.26 V 146.25 h 14.26 V 36.8789" /><path
         id="path94"
         style="fill:#0e2b58;fill-opacity:1;fill-rule:nonzero;stroke:none"
         d="m 2130.55,73.6211 c 0,-15.2813 9.45,-25.3516 23.24,-25.3516 15.06,0 24.54,9.6094 24.54,25.1524 0,13.9492 -10.26,24.0781 -24.54,24.0781 -13.47,0 -23.24,-10.1289 -23.24,-23.8789 z m 62.37,0 c 0,-22.8125 -15.86,-38.1914 -38.97,-38.1914 -22.13,0 -38.01,16.0391 -38.01,38.1914 0,20.6602 16.53,36.6799 38.01,36.6799 22.62,0 38.97,-15.3908 38.97,-36.6799" /><path
         id="path96"
         style="fill:#0e2b58;fill-opacity:1;fill-rule:nonzero;stroke:none"
         d="m 2226.12,51.4688 c 4.33,-2.1094 8.98,-3.1993 13.47,-3.1993 13.31,0 22.93,10.25 22.93,24.1993 0,14.9023 -7.87,23.5898 -23.41,23.5898 h -12.99 z M 2226.12,0 h -14.28 v 108.871 h 24.71 c 26.27,0 40.54,-12.8124 40.54,-36.5624 0,-21.6406 -15.23,-36.8789 -36.56,-36.8789 -4.65,0 -8.96,0.9609 -14.41,3.2109 V 0" /><path
         id="path98"
         style="fill:#0e2b58;fill-opacity:1;fill-rule:nonzero;stroke:none"
         d="m 2310.63,108.871 v -9.4726 c 7.36,7.4026 14.28,10.9026 21,10.9026 9.14,0 16.68,-4.481 21.48,-12.9729 6.27,7.0509 13.79,12.9729 24.06,12.9729 14.59,0 23.91,-11.2112 23.91,-28.2112 V 36.8789 h -14.3 v 44.5703 c 0,10.9219 -6.74,16.8399 -14.9,16.8399 -4.65,0.1718 -10.9,-3.8477 -16.04,-9.1485 V 36.8789 h -14.29 v 44.7305 c 0,11.6992 -5.92,16.6797 -12.97,16.6797 -7.21,0 -12.03,-2.2305 -17.95,-9.1485 V 36.8789 h -14.3 v 71.9921 h 14.3" /><path
         id="path100"
         style="fill:#0e2b58;fill-opacity:1;fill-rule:nonzero;stroke:none"
         d="m 2471.94,80.1797 c -0.49,10.8789 -6.74,17.8086 -16.84,17.8086 -10.9,0 -17.46,-6.457 -19.39,-17.8086 z m 12.81,-36.25 c -8.65,-5.7813 -16.5,-8.5 -28.69,-8.5 -22.44,0 -34.96,18.4414 -34.96,38.3008 0,21.8398 13.79,36.5705 33.67,36.5705 19.1,0 31.29,-12.9729 31.29,-39.5901 h -50.68 c 2.26,-14.2812 10.43,-21.6406 24.21,-21.6406 8.66,0 16.84,3.1797 25.16,8.6485 V 43.9297" /><path
         id="path102"
         style="fill:#0e2b58;fill-opacity:1;fill-rule:nonzero;stroke:none"
         d="m 2519.42,99.3984 h 0.29 c 5.47,6.9106 13.5,10.9026 21.51,10.9026 13.61,0 24.53,-9.301 24.53,-29.0315 V 36.8789 h -14.26 v 44.5703 c 0,10.5703 -5.47,17.4805 -14.12,17.4805 -6.25,0 -11.23,-2.8711 -17.95,-10.4102 V 36.8789 h -14.3 v 71.9921 h 14.3 v -9.4726" /><path
         id="path104"
         style="fill:#0e2b58;fill-opacity:1;fill-rule:nonzero;stroke:none"
         d="m 2606.33,108.871 h 22.78 V 96.0586 h -22.78 V 59.1602 c 0,-8.4922 6.1,-10.8907 10.26,-10.8907 5.11,0 10.41,1.75 16.19,5.2891 V 40.2383 c -4.98,-2.7188 -12.66,-4.8086 -17.31,-4.8086 -15.56,0 -23.41,9.6094 -23.41,22.6211 v 38.0078 h -12.52 v 1.5625 l 26.79,26.1489 v -14.899" /><path
         id="path106"
         style="fill:#0e2b58;fill-opacity:1;fill-rule:nonzero;stroke:none"
         d="m 2705.43,83.2109 h 34.01 L 2721.8,122.84 Z m 71.06,-46.332 h -16.06 l -14.59,32.2109 h -46.5 l -13.77,-32.2109 h -16.05 l 46.99,109.9801 h 11.05 l 48.93,-109.9801" /><path
         id="path108"
         style="fill:#0e2b58;fill-opacity:1;fill-rule:nonzero;stroke:none"
         d="m 2814.01,96.5313 c -7.87,0 -14.28,-5.9415 -14.28,-12.9922 0,-7.8711 5.78,-13.1602 14.44,-13.1602 8.02,0 13.78,5.6211 13.78,13.4922 0,6.8789 -6.42,12.6602 -13.94,12.6602 z m -3.71,-63.1915 c -9.61,0 -16.35,-4.4882 -16.35,-10.8906 0,-7.2304 7.05,-11.0586 20.06,-11.0586 12.5,0 19.88,3.8282 19.88,10.4102 0,9.1601 -14.74,11.539 -23.59,11.539 z m 37.71,64.4805 h -14.76 c 5.62,-5.6289 7.52,-9.6289 7.52,-15.7305 0,-5.9296 -3.34,-12.8281 -6.72,-16.2109 -9.63,-10.25 -29.18,-5.1094 -29.18,-13.6289 0,-3.9805 7.52,-6.3906 21.97,-9.2812 15.37,-3.0391 20.84,-10.9102 20.84,-20.0391 C 2847.68,8.64063 2835,0 2813.68,0 c -19.4,0 -33.19,9.12891 -33.19,21.8008 0,10.5898 5.61,16.8398 18.11,19.8984 -4.96,3.0117 -7.21,5.9219 -7.21,9.1094 0,4.6406 4.49,8.6914 11.39,10.2695 v 0.3321 c -5.29,2.25 -9.32,5.2695 -12.03,9.1211 -2.56,3.6875 -3.85,8.1992 -3.85,13.5 0,15.3671 12.03,24.8397 31.43,24.8397 h 29.68 V 97.8203" /><path
         id="path110"
         style="fill:#0e2b58;fill-opacity:1;fill-rule:nonzero;stroke:none"
         d="m 2910.38,80.1797 c -0.49,10.8789 -6.74,17.8086 -16.84,17.8086 -10.9,0 -17.48,-6.457 -19.41,-17.8086 z m 12.83,-36.25 c -8.65,-5.7813 -16.53,-8.5 -28.71,-8.5 -22.44,0 -34.96,18.4414 -34.96,38.3008 0,21.8398 13.79,36.5705 33.69,36.5705 19.06,0 31.25,-12.9729 31.25,-39.5901 h -50.67 c 2.25,-14.2812 10.43,-21.6406 24.22,-21.6406 8.65,0 16.84,3.1797 25.18,8.6485 V 43.9297" /><path
         id="path112"
         style="fill:#0e2b58;fill-opacity:1;fill-rule:nonzero;stroke:none"
         d="m 2957.84,108.871 h -14.26 V 36.8789 h 14.26 v 51.6406 c 6.74,7.5391 11.72,10.4102 17.95,10.4102 8.67,0 14.12,-6.9102 14.12,-17.4805 V 36.8789 h 14.27 v 44.3906 c 0,19.7305 -10.89,29.0315 -24.53,29.0315 -8.02,0 -16.03,-3.992 -21.5,-10.9026 h -0.31 v 9.4726" /><path
         id="path114"
         style="fill:#0e2b58;fill-opacity:1;fill-rule:nonzero;stroke:none"
         d="m 3080.98,90.1211 c -8.16,5.4492 -13.63,7.0273 -19.86,7.0273 -12.99,0 -21.97,-9.7773 -21.97,-24.3671 0,-14.9024 9.62,-23.8907 24.37,-23.8907 6.09,0 11.86,1.6211 19.06,4.8282 v -14.129 c -4.78,-2.2382 -13.92,-4.1601 -21.46,-4.1601 -21.49,0 -36.56,14.9101 -36.56,36.082 0,23.7266 13.77,38.7893 35.58,38.7893 8.36,0 13.97,-1.903 20.84,-4.942 V 90.1211" /><path
         id="path116"
         style="fill:#0e2b58;fill-opacity:1;fill-rule:nonzero;stroke:none"
         d="m 3111.45,0 h -15.86 l 24.53,52.25 -27.91,56.621 h 16.19 l 19.42,-40.5624 18.59,40.5624 h 16.06 L 3111.45,0" /></g></g></svg>