<?xml version="1.0" encoding="UTF-8"?>
<svg width="425px" height="186px" viewBox="0 0 425 186" version="1.1" xmlns="http://www.w3.org/2000/svg" xmlns:xlink="http://www.w3.org/1999/xlink">
    <!-- Generator: Sketch 57.1 (83088) - https://sketch.com -->
    <title>CI_EN</title>
    <desc>Created with Sketch.</desc>
    <g id="Page-1" stroke="none" stroke-width="1" fill="none" fill-rule="evenodd">
        <g id="CI_EN" transform="translate(0.000000, -1.000000)" fill="#000000" fill-rule="nonzero">
            <g id="g10" transform="translate(212.500000, 93.613330) scale(-1, 1) rotate(-180.000000) translate(-212.500000, -93.613330) translate(0.000000, 0.613330)">
                <g id="g12">
                    <path d="M32.8619992,64.0989317 C28.3213326,66.7499983 24.4297327,67.932265 20.1630662,67.932265 C11.729173,67.932265 5.4598932,61.9385318 5.4598932,53.8286653 C5.4598932,45.5625322 11.5140664,39.835999 20.3775995,39.835999 C24.5390661,39.835999 29.0781326,41.286399 33.2395992,43.9906656 L33.2395992,38.211999 C29.6187993,36.3187991 25.671866,34.9693325 19.8906662,34.9693325 C6.05363985,34.9693325 0,45.6145322 0,53.3442653 C0,64.5895984 8.48593312,72.8021315 20.2145328,72.8021315 C23.9973327,72.8021315 27.8359993,71.8775982 32.8619992,69.7734649 L32.8619992,64.0989317" id="path14"></path>
                    <polyline id="path16" points="45.2926655 67.559865 45.2926655 72.3161315 77.0729314 72.3161315 53.6155987 40.2093323 77.0729314 40.2093323 77.0729314 35.4530658 43.8349322 35.4530658 67.287465 67.559865 45.2926655 67.559865"></polyline>
                    <polyline id="path18" points="111.231731 67.559865 95.6103976 67.559865 95.6103976 56.4197319 110.691731 56.4197319 110.691731 51.6666654 95.6103976 51.6666654 95.6103976 40.2093323 111.717731 40.2093323 111.717731 35.4530658 90.3114644 35.4530658 90.3114644 72.3161315 111.231731 72.3161315 111.231731 67.559865"></polyline>
                    <path d="M156.306663,64.0989317 C151.76533,66.7499983 147.874663,67.932265 143.602663,67.932265 C135.17333,67.932265 128.904663,61.9385318 128.904663,53.8286653 C128.904663,45.5625322 134.95733,39.835999 143.82133,39.835999 C147.982663,39.835999 152.522663,41.286399 156.683996,43.9906656 L156.683996,38.211999 C153.062663,36.3187991 149.11733,34.9693325 143.335996,34.9693325 C129.49733,34.9693325 123.442664,45.6145322 123.442664,53.3442653 C123.442664,64.5895984 131.92973,72.8021315 143.65733,72.8021315 C147.442664,72.8021315 151.279996,71.8775982 156.306663,69.7734649 L156.306663,64.0989317" id="path20"></path>
                    <polyline id="path22" points="201.706662 35.4530658 196.407995 35.4530658 196.407995 51.5078654 175.762662 51.5078654 175.762662 35.4530658 170.463996 35.4530658 170.463996 72.3161315 175.762662 72.3161315 175.762662 56.2661319 196.407995 56.2661319 196.407995 72.3161315 201.706662 72.3161315 201.706662 35.4530658"></polyline>
                    <polyline id="path24" points="223.050661 35.4530658 217.755995 35.4530658 217.755995 72.3161315 223.050661 72.3161315 223.050661 35.4530658"></polyline>
                    <polyline id="path26" points="273.157327 35.4530658 268.61466 35.4530658 243.971994 63.8291984 243.971994 35.4530658 238.998661 35.4530658 238.998661 72.3161315 243.217327 72.3161315 268.18266 43.7759989 268.18266 72.3161315 273.157327 72.3161315 273.157327 35.4530658"></polyline>
                    <polyline id="path28" points="301.529326 35.1306658 300.447992 35.1306658 284.507993 72.3161315 289.802659 72.3161315 300.881326 46.4281322 311.909326 72.3161315 317.154659 72.3161315 301.529326 35.1306658"></polyline>
                    <polyline id="path30" points="349.687991 67.559865 334.067992 67.559865 334.067992 56.4197319 349.143991 56.4197319 349.143991 51.6666654 334.067992 51.6666654 334.067992 40.2093323 350.171991 40.2093323 350.171991 35.4530658 328.766658 35.4530658 328.766658 72.3161315 349.687991 72.3161315 349.687991 67.559865"></polyline>
                    <path d="M381.950657,64.2030651 C378.821324,67.1797317 375.791991,68.044265 373.307991,68.044265 C369.898657,68.044265 367.466657,66.2603983 367.466657,63.6666651 C367.466657,56.5863986 383.414657,56.6931986 383.414657,44.9639989 C383.414657,39.1802657 379.037324,34.9693325 373.091991,34.9693325 C369.091991,34.9693325 365.849324,36.0478658 362.763991,38.370799 L362.763991,45.0734655 C365.469324,41.617199 368.870657,39.723999 372.495991,39.723999 C376.605324,39.723999 378.493324,42.3135989 378.493324,44.3707989 C378.493324,51.9906654 362.553324,52.852132 362.553324,62.9583984 C362.553324,68.9609316 366.982657,72.8021315 373.739991,72.8021315 C376.553324,72.8021315 379.357324,71.9374649 381.950657,70.2067982 L381.950657,64.2030651" id="path32"></path>
                    <polyline id="path34" points="424.166656 67.559865 411.406656 67.559865 411.406656 35.4530658 406.110657 35.4530658 406.110657 67.559865 393.357323 67.559865 393.357323 72.3161315 424.166656 72.3161315 424.166656 67.559865"></polyline>
                    <path d="M232.479994,122.286397 C231.479994,117.809864 230.826661,115.401064 229.966661,112.773464 C227.769328,106.104131 225.487994,103.010397 223.409328,103.010397 C217.627995,103.010397 212.953328,118.94373 212.953328,137.939997 C212.953328,156.937329 217.643995,172.351996 223.414661,172.351996 C227.406661,172.351996 230.643994,166.558663 232.427994,155.819996 C230.135994,174.101329 224.402661,185.607995 217.411995,185.607995 C208.457328,185.607995 201.186662,164.143996 201.186662,137.659997 C201.186662,111.197864 208.457328,89.7499978 217.411995,89.7499978 C224.658661,89.7499978 230.755994,103.027064 232.865328,122.32293 C232.737328,122.309864 232.607994,122.299464 232.479994,122.286397" id="path36"></path>
                    <path d="M198.965328,135.371997 C185.973329,137.711997 181.422662,140.475996 181.422662,143.270663 C181.422662,146.595996 189.102662,149.49733 199.607995,151.150663 C199.625328,151.36133 199.647995,151.56533 199.669328,151.77333 C182.447995,149.426663 169.662662,144.17733 169.662662,138.103997 C169.662662,133.294263 177.899996,127.31093 199.578662,124.49733 C199.234662,128.07293 199.027995,131.729197 198.965328,135.371997" id="path38"></path>
                    <path d="M235.461327,152.12133 C235.461327,152.12133 254.85466,149.063996 255.50266,143.458663 C255.50266,138.331997 239.021327,134.158663 218.691995,134.099997 C216.861328,134.099997 216.937328,134.119997 215.249328,134.210663 C215.377328,130.218797 215.693328,126.618264 216.154661,123.421864 C217.621328,123.389064 217.451995,123.361997 219.070661,123.361997 C246.086661,123.421864 267.947993,130.148397 267.947993,138.331997 C267.947993,143.323996 257.753327,150.18533 235.461327,152.12133" id="path40"></path>
                    <polyline id="path42" points="3.90625324 4.91718654 1.80989329 4.91718654 1.80989329 19.4999995 3.90625324 19.4999995 3.90625324 4.91718654"></polyline>
                    <path d="M9.27187977,13.2531197 L9.31510643,13.2531197 C10.0416664,14.174533 11.1119731,14.7067996 12.179693,14.7067996 C13.997333,14.7067996 15.4521329,13.4666663 15.4521329,10.8359331 L15.4521329,4.91718654 L13.5494663,4.91718654 L13.5494663,10.8598931 C13.5494663,12.2692664 12.8213597,13.1906263 11.6666664,13.1906263 C10.8333331,13.1906263 10.1708397,12.807813 9.27187977,11.8025997 L9.27187977,4.91718654 L7.36874648,4.91718654 L7.36874648,14.516133 L9.27187977,14.516133 L9.27187977,13.2531197" id="path44"></path>
                    <polyline id="path46" points="17.0354662 14.516133 19.1103995 14.516133 21.6969328 8.61458645 24.2187994 14.516133 26.2499993 14.516133 22.0171994 4.72395988 21.3759995 4.72395988 17.0354662 14.516133"></polyline>
                    <path d="M34.1015991,10.6906264 C34.0374658,12.1411464 33.2041325,13.0651063 31.8567992,13.0651063 C30.4035992,13.0651063 29.5259993,12.204173 29.2707993,10.6906264 L34.1015991,10.6906264 Z M35.8139991,5.85729319 C34.6587991,5.08645321 33.6103992,4.72395988 31.9859992,4.72395988 C28.9921326,4.72395988 27.3245327,7.18281315 27.3245327,9.83073309 C27.3245327,12.7427063 29.1630659,14.7067996 31.8150659,14.7067996 C34.3593325,14.7067996 35.9843991,12.9770797 35.9843991,9.42811976 L29.2281326,9.42811976 C29.5259993,7.52395981 30.6171992,6.5427065 32.4557325,6.5427065 C33.6103992,6.5427065 34.7005325,6.96666649 35.8139991,7.69583981 L35.8139991,5.85729319 L35.8139991,5.85729319 Z" id="path48"></path>
                    <path d="M44.1510656,12.034893 C43.0817323,12.7427063 42.0781323,13.0427063 41.372399,13.0427063 C40.601599,13.0427063 40.110399,12.6770797 40.110399,12.1640664 C40.110399,11.7375064 40.7526656,11.2213597 42.4417323,10.2401064 C44.0223989,9.19062644 44.6005324,8.52917312 44.6005324,7.54791981 C44.6005324,5.85729319 43.2535989,4.72395988 41.435999,4.72395988 C40.260399,4.72395988 39.341199,4.95625321 38.1005324,5.59999986 L38.1005324,7.65207981 C39.341199,6.79739983 40.473999,6.39062651 41.243199,6.39062651 C42.0130656,6.43593317 42.6546656,6.79739983 42.6546656,7.48281315 C42.6546656,8.80781311 38.163999,9.51354643 38.163999,12.0999997 C38.163999,13.7239997 39.4046657,14.7067996 41.3297323,14.7067996 C42.2265323,14.7067996 43.1458656,14.4530663 44.1510656,13.9171997 L44.1510656,12.034893" id="path50"></path>
                    <path d="M49.5614654,14.516133 L52.5963987,14.516133 L52.5963987,12.807813 L49.5614654,12.807813 L49.5614654,7.88802647 C49.5614654,6.75573316 50.3739987,6.43593317 50.9286654,6.43593317 C51.6119987,6.43593317 52.319332,6.6692665 53.088532,7.14114649 L53.088532,5.36510653 C52.424532,5.00259987 51.3994654,4.72395988 50.7802654,4.72395988 C48.7041321,4.72395988 47.6587988,6.00521318 47.6587988,7.74010647 L47.6587988,12.807813 L45.9895989,12.807813 L45.9895989,13.0161463 L49.5614654,16.5026663 L49.5614654,14.516133" id="path52"></path>
                    <path d="M56.8083986,14.516133 L56.8083986,13.2531197 C57.7917319,14.240133 58.7125319,14.7067996 59.6083985,14.7067996 C60.8265318,14.7067996 61.8333318,14.109333 62.4739984,12.9770797 C63.3083984,13.9171997 64.3125317,14.7067996 65.682265,14.7067996 C67.6259983,14.7067996 68.8671983,13.211973 68.8671983,10.9453064 L68.8671983,4.91718654 L66.9645317,4.91718654 L66.9645317,10.8598931 C66.9645317,12.3161464 66.0661317,13.105213 64.9765317,13.105213 C64.3567984,13.1281197 63.5223984,12.5921864 62.8385318,11.885413 L62.8385318,4.91718654 L60.9359985,4.91718654 L60.9359985,10.8812531 C60.9359985,12.4411464 60.1431985,13.105213 59.2021319,13.105213 C58.2411985,13.105213 57.5989319,12.807813 56.8083986,11.885413 L56.8083986,4.91718654 L54.9062653,4.91718654 L54.9062653,14.516133 L56.8083986,14.516133" id="path54"></path>
                    <path d="M78.3177314,10.6906264 C78.2526647,12.1411464 77.4202647,13.0651063 76.0729314,13.0651063 C74.6197315,13.0651063 73.7421315,12.204173 73.4859982,10.6906264 L78.3177314,10.6906264 Z M80.0286647,5.85729319 C78.873998,5.08645321 77.8265314,4.72395988 76.2021314,4.72395988 C73.2083982,4.72395988 71.5406649,7.18281315 71.5406649,9.83073309 C71.5406649,12.7427063 73.3791982,14.7067996 76.0286648,14.7067996 C78.5754647,14.7067996 80.2005313,12.9770797 80.2005313,9.42811976 L73.4426648,9.42811976 C73.7421315,7.52395981 74.8317315,6.5427065 76.6702647,6.5427065 C77.8265314,6.5427065 78.9166647,6.96666649 80.0286647,7.69583981 L80.0286647,5.85729319 L80.0286647,5.85729319 Z" id="path56"></path>
                    <path d="M84.6473312,13.2531197 L84.6890645,13.2531197 C85.4166645,14.174533 86.4843978,14.7067996 87.5546645,14.7067996 C89.3707978,14.7067996 90.8254644,13.4666663 90.8254644,10.8359331 L90.8254644,4.91718654 L88.9218644,4.91718654 L88.9218644,10.8598931 C88.9218644,12.2692664 88.1969311,13.1906263 87.0417312,13.1906263 C86.2073312,13.1906263 85.5442645,12.807813 84.6473312,11.8025997 L84.6473312,4.91718654 L82.7431979,4.91718654 L82.7431979,14.516133 L84.6473312,14.516133 L84.6473312,13.2531197" id="path58"></path>
                    <path d="M96.2343976,14.516133 L99.2707975,14.516133 L99.2707975,12.807813 L96.2343976,12.807813 L96.2343976,7.88802647 C96.2343976,6.75573316 97.0469309,6.43593317 97.6041309,6.43593317 C98.2874642,6.43593317 98.9931975,6.6692665 99.7619975,7.14114649 L99.7619975,5.36510653 C99.1005309,5.00259987 98.0729309,4.72395988 97.4530642,4.72395988 C95.3802643,4.72395988 94.331731,6.00521318 94.331731,7.74010647 L94.331731,12.807813 L92.6650644,12.807813 L92.6650644,13.0161463 L96.2343976,16.5026663 L96.2343976,14.516133" id="path60"></path>
                    <path d="M112.313997,9.66250643 C110.689064,9.10781311 109.277064,8.55207979 109.277064,7.41718648 C109.277064,6.62811983 109.854131,6.07083985 110.645864,6.07083985 C111.243197,6.07083985 111.799464,6.37083984 112.313997,6.8625065 L112.313997,9.66250643 Z M115.585997,5.47187986 C114.708397,4.89322654 114.34533,4.72395988 113.746397,4.72395988 C112.913064,4.72395988 112.462531,5.02135987 112.291731,5.70677319 C111.458397,5.04530654 110.580664,4.72395988 109.704131,4.72395988 C108.292664,4.72395988 107.352664,5.83333319 107.352664,7.07603982 C107.352664,8.97707978 109.085997,9.55729309 110.623997,10.1119731 L112.313997,10.7093731 L112.313997,11.2213597 C112.313997,12.4223997 111.735997,12.911973 110.580664,12.911973 C109.533864,12.911973 108.464531,12.4223997 107.545864,11.3291731 L107.545864,13.404133 C108.292664,14.2786663 109.341197,14.7067996 110.730664,14.7067996 C112.677064,14.7067996 114.21613,13.7239997 114.21613,11.5453064 L114.21613,6.60521317 C114.21613,6.24270651 114.34533,6.11458651 114.57973,6.11458651 C114.773464,6.11458651 115.157864,6.30781318 115.585997,6.62811983 L115.585997,5.47187986 L115.585997,5.47187986 Z" id="path62"></path>
                    <path d="M119.668264,13.2531197 L119.71093,13.2531197 C120.437464,14.174533 121.506797,14.7067996 122.575464,14.7067996 C124.394797,14.7067996 125.84733,13.4666663 125.84733,10.8359331 L125.84733,4.91718654 L123.94373,4.91718654 L123.94373,10.8598931 C123.94373,12.2692664 123.21773,13.1906263 122.06253,13.1906263 C121.22813,13.1906263 120.56613,12.807813 119.668264,11.8025997 L119.668264,4.91718654 L117.765597,4.91718654 L117.765597,14.516133 L119.668264,14.516133 L119.668264,13.2531197" id="path64"></path>
                    <path d="M135.426663,12.635933 C134.78533,12.8906263 134.291997,12.9999997 133.650663,12.9999997 C131.81253,12.9999997 130.57133,11.6718797 130.57133,9.66250643 C130.57133,7.86822647 131.299463,6.5187465 133.50133,6.5187465 L135.426663,6.5187465 L135.426663,12.635933 Z M137.32933,4.91718654 L133.286397,4.91718654 C130.423463,4.91718654 128.627597,6.8625065 128.627597,9.94114642 C128.627597,12.7187463 130.61453,14.7067996 133.415997,14.7067996 C134.05733,14.7067996 134.655997,14.6026663 135.426663,14.3239996 L135.426663,19.4999995 L137.32933,19.4999995 L137.32933,4.91718654 L137.32933,4.91718654 Z" id="path66"></path>
                    <path d="M149.302663,6.79739983 L151.931996,6.79739983 C154.390663,6.79739983 155.053329,8.01614647 155.053329,9.10781311 C155.053329,10.4333331 154.027996,11.3760397 151.82533,11.3760397 L149.302663,11.3760397 L149.302663,6.79739983 Z M149.302663,13.2531197 L150.691996,13.2531197 C152.76533,13.2531197 153.769329,14.0239996 153.769329,15.5838663 C153.769329,16.6770662 153.14933,17.6171996 151.226663,17.6171996 L149.302663,17.6171996 L149.302663,13.2531197 Z M147.20533,19.4999995 L151.44133,19.4999995 C154.582663,19.4999995 155.929329,17.6171996 155.929329,15.7759996 C155.929329,14.2614663 155.223996,13.2744797 153.70533,12.654693 L153.70533,12.6145864 C155.887996,12.204173 157.211996,10.7744797 157.211996,8.80781311 C157.211996,7.01041316 155.865329,4.91718654 152.20933,4.91718654 L147.20533,4.91718654 L147.20533,19.4999995 L147.20533,19.4999995 Z" id="path68"></path>
                    <path d="M165.614663,4.91718654 L165.614663,6.13593318 C164.823996,5.27863987 163.711996,4.72395988 162.771996,4.72395988 C160.826663,4.72395988 159.457329,6.11458651 159.457329,8.55207979 L159.457329,14.516133 L161.361329,14.516133 L161.361329,8.42239979 C161.361329,7.07603982 162.023996,6.30781318 163.327996,6.30781318 C164.183996,6.30781318 164.995996,6.77447983 165.614663,7.65207981 L165.614663,14.516133 L167.518662,14.516133 L167.518662,4.91718654 L165.614663,4.91718654" id="path70"></path>
                    <path d="M176.327996,12.034893 C175.257329,12.7427063 174.251996,13.0427063 173.546662,13.0427063 C172.778662,13.0427063 172.286662,12.6770797 172.286662,12.1640664 C172.286662,11.7375064 172.926662,11.2213597 174.617329,10.2401064 C176.198662,9.19062644 176.777329,8.52917312 176.777329,7.54791981 C176.777329,5.85729319 175.429329,4.72395988 173.611996,4.72395988 C172.435996,4.72395988 171.515996,4.95625321 170.277329,5.59999986 L170.277329,7.65207981 C171.515996,6.79739983 172.649329,6.39062651 173.419996,6.39062651 C174.189329,6.43593317 174.830662,6.79739983 174.830662,7.48281315 C174.830662,8.80781311 170.341329,9.51354643 170.341329,12.0999997 C170.341329,13.7239997 171.581329,14.7067996 173.505329,14.7067996 C174.403996,14.7067996 175.322662,14.4530663 176.327996,13.9171997 L176.327996,12.034893" id="path72"></path>
                    <path d="M181.459995,4.91718654 L179.555996,4.91718654 L179.555996,14.516133 L181.459995,14.516133 L181.459995,4.91718654 Z M180.517329,16.2921329 C179.898662,16.2921329 179.385329,16.8051996 179.385329,17.4254662 C179.385329,18.0453329 179.898662,18.5573329 180.517329,18.5573329 C181.138662,18.5573329 181.651995,18.0453329 181.651995,17.4254662 C181.651995,16.8051996 181.138662,16.2921329 180.517329,16.2921329 L180.517329,16.2921329 Z" id="path74"></path>
                    <path d="M186.589329,13.2531197 L186.633329,13.2531197 C187.359995,14.174533 188.429329,14.7067996 189.497329,14.7067996 C191.314662,14.7067996 192.769329,13.4666663 192.769329,10.8359331 L192.769329,4.91718654 L190.866662,4.91718654 L190.866662,10.8598931 C190.866662,12.2692664 190.138662,13.1906263 188.983995,13.1906263 C188.150662,13.1906263 187.487995,12.807813 186.589329,11.8025997 L186.589329,4.91718654 L184.686662,4.91718654 L184.686662,14.516133 L186.589329,14.516133 L186.589329,13.2531197" id="path76"></path>
                    <path d="M202.261328,10.6906264 C202.198662,12.1411464 201.363995,13.0651063 200.017328,13.0651063 C198.562662,13.0651063 197.686662,12.204173 197.430662,10.6906264 L202.261328,10.6906264 Z M203.971995,5.85729319 C202.818662,5.08645321 201.770662,4.72395988 200.145328,4.72395988 C197.151995,4.72395988 195.483995,7.18281315 195.483995,9.83073309 C195.483995,12.7427063 197.323995,14.7067996 199.973328,14.7067996 C202.519995,14.7067996 204.143995,12.9770797 204.143995,9.42811976 L197.386662,9.42811976 C197.686662,7.52395981 198.777328,6.5427065 200.615995,6.5427065 C201.770662,6.5427065 202.861328,6.96666649 203.971995,7.69583981 L203.971995,5.85729319 L203.971995,5.85729319 Z" id="path78"></path>
                    <path d="M212.310661,12.034893 C211.242661,12.7427063 210.237328,13.0427063 209.530661,13.0427063 C208.761328,13.0427063 208.270661,12.6770797 208.270661,12.1640664 C208.270661,11.7375064 208.913328,11.2213597 210.601328,10.2401064 C212.182661,9.19062644 212.759995,8.52917312 212.759995,7.54791981 C212.759995,5.85729319 211.414661,4.72395988 209.594661,4.72395988 C208.418661,4.72395988 207.499995,4.95625321 206.258662,5.59999986 L206.258662,7.65207981 C207.499995,6.79739983 208.634661,6.39062651 209.402661,6.39062651 C210.173328,6.43593317 210.814661,6.79739983 210.814661,7.48281315 C210.814661,8.80781311 206.323995,9.51354643 206.323995,12.0999997 C206.323995,13.7239997 207.565328,14.7067996 209.489328,14.7067996 C210.386661,14.7067996 211.305328,14.4530663 212.310661,13.9171997 L212.310661,12.034893" id="path80"></path>
                    <path d="M221.078661,12.034893 C220.009328,12.7427063 219.003995,13.0427063 218.297328,13.0427063 C217.527995,13.0427063 217.035995,12.6770797 217.035995,12.1640664 C217.035995,11.7375064 217.677328,11.2213597 219.365328,10.2401064 C220.950661,9.19062644 221.526661,8.52917312 221.526661,7.54791981 C221.526661,5.85729319 220.178661,4.72395988 218.361328,4.72395988 C217.186661,4.72395988 216.265328,4.95625321 215.026661,5.59999986 L215.026661,7.65207981 C216.265328,6.79739983 217.399995,6.39062651 218.170661,6.39062651 C218.939995,6.43593317 219.579995,6.79739983 219.579995,7.48281315 C219.579995,8.80781311 215.089328,9.51354643 215.089328,12.0999997 C215.089328,13.7239997 216.329328,14.7067996 218.254661,14.7067996 C219.151995,14.7067996 220.073328,14.4530663 221.078661,13.9171997 L221.078661,12.034893" id="path82"></path>
                    <path d="M232.578661,6.79739983 L235.917327,6.79739983 C240.662661,6.79739983 241.753327,10.4093731 241.753327,12.204173 C241.753327,15.1359996 239.890661,17.6171996 235.807994,17.6171996 L232.578661,17.6171996 L232.578661,6.79739983 Z M230.482661,19.4999995 L236.151994,19.4999995 C241.539994,19.4999995 243.911994,15.6494663 243.911994,12.204173 C243.911994,8.46406646 240.982661,4.91718654 236.169327,4.91718654 L230.482661,4.91718654 L230.482661,19.4999995 L230.482661,19.4999995 Z" id="path84"></path>
                    <path d="M253.083994,10.6906264 C253.01866,12.1411464 252.185327,13.0651063 250.83866,13.0651063 C249.38666,13.0651063 248.51066,12.204173 248.253327,10.6906264 L253.083994,10.6906264 Z M254.791994,5.85729319 C253.63866,5.08645321 252.591994,4.72395988 250.96666,4.72395988 C247.97466,4.72395988 246.307994,7.18281315 246.307994,9.83073309 C246.307994,12.7427063 248.143994,14.7067996 250.79466,14.7067996 C253.341327,14.7067996 254.96666,12.9770797 254.96666,9.42811976 L248.209327,9.42811976 C248.51066,7.52395981 249.599994,6.5427065 251.43866,6.5427065 C252.591994,6.5427065 253.68266,6.96666649 254.791994,7.69583981 L254.791994,5.85729319 L254.791994,5.85729319 Z" id="path86"></path>
                    <polyline id="path88" points="255.95066 14.516133 258.02666 14.516133 260.611993 8.61458645 263.135993 14.516133 265.16666 14.516133 260.933327 4.72395988 260.291993 4.72395988 255.95066 14.516133"></polyline>
                    <path d="M273.01866,10.6906264 C272.953327,12.1411464 272.119993,13.0651063 270.77466,13.0651063 C269.31866,13.0651063 268.441327,12.204173 268.185327,10.6906264 L273.01866,10.6906264 Z M274.729326,5.85729319 C273.573326,5.08645321 272.52666,4.72395988 270.901327,4.72395988 C267.90666,4.72395988 266.239993,7.18281315 266.239993,9.83073309 C266.239993,12.7427063 268.07866,14.7067996 270.729327,14.7067996 C273.277327,14.7067996 274.901326,12.9770797 274.901326,9.42811976 L268.143993,9.42811976 C268.441327,7.52395981 269.531993,6.5427065 271.37066,6.5427065 C272.52666,6.5427065 273.617326,6.96666649 274.729326,7.69583981 L274.729326,5.85729319 L274.729326,5.85729319 Z" id="path90"></path>
                    <polyline id="path92" points="279.43066 4.91718654 277.529326 4.91718654 277.529326 19.4999995 279.43066 19.4999995 279.43066 4.91718654"></polyline>
                    <path d="M284.073326,9.81614642 C284.073326,7.77863981 285.333326,6.43593317 287.171993,6.43593317 C289.179993,6.43593317 290.443993,7.71718647 290.443993,9.78958642 C290.443993,11.6494797 289.075993,12.9999997 287.171993,12.9999997 C285.375993,12.9999997 284.073326,11.6494797 284.073326,9.81614642 Z M292.389326,9.81614642 C292.389326,6.77447983 290.274659,4.72395988 287.193326,4.72395988 C284.24266,4.72395988 282.125326,6.8625065 282.125326,9.81614642 C282.125326,12.5708397 284.329326,14.7067996 287.193326,14.7067996 C290.209326,14.7067996 292.389326,12.654693 292.389326,9.81614642 L292.389326,9.81614642 Z" id="path94"></path>
                    <path d="M296.815993,6.8625065 C297.393326,6.58125317 298.013326,6.43593317 298.611993,6.43593317 C300.386659,6.43593317 301.669326,7.8025998 301.669326,9.66250643 C301.669326,11.6494797 300.619992,12.807813 298.547993,12.807813 L296.815993,12.807813 L296.815993,6.8625065 Z M296.815993,0 L294.911993,0 L294.911993,14.516133 L298.206659,14.516133 C301.709326,14.516133 303.611992,12.807813 303.611992,9.64114643 C303.611992,6.75573316 301.581326,4.72395988 298.737326,4.72395988 C298.117326,4.72395988 297.542659,4.85207988 296.815993,5.15207987 L296.815993,0 L296.815993,0 Z" id="path96"></path>
                    <path d="M308.083992,14.516133 L308.083992,13.2531197 C309.065326,14.240133 309.987992,14.7067996 310.883992,14.7067996 C312.102659,14.7067996 313.107992,14.109333 313.747992,12.9770797 C314.583992,13.9171997 315.586659,14.7067996 316.955992,14.7067996 C318.901325,14.7067996 320.143992,13.211973 320.143992,10.9453064 L320.143992,4.91718654 L318.237325,4.91718654 L318.237325,10.8598931 C318.237325,12.3161464 317.338659,13.105213 316.250659,13.105213 C315.630659,13.1281197 314.797325,12.5921864 314.111992,11.885413 L314.111992,4.91718654 L312.206659,4.91718654 L312.206659,10.8812531 C312.206659,12.4411464 311.417326,13.105213 310.477326,13.105213 C309.515992,13.105213 308.873326,12.807813 308.083992,11.885413 L308.083992,4.91718654 L306.177326,4.91718654 L306.177326,14.516133 L308.083992,14.516133" id="path98"></path>
                    <path d="M329.591992,10.6906264 C329.526658,12.1411464 328.693325,13.0651063 327.346658,13.0651063 C325.893325,13.0651063 325.018659,12.204173 324.761325,10.6906264 L329.591992,10.6906264 Z M331.299992,5.85729319 C330.146658,5.08645321 329.099992,4.72395988 327.474658,4.72395988 C324.482659,4.72395988 322.813325,7.18281315 322.813325,9.83073309 C322.813325,12.7427063 324.651992,14.7067996 327.302658,14.7067996 C329.849325,14.7067996 331.474658,12.9770797 331.474658,9.42811976 L324.717325,9.42811976 C325.018659,7.52395981 326.107992,6.5427065 327.945325,6.5427065 C329.099992,6.5427065 330.190658,6.96666649 331.299992,7.69583981 L331.299992,5.85729319 L331.299992,5.85729319 Z" id="path100"></path>
                    <path d="M335.922658,13.2531197 L335.961325,13.2531197 C336.690658,14.174533 337.761325,14.7067996 338.829325,14.7067996 C340.643991,14.7067996 342.099991,13.4666663 342.099991,10.8359331 L342.099991,4.91718654 L340.198658,4.91718654 L340.198658,10.8598931 C340.198658,12.2692664 339.469325,13.1906263 338.315992,13.1906263 C337.482658,13.1906263 336.818658,12.807813 335.922658,11.8025997 L335.922658,4.91718654 L334.015992,4.91718654 L334.015992,14.516133 L335.922658,14.516133 L335.922658,13.2531197" id="path102"></path>
                    <path d="M347.510658,14.516133 L350.547991,14.516133 L350.547991,12.807813 L347.510658,12.807813 L347.510658,7.88802647 C347.510658,6.75573316 348.323991,6.43593317 348.878658,6.43593317 C349.559991,6.43593317 350.266658,6.6692665 351.037325,7.14114649 L351.037325,5.36510653 C350.373325,5.00259987 349.349325,4.72395988 348.729325,4.72395988 C346.654658,4.72395988 345.607991,6.00521318 345.607991,7.74010647 L345.607991,12.807813 L343.938658,12.807813 L343.938658,13.0161463 L347.510658,16.5026663 L347.510658,14.516133" id="path104"></path>
                    <path d="M360.723991,11.0947864 L365.258658,11.0947864 L362.906658,16.3786663 L360.723991,11.0947864 Z M370.198657,4.91718654 L368.057324,4.91718654 L366.111991,9.2119731 L359.911991,9.2119731 L358.075991,4.91718654 L355.935991,4.91718654 L362.201324,19.5811995 L363.674658,19.5811995 L370.198657,4.91718654 L370.198657,4.91718654 Z" id="path106"></path>
                    <path d="M375.201324,12.8708397 C374.151991,12.8708397 373.297324,12.0786397 373.297324,11.1385464 C373.297324,10.0890664 374.067991,9.3838531 375.222657,9.3838531 C376.291991,9.3838531 377.059991,10.1333331 377.059991,11.1828131 C377.059991,12.0999997 376.203991,12.8708397 375.201324,12.8708397 Z M374.706657,4.44530656 C373.425324,4.44530656 372.526657,3.8468799 372.526657,2.99322659 C372.526657,2.02917328 373.466657,1.51874663 375.201324,1.51874663 C376.867991,1.51874663 377.851991,2.02917328 377.851991,2.90677326 C377.851991,4.1281199 375.886657,4.44530656 374.706657,4.44530656 Z M379.734657,13.0427063 L377.766657,13.0427063 C378.515991,12.2921864 378.769324,11.758853 378.769324,10.9453064 C378.769324,10.1546931 378.323991,9.2348931 377.873324,8.78385311 C376.589324,7.41718648 373.982657,8.1025998 373.982657,6.96666649 C373.982657,6.43593317 374.985324,6.11458651 376.911991,5.72917319 C378.961324,5.32395987 379.690657,4.27447989 379.690657,3.05729326 C379.690657,1.15208397 377.999991,0 375.157324,0 C372.570657,0 370.731991,1.21718797 370.731991,2.90677326 C370.731991,4.31874656 371.479991,5.15207987 373.146657,5.55989319 C372.485324,5.96145318 372.185324,6.34947984 372.185324,6.77447983 C372.185324,7.39322648 372.783991,7.93333313 373.703991,8.14374646 L373.703991,8.18802646 C372.998657,8.48802645 372.461324,8.89062644 372.099991,9.4041731 C371.758657,9.89583975 371.586657,10.4973997 371.586657,11.2041731 C371.586657,13.2531197 373.190657,14.516133 375.777324,14.516133 L379.734657,14.516133 L379.734657,13.0427063 L379.734657,13.0427063 Z" id="path108"></path>
                    <path d="M388.050657,10.6906264 C387.985324,12.1411464 387.15199,13.0651063 385.805324,13.0651063 C384.35199,13.0651063 383.474657,12.204173 383.217324,10.6906264 L388.050657,10.6906264 Z M389.761324,5.85729319 C388.60799,5.08645321 387.557324,4.72395988 385.933324,4.72395988 C382.941324,4.72395988 381.27199,7.18281315 381.27199,9.83073309 C381.27199,12.7427063 383.110657,14.7067996 385.76399,14.7067996 C388.305324,14.7067996 389.930657,12.9770797 389.930657,9.42811976 L383.174657,9.42811976 C383.474657,7.52395981 384.565324,6.5427065 386.40399,6.5427065 C387.557324,6.5427065 388.649324,6.96666649 389.761324,7.69583981 L389.761324,5.85729319 L389.761324,5.85729319 Z" id="path110"></path>
                    <path d="M394.378657,14.516133 L392.477324,14.516133 L392.477324,4.91718654 L394.378657,4.91718654 L394.378657,11.8025997 C395.277323,12.807813 395.941323,13.1906263 396.77199,13.1906263 C397.92799,13.1906263 398.654657,12.2692664 398.654657,10.8598931 L398.654657,4.91718654 L400.557323,4.91718654 L400.557323,10.8359331 C400.557323,13.4666663 399.105323,14.7067996 397.286657,14.7067996 C396.217323,14.7067996 395.149323,14.174533 394.41999,13.2531197 L394.378657,13.2531197 L394.378657,14.516133" id="path112"></path>
                    <path d="M410.797323,12.0161464 C409.709323,12.7427063 408.97999,12.9531197 408.149323,12.9531197 C406.417323,12.9531197 405.21999,11.6494797 405.21999,9.70417309 C405.21999,7.71718647 406.502657,6.5187465 408.469323,6.5187465 C409.281323,6.5187465 410.050656,6.73489316 411.010656,7.16250649 L411.010656,5.27863987 C410.373323,4.98021321 409.154656,4.72395988 408.149323,4.72395988 C405.28399,4.72395988 403.274657,6.71197317 403.274657,9.53489309 C403.274657,12.6984397 405.110657,14.7067996 408.018656,14.7067996 C409.133323,14.7067996 409.881323,14.4530663 410.797323,14.0478663 L410.797323,12.0161464" id="path114"></path>
                    <polyline id="path116" points="414.85999 0 412.745323 0 416.01599 6.96666649 412.294656 14.516133 414.453323 14.516133 417.042656 9.10781311 419.521323 14.516133 421.662656 14.516133 414.85999 0"></polyline>
                </g>
            </g>
        </g>
    </g>
</svg>