<?xml version="1.0" encoding="utf-8"?>
<!-- Generator: Adobe Illustrator 16.0.4, SVG Export Plug-In . SVG Version: 6.00 Build 0)  -->
<!DOCTYPE svg PUBLIC "-//W3C//DTD SVG 1.1//EN" "http://www.w3.org/Graphics/SVG/1.1/DTD/svg11.dtd">
<svg version="1.1" id="Layer_1" xmlns="http://www.w3.org/2000/svg" xmlns:xlink="http://www.w3.org/1999/xlink" x="0px" y="0px" width="980.717px" height="170.125px" viewBox="0 0.001 98.717 17.125" enable-background="new 0 0.001 98.717 17.125" xml:space="preserve">
<path d="M32.985,5.359c0-2.125-1.521-3.768-3.904-3.768h-5.355v12.25h2.402V9.126h1.812l2.401,4.718h2.661l-2.626-5.011
	C31.983,8.366,32.985,7.07,32.985,5.359 M28.631,7.07h-2.504V3.666h2.504c1.209,0,1.917,0.674,1.917,1.71
	C30.549,6.378,29.841,7.07,28.631,7.07"/>
<path d="M48.071,5.152c-1.277,0-2.229,0.57-2.608,1.227V5.342h-2.229v11.784h2.298v-4.111c0.415,0.569,1.279,1.037,2.454,1.037
	c2.402,0,4.009-1.901,4.009-4.477C51.993,7.053,50.559,5.152,48.071,5.152 M47.622,11.994c-1.176,0-2.125-0.897-2.125-2.4
	c0-1.504,0.949-2.386,2.125-2.386c1.175,0,2.107,0.881,2.107,2.386C49.729,11.113,48.796,11.994,47.622,11.994"/>
<path d="M55.269,6.603V5.342H53.04v8.502h2.299V9.955c0-1.831,1.02-2.401,2.194-2.401c0.207,0,0.432,0.018,0.69,0.068V5.308
	c-0.174-0.019-0.347-0.035-0.536-0.035C56.962,5.273,55.788,5.48,55.269,6.603"/>
<path d="M89.369,5.117c-0.915,0-1.936,0.397-2.453,1.279V5.342h-2.229v8.502h2.298V8.953c0-0.984,0.587-1.763,1.591-1.763
	c1.104,0,1.571,0.743,1.571,1.693v4.958h2.298V8.487C92.445,6.621,91.477,5.117,89.369,5.117"/>
<path d="M97.007,2.802h-2.073v1.191c0,0.76-0.415,1.348-1.312,1.348h-0.434v2.039h1.538v3.957c0,1.642,1.037,2.626,2.695,2.626
	c0.674,0,1.089-0.12,1.296-0.207v-1.9c-0.12,0.035-0.432,0.068-0.708,0.068c-0.657,0-1.002-0.24-1.002-0.983V7.381h1.71V5.342h-1.71
	V2.802z"/>
<path d="M37.755,5.083c-2.177,0-4.181,1.763-4.181,4.476c0,2.869,2.056,4.558,4.389,4.544c1.945-0.011,3.42-1.272,3.848-2.723
	h-2.185c-0.333,0.458-0.855,0.752-1.646,0.752c-1.141,0-2.091-0.812-2.143-1.935h6.082c0-0.035,0.035-0.38,0.035-0.708
	C41.954,6.759,40.381,5.083,37.755,5.083 M35.889,8.625c0.052-0.777,0.708-1.676,1.901-1.676c1.312,0,1.864,0.83,1.899,1.676H35.889
	z"/>
<path d="M62.825,5.083c-2.178,0-4.183,1.763-4.183,4.476c0,2.869,2.058,4.558,4.39,4.544c1.945-0.011,3.421-1.272,3.849-2.723
	h-2.187c-0.333,0.458-0.854,0.752-1.646,0.752c-1.141,0-2.091-0.812-2.144-1.935h6.082c0-0.035,0.035-0.38,0.035-0.708
	C67.024,6.759,65.451,5.083,62.825,5.083 M60.958,8.625c0.052-0.777,0.709-1.676,1.9-1.676c1.312,0,1.865,0.83,1.9,1.676H60.958z"/>
<path d="M79.542,5.083c-2.177,0-4.183,1.763-4.183,4.476c0,2.869,2.058,4.558,4.39,4.544c1.944-0.011,3.421-1.272,3.848-2.723
	h-2.185c-0.333,0.458-0.855,0.752-1.646,0.752c-1.141,0-2.091-0.812-2.143-1.935h6.082c0-0.035,0.033-0.38,0.033-0.708
	C83.741,6.759,82.168,5.083,79.542,5.083 M77.676,8.625c0.052-0.777,0.709-1.676,1.9-1.676c1.312,0,1.865,0.83,1.9,1.676H77.676z"/>
<path d="M72.176,8.694l-1.21-0.259C70.5,8.349,70.189,8.09,70.189,7.675c0-0.483,0.483-0.847,1.089-0.847
	c0.802,0,1.188,0.438,1.335,0.873h1.993c-0.002-0.043-0.006-0.095-0.011-0.164c-0.104-0.916-0.916-2.454-3.335-2.454
	c-1.831,0-3.18,1.262-3.18,2.782c0,1.192,0.742,2.177,2.385,2.54l1.123,0.259c0.657,0.14,0.916,0.449,0.916,0.83
	c0,0.449-0.363,0.847-1.123,0.847c-0.831,0-1.312-0.43-1.483-0.96h-2.053c0.004,0.027,0.007,0.06,0.011,0.098
	c0.104,0.967,0.985,2.626,3.543,2.626c2.229,0,3.301-1.417,3.301-2.8C74.699,10.059,73.852,9.04,72.176,8.694"/>
<path d="M9.012,11.616l0.053,0.011l-0.42-2.262L8.593,9.354C5.68,8.717,2.656,9.086,0,10.367v2.471
	C2.754,11.388,5.945,10.945,9.012,11.616"/>
<path d="M8.173,7.092l0.052,0.012l-0.42-2.263L7.753,4.83C5.144,4.259,2.444,4.494,0,5.47v2.441
	C2.552,6.789,5.413,6.488,8.173,7.092"/>
<path d="M7.334,2.567l0.052,0.012L6.967,0.317L6.915,0.306C4.599-0.201,2.215-0.07,0,0.646v2.405
	C2.332,2.21,4.872,2.029,7.334,2.567"/>
<path d="M9.123,11.64l-0.059-0.014l0.419,2.264l0.059,0.013c2.312,0.506,4.695,0.375,6.909-0.341v-2.405
	C14.122,11.997,11.583,12.178,9.123,11.64"/>
<path d="M8.283,7.116L8.226,7.103l0.419,2.262l0.059,0.013c2.607,0.57,5.306,0.335,7.748-0.64V6.296
	C13.9,7.418,11.042,7.719,8.283,7.116"/>
<path d="M7.444,2.592L7.386,2.579l0.419,2.262l0.058,0.014c2.911,0.637,5.934,0.267,8.588-1.015V1.369
	C13.699,2.819,10.51,3.262,7.444,2.592"/>
</svg>
