<svg xmlns="http://www.w3.org/2000/svg" xmlns:xlink="http://www.w3.org/1999/xlink" viewBox="0 0 88 92.5"><defs><style>.cls-1,.cls-3,.cls-6{fill:none;}.cls-2{fill:#fff2f4;}.cls-10,.cls-3,.cls-4,.cls-6,.cls-7{stroke:#078c04;stroke-linejoin:round;}.cls-10,.cls-3,.cls-4{stroke-linecap:round;}.cls-4,.cls-5{fill:#fff;}.cls-10,.cls-7,.cls-9{fill:#ffd4d9;}.cls-8{clip-path:url(#clip-path);}.cls-11{fill:#078c04;}</style><clipPath id="clip-path"><circle class="cls-1" cx="44" cy="43.5" r="40"/></clipPath></defs><title>co-ziskate-1</title><g id="Layer_2" data-name="Layer 2"><g id="Layer_1-2" data-name="Layer 1"><path class="cls-2" d="M84,43.5A40,40,0,1,0,7.56,60H80.44A39.85,39.85,0,0,0,84,43.5Z"/><line class="cls-3" x1="5" y1="60" x2="83" y2="60"/><line class="cls-3" x1="0.5" y1="60" x2="3" y2="60"/><line class="cls-3" x1="85" y1="60" x2="87.5" y2="60"/><path class="cls-4" d="M66.61.5A2.41,2.41,0,0,1,69,2.91V23.09a2.41,2.41,0,0,1-2.41,2.41H64v3.6a1,1,0,0,1-1.71.71L58,25.5H47l-2.66,4.17a1,1,0,0,1-1.68,0L40,25.5H29l-4.31,4.31A1,1,0,0,1,23,29.1V25.5H20.41A2.41,2.41,0,0,1,18,23.09V2.91A2.41,2.41,0,0,1,20.41.5Z"/><path class="cls-5" d="M48,10.5a4.5,4.5,0,1,0-7.94,2.9A4,4,0,0,1,41,16v1h5V16a4,4,0,0,1,.94-2.57A4.51,4.51,0,0,0,48,10.5Z"/><path class="cls-6" d="M48,10.5a4.5,4.5,0,1,0-7.94,2.9A4,4,0,0,1,41,16v1h5V16a4,4,0,0,1,.94-2.57A4.51,4.51,0,0,0,48,10.5Z"/><path class="cls-7" d="M45,19H42a1,1,0,0,1-1-1V17h5v1A1,1,0,0,1,45,19Z"/><path class="cls-7" d="M45,19.5a1.5,1.5,0,0,1-3,0V19h3Z"/><line class="cls-3" x1="43.5" y1="4" x2="43.5" y2="3"/><line class="cls-3" x1="48.1" y1="5.9" x2="48.8" y2="5.2"/><line class="cls-3" x1="50" y1="10.5" x2="51" y2="10.5"/><line class="cls-3" x1="38.9" y1="5.9" x2="38.2" y2="5.2"/><line class="cls-3" x1="37" y1="10.5" x2="36" y2="10.5"/><g class="cls-8"><path class="cls-9" d="M37.5,70.5V89H42l.4-12.45a1.6,1.6,0,0,1,3.2,0L46,89h4.5V70.5Z"/><path class="cls-3" d="M37.5,70.5V89H42l.4-12.45a1.6,1.6,0,0,1,3.2,0L46,89h4.5V70.5Z"/><path class="cls-9" d="M54.5,62.5a10.5,10.5,0,0,0-21,0V71a.5.5,0,0,0,.5.5h3.5v5h3.26a3.61,3.61,0,0,0,3.24-2,3.61,3.61,0,0,0,3.23,2H50.5v-5H54a.5.5,0,0,0,.5-.5Z"/><path class="cls-3" d="M54.5,62.5a10.5,10.5,0,0,0-21,0V71a.5.5,0,0,0,.5.5h3.5v5h3.26a3.61,3.61,0,0,0,3.24-2,3.61,3.61,0,0,0,3.23,2H50.5v-5H54a.5.5,0,0,0,.5-.5Z"/><path class="cls-4" d="M34,73.25a1.75,1.75,0,0,0,3.5,0V71.5H34Z"/><path class="cls-4" d="M50.5,73.25a1.75,1.75,0,0,0,3.5,0V71.5H50.5Z"/><polygon class="cls-4" points="44 52 40.83 55.62 44 64.5 47.17 55.62 44 52"/><ellipse class="cls-9" cx="44" cy="89.5" rx="13" ry="1.5"/><path class="cls-4" d="M52,89a3,3,0,0,0-3-3h-.5a3,3,0,0,0-3,3Z"/><path class="cls-4" d="M42.5,89a3,3,0,0,0-3-3H39a3,3,0,0,0-3,3Z"/><path class="cls-10" d="M44,64.5,49.5,58l-1-2h2l-.59-2.18a10.62,10.62,0,0,0-1.75-1Z"/><polygon class="cls-10" points="44 52 42.29 59.71 44 64.5 45.71 59.71 44 52"/><path class="cls-10" d="M44,64.5,39.84,52.86a10.62,10.62,0,0,0-1.75,1L37.5,56h2l-1,2Z"/><path class="cls-4" d="M48.16,52.86A10.49,10.49,0,0,0,44,52l3.17,3.62Z"/><path class="cls-4" d="M44,52a10.49,10.49,0,0,0-4.16.86l1,2.76Z"/><line class="cls-3" x1="44" y1="64.5" x2="44" y2="74.5"/><path class="cls-4" d="M51,44a1.23,1.23,0,0,0-1-1.2V42a6,6,0,0,0-12,0v.8A1.23,1.23,0,0,0,37,44a1.25,1.25,0,0,0,1.13,1.23,6,6,0,0,0,11.74,0A1.25,1.25,0,0,0,51,44Z"/><path class="cls-11" d="M41.75,42a.75.75,0,1,0,.75.75.76.76,0,0,0-.75-.75Z"/><path class="cls-11" d="M46.25,42a.75.75,0,1,0,.75.75.76.76,0,0,0-.75-.75Z"/><circle class="cls-9" cx="40.75" cy="44.75" r="0.75"/><circle class="cls-9" cx="47.25" cy="44.75" r="0.75"/><path class="cls-3" d="M42.5,46.55a2.72,2.72,0,0,0,3,0"/><path class="cls-5" d="M50.5,40.5a6.5,6.5,0,0,0-13,0v2a5.15,5.15,0,0,0,3.5-3C43.8,41.39,47.5,41,50.5,40.5Z"/><path class="cls-3" d="M50.5,40.5a6.5,6.5,0,0,0-13,0v2a5.15,5.15,0,0,0,3.5-3C43.8,41.39,47.5,41,50.5,40.5Z"/><path class="cls-3" d="M40,38.5a3.2,3.2,0,0,0,1,1"/><path class="cls-4" d="M26,75.25a1.75,1.75,0,0,0,3.5,0V65H26Z"/><path class="cls-9" d="M14,72.5V91h4.5l.4-12.45a1.6,1.6,0,0,1,3.2,0L22.5,91H27V72.5Z"/><path class="cls-3" d="M14,72.5V91h4.5l.4-12.45a1.6,1.6,0,0,1,3.2,0L22.5,91H27V72.5Z"/><path class="cls-5" d="M10.5,63.5a9.5,9.5,0,0,1,19,0V65H27v7.5H14V65H10.5Z"/><path class="cls-3" d="M10.5,63.5a9.5,9.5,0,0,1,19,0V65H27v7.5H14V65H10.5Z"/><path class="cls-4" d="M10.5,75.25a1.75,1.75,0,0,0,3.5,0V65H10.5Z"/><line class="cls-3" x1="14" y1="65" x2="14" y2="61.51"/><line class="cls-3" x1="27" y1="65" x2="27" y2="62"/><path class="cls-4" d="M29.5,91a3,3,0,0,0-3-3h-4v3Z"/><path class="cls-4" d="M21,91a3,3,0,0,0-3-3H14v3Z"/><path class="cls-4" d="M20,54a9.59,9.59,0,0,0-2.95.47,3.48,3.48,0,0,0,6.84.37A9.37,9.37,0,0,0,20,54Z"/><path class="cls-4" d="M20.48,37.56a6,6,0,0,0-6,6v1.2c-1.72,0-1.6,3,.3,3h0A6,6,0,0,0,26.5,46v-2.4A6,6,0,0,0,20.48,37.56Z"/><path class="cls-11" d="M19.75,44a.75.75,0,1,0,.75.75.75.75,0,0,0-.75-.75Z"/><path class="cls-11" d="M24.25,44a.75.75,0,1,0,.75.75.75.75,0,0,0-.75-.75Z"/><path class="cls-9" d="M18.92,47.34a.6.6,0,0,1-1.2,0,.6.6,0,0,1,1.2,0Z"/><path class="cls-3" d="M20.5,48.5a2.27,2.27,0,0,0,2.66.25,3.79,3.79,0,0,0,.35-.25"/><path class="cls-5" d="M26.64,43c1.2-.6.49-3.7-.61-4.21l.79-.62a.91.91,0,0,0-.63-1.64H18.81A4.69,4.69,0,0,0,14,41.17v3.61c3.61,0,3.53-2.84,6.62-3.61.08.7,1,1.36,2.41,1.8a1.76,1.76,0,0,1,1.8-1.8Z"/><path class="cls-3" d="M26.64,43c1.2-.6.49-3.7-.61-4.21l.79-.62a.91.91,0,0,0-.63-1.64H18.81A4.69,4.69,0,0,0,14,41.17v3.61c3.61,0,3.53-2.84,6.62-3.61.08.7,1,1.36,2.41,1.8a1.76,1.76,0,0,1,1.8-1.8Z"/><polygon class="cls-5" points="70.46 83.5 70 92 63 92 62.54 83.5 70.46 83.5"/><polygon class="cls-3" points="70.5 83.5 70 92 63 92 62.5 83.5 70.5 83.5"/><line class="cls-3" x1="66.5" y1="83.5" x2="66.5" y2="92"/><polygon class="cls-9" points="61.54 83.5 61 73.5 72 73.5 71.46 83.5 61.54 83.5"/><polygon class="cls-3" points="61.54 83.5 61 73.5 72 73.5 71.46 83.5 61.54 83.5"/><path class="cls-5" d="M72,56.63A8.4,8.4,0,0,0,67,55a8.49,8.49,0,0,0-6,2.48v16H72Z"/><path class="cls-3" d="M72,56.63A8.4,8.4,0,0,0,67,55a8.49,8.49,0,0,0-6,2.48v16H72Z"/><path class="cls-4" d="M67,62.22l2.51-6.85a8.51,8.51,0,0,0-5.84.32L66,62.22a.51.51,0,0,0,.94,0Z"/><path class="cls-4" d="M60.25,78a2,2,0,0,0,1-.3L61,73.5v-16a8.5,8.5,0,0,0-2.5,6V76.25A1.75,1.75,0,0,0,60.25,78Z"/><path class="cls-4" d="M72,56.63V76.25a1.75,1.75,0,0,0,3.5,0V63.5A8.47,8.47,0,0,0,72,56.63Z"/><path class="cls-4" d="M59.5,92a3,3,0,0,1,3-3h4v3Z"/><path class="cls-4" d="M63.5,92a3,3,0,0,1,3-3h4v3Z"/><path class="cls-4" d="M66.5,38.91a6,6,0,0,1,6,6v.8a1.22,1.22,0,0,1-.13,2.42A6,6,0,0,1,60.5,46.91v-2A6,6,0,0,1,66.5,38.91Z"/><path class="cls-11" d="M67.25,45a.75.75,0,1,0,.75.75.76.76,0,0,0-.75-.75Z"/><path class="cls-11" d="M63.25,45a.75.75,0,1,0,.75.75.76.76,0,0,0-.75-.75Z"/><circle class="cls-9" cx="69.25" cy="47.75" r="0.75"/><path class="cls-3" d="M67,49.5a2.69,2.69,0,0,1-3,0"/><path class="cls-4" d="M72.93,40.38c.61,1,1.46,1.53,1.46,6s1.5,4.5,1.5,7.5c0,2.7-2.25,3.37-5,3.48a.49.49,0,0,1-.44-.23.52.52,0,0,1,0-.5c.68-1.28,1.87-4.32,2-10a.9.9,0,0,0-.84-.92c-2.55-.18-7.38-2.69-8.08-3.95a.6.6,0,0,0-.76-.26c-1.54.67-2.2,3.36-2.2,3.36V47A29.62,29.62,0,0,0,62,56.28a.42.42,0,0,1-.61.5c-3.69-2.29-4.17-3.21-3-6.87.52-1.58-1-9,2-10C60.39,37.41,72.13,38.51,72.93,40.38Z"/><path class="cls-10" d="M68.11,40.61C65,39.3,61.46,39,60.39,39.91a7.21,7.21,0,0,1,.11-2.41c.79-1.85,4.84-1.9,9.06-.1s6.33,4,6.83,6-.87,2.33-2,2.5C74.37,44.52,71.25,42,68.11,40.61Z"/><line class="cls-3" x1="37.5" y1="71.5" x2="37.5" y2="60.83"/><line class="cls-3" x1="50.5" y1="71.5" x2="50.5" y2="60.83"/></g></g></g></svg>