<svg xmlns="http://www.w3.org/2000/svg" viewBox="0 0 88 72.21"><defs><style>.cls-1{fill:#fff2f4;}.cls-2{fill:none;}.cls-2,.cls-4,.cls-6{stroke:#078c04;stroke-linecap:round;stroke-linejoin:round;}.cls-3,.cls-6{fill:#ffd4d9;}.cls-4,.cls-5{fill:#fff;}</style></defs><title>grind-2</title><g id="Layer_2" data-name="Layer 2"><g id="Layer_1-2" data-name="Layer 1"><path class="cls-1" d="M84,40A40,40,0,1,0,7.56,56.5H80.44A39.85,39.85,0,0,0,84,40Z"/><line class="cls-2" x1="5" y1="56.5" x2="83" y2="56.5"/><line class="cls-2" x1="0.5" y1="56.5" x2="3" y2="56.5"/><line class="cls-2" x1="85" y1="56.5" x2="87.5" y2="56.5"/><path class="cls-1" d="M79.82,68.06c.87-.39,1.35-.81,1.35-1.24,0-2.62-17.6-4.75-39.3-4.75S2.56,64.2,2.56,66.82s17.6,4.76,39.31,4.76c7,0,13.62-.23,19.33-.62A31.44,31.44,0,0,0,71,72.21c6.3,0,11.41-1.13,11.41-2.53C82.44,69.06,81.45,68.5,79.82,68.06Z"/><path class="cls-3" d="M46.94,47.49a3.17,3.17,0,1,0,0,6.34H69.13a1.27,1.27,0,0,1,0,2.53H46.94a5.71,5.71,0,1,1,0-11.41H69.13a1.27,1.27,0,0,1,0,2.54Z"/><path class="cls-2" d="M46.94,47.49a3.17,3.17,0,1,0,0,6.34H69.13a1.27,1.27,0,0,1,0,2.53H46.94a5.71,5.71,0,1,1,0-11.41H69.13a1.27,1.27,0,0,1,0,2.54Z"/><path class="cls-4" d="M69.13,53.83V47.49H46.94a3.17,3.17,0,1,0,0,6.34Z"/><line class="cls-2" x1="69.13" y1="50.02" x2="60.25" y2="50.02"/><line class="cls-2" x1="57.71" y1="50.02" x2="55.18" y2="50.02"/><path class="cls-3" d="M45,37.35A3.8,3.8,0,1,0,45,45H62.79a1.25,1.25,0,0,0,1.26-1.26V42.42H45a1.27,1.27,0,1,1,0-2.54h19V38.61a1.25,1.25,0,0,0-1.26-1.26Z"/><path class="cls-2" d="M45,37.35A3.8,3.8,0,1,0,45,45H62.79a1.25,1.25,0,0,0,1.26-1.26V42.42H45a1.27,1.27,0,1,1,0-2.54h19V38.61a1.25,1.25,0,0,0-1.26-1.26Z"/><path class="cls-4" d="M62.79,42.42V39.88H45a1.27,1.27,0,1,0,0,2.54Z"/><rect class="cls-5" x="14.75" y="41.98" width="38.04" height="8.88" rx="1.27" ry="1.27" transform="translate(-22.24 58.97) rotate(-66.6)"/><rect class="cls-2" x="14.75" y="41.98" width="38.04" height="8.88" rx="1.27" ry="1.27" transform="translate(-22.24 58.97) rotate(-66.6)"/><rect class="cls-6" x="33.36" y="34.57" width="8.88" height="5.07" transform="translate(17.85 -11.96) rotate(23.4)"/><rect class="cls-5" x="3.71" y="44.76" width="35.5" height="7.61" rx="1.27" ry="1.27" transform="translate(-31.2 41.76) rotate(-58.8)"/><rect class="cls-2" x="3.71" y="44.76" width="35.5" height="7.61" rx="1.27" ry="1.27" transform="translate(-31.2 41.76) rotate(-58.8)"/><rect class="cls-6" x="22.25" y="38.44" width="7.61" height="5.07" transform="translate(24.99 -7.57) rotate(31.2)"/><rect class="cls-5" x="34.89" y="56.36" width="38.04" height="8.88" rx="1.27" ry="1.27"/><rect class="cls-2" x="34.89" y="56.36" width="38.04" height="8.88" rx="1.27" ry="1.27"/><rect class="cls-6" x="58.35" y="58.26" width="8.88" height="5.07" transform="translate(123.59 -1.99) rotate(90)"/><path class="cls-5" d="M53.28,22.7c6.34-3.17,8.24,1.79,8.24,6.34s-3.81,11-8.24,7.15C48.84,40,45,33.59,45,29S46.94,19.53,53.28,22.7Z"/><path class="cls-2" d="M53.28,22.7c6.34-3.17,8.24,1.79,8.24,6.34s-3.81,11-8.24,7.15C48.84,40,45,33.59,45,29S46.94,19.53,53.28,22.7Z"/><path class="cls-6" d="M57.71,14.05s1.18,1.62-.67,4.2-3.76,2-3.76,2S52.1,18.61,54,16,57.71,14.05,57.71,14.05Z"/><path class="cls-4" d="M71.66,55.1H69.12V45a1.27,1.27,0,0,1,2.54,0Z"/><rect class="cls-6" x="69.13" y="46.22" width="2.54" height="2.54"/><line class="cls-2" x1="70.39" y1="41.79" x2="70.39" y2="43.69"/><path class="cls-2" d="M71.66,45H72a1.59,1.59,0,0,1,1.58,1.59v1.58"/><polygon class="cls-4" points="68.22 55.1 65.73 45.18 62.66 45.95 64.95 55.1 68.22 55.1"/><rect class="cls-6" x="62.92" y="45.53" width="3.17" height="2.54" transform="translate(-9.47 17.15) rotate(-14.12)"/><path class="cls-4" d="M63.22,42.44h1.17a1,1,0,0,1,1,1v2.17a0,0,0,0,1,0,0H62.22a0,0,0,0,1,0,0V43.44A1,1,0,0,1,63.22,42.44Z" transform="translate(-8.81 16.89) rotate(-14.11)"/><polygon class="cls-4" points="77.51 55.1 79.77 47.52 75.51 46.25 72.89 55.1 77.51 55.1"/><polygon class="cls-6" points="79.77 47.52 75.51 46.25 75.87 45.04 77.45 44.19 79.27 44.73 80.13 46.3 79.77 47.52"/><path class="cls-5" d="M64.05,55.1H78a0,0,0,0,1,0,0V67a2,2,0,0,1-2,2H66.05a2,2,0,0,1-2-2V55.1A0,0,0,0,1,64.05,55.1Z"/><path class="cls-2" d="M64.05,55.1H78a0,0,0,0,1,0,0V67a2,2,0,0,1-2,2H66.05a2,2,0,0,1-2-2V55.1A0,0,0,0,1,64.05,55.1Z"/><rect class="cls-2" x="67.86" y="55.1" width="6.34" height="13.95"/></g></g></svg>