<svg xmlns="http://www.w3.org/2000/svg" xmlns:xlink="http://www.w3.org/1999/xlink" viewBox="0 0 84 86.86"><defs><style>.cls-1,.cls-4,.cls-9{fill:none;}.cls-2{fill:#fff2f4;}.cls-10,.cls-11,.cls-3,.cls-6{fill:#fff;}.cls-10,.cls-3,.cls-4,.cls-6,.cls-8,.cls-9{stroke:#078c04;}.cls-10,.cls-3{stroke-miterlimit:10;}.cls-10,.cls-4,.cls-6{stroke-linecap:round;}.cls-4,.cls-6,.cls-8,.cls-9{stroke-linejoin:round;}.cls-5,.cls-8{fill:#ffd4d9;}.cls-7{clip-path:url(#clip-path);}</style><clipPath id="clip-path"><circle class="cls-1" cx="40" cy="41.5" r="40"/></clipPath></defs><title>grind-3</title><g id="Layer_2" data-name="Layer 2"><g id="Layer_1-2" data-name="Layer 1"><circle class="cls-2" cx="40" cy="41.5" r="40"/><path class="cls-3" d="M32.43,59.37c.82-.74-.35-3.33-1.1-4.14L24.4,51.91c-.74-.82-.88.35-1.7,1.1s-3.17,4-2.43,4.78l5.24,5.62C26.25,64.23,31.61,60.11,32.43,59.37Z"/><path class="cls-3" d="M28.8,68.65a2,2,0,0,0,2-2l.1-6.5a2,2,0,0,0-4-.06l-.09,6.5A2,2,0,0,0,28.8,68.65Z"/><path class="cls-3" d="M32.17,66.93a2,2,0,0,0,1.59-2.34l-1.24-6.38A2,2,0,1,0,28.6,59l1.23,6.38A2,2,0,0,0,32.17,66.93Z"/><path class="cls-3" d="M37.06,64.26a2,2,0,0,0,.14-2.83L32,55.81a2,2,0,0,0-3,2.68l5.24,5.63A2,2,0,0,0,37.06,64.26Z"/><line class="cls-4" x1="26.45" y1="56.84" x2="24.95" y2="56.09"/><path class="cls-4" d="M22.47,60.08c.85.46,2.52-.65,3.29-1.92l3.11-4.74a2,2,0,0,1,3.37,2.16c-4.2,9.76-3.87,11.84-7,14.8"/><rect class="cls-5" x="22.25" y="40.55" width="25.93" height="15.94" rx="1" ry="1" transform="translate(-24.73 47.69) rotate(-53.24)"/><rect class="cls-4" x="22.25" y="40.55" width="25.93" height="15.94" rx="1" ry="1" transform="translate(-24.73 47.69) rotate(-53.24)"/><circle class="cls-6" cx="28.41" cy="53.03" r="2.27"/><line class="cls-6" x1="34.44" y1="48.75" x2="39.99" y2="41.32"/><line class="cls-6" x1="36.61" y1="50.37" x2="40.96" y2="44.55"/><line class="cls-6" x1="38.04" y1="51.44" x2="42.39" y2="45.62"/><g class="cls-7"><rect class="cls-8" x="72.46" y="0.29" width="7" height="15.5" rx="1" ry="1" transform="translate(135.36 -39.98) rotate(135)"/><rect class="cls-9" x="72.46" y="0.29" width="7" height="15.5" rx="1" ry="1" transform="translate(135.36 -39.98) rotate(135)"/><path class="cls-6" d="M71.92,4.83h2a0,0,0,0,1,0,0v13.5a0,0,0,0,1,0,0h-2a1,1,0,0,1-1-1V5.83a1,1,0,0,1,1-1Z" transform="translate(13.03 54.6) rotate(-45)"/><path class="cls-6" d="M49.8,13.52a2,2,0,0,0,2,2h4.57a.49.49,0,0,1,.42.24c.09.15,0,.32,0,.49a5.21,5.21,0,0,1-1.89,3.28L53.51,21l.71.7,10.6,10.61,1.77-1.77a24.79,24.79,0,0,0,5.77-9.06l.49-1.34a6,6,0,0,1,1.41-2.22l1.17-1.17L67.3,8.57l-1.51,1.51a4.06,4.06,0,0,1-2.33,1.14l-11.66.3A2,2,0,0,0,49.8,13.52Z"/><path class="cls-4" d="M49.8,13.52a2,2,0,0,0,2,2h4.57a.49.49,0,0,1,.42.24c.09.15,0,.32,0,.49a5.21,5.21,0,0,1-1.89,3.28L53.51,21l.71.7,10.6,10.61,1.77-1.77a24.79,24.79,0,0,0,5.77-9.06l.49-1.34a6,6,0,0,1,1.41-2.22l1.17-1.17L67.3,8.57l-1.51,1.51a4.06,4.06,0,0,1-2.33,1.14l-11.66.3A2,2,0,0,0,49.8,13.52Z"/><path class="cls-10" d="M66.24,30.84l-6.37,6.37A2,2,0,0,1,57,34.38L63.41,28"/><path class="cls-10" d="M57.67,22.44l-8.05,8a2,2,0,0,1-2.83-2.83l8.13-8.13"/><path class="cls-10" d="M63.57,27.85l-9.35,9.36a2,2,0,0,1-2.83-2.83l8.84-8.84"/><path class="cls-10" d="M60.23,25.54l-9.9,9.9a2,2,0,0,1-2.83-2.83L57.65,22.46"/><path class="cls-4" d="M64.55,28.28a12.74,12.74,0,0,1-4.68-3.09A13.46,13.46,0,0,1,57,21"/><path class="cls-11" d="M21.32,79.19,11.09,76.4v0c.53-13,2-26.92,20-32.53l1-.32a2,2,0,1,1,1.2,3.82l-1,.32c-4.54,1.43-7.86,3.41-9.54,7.83-2.61,6.67,1.61,4.92,3,2.66l3.11-4.74a2,2,0,0,1,3.37,2.16c-4.2,9.76-3.87,11.84-7,14.8C23,72.58,22.58,74.53,21.32,79.19Z"/><path class="cls-4" d="M21.32,79.19,11.09,76.4v0c.53-13,2-26.92,20-32.53l1-.32a2,2,0,1,1,1.2,3.82l-1,.32c-4.54,1.43-7.86,3.41-9.54,7.83-2.61,6.67,1.61,4.92,3,2.66l3.11-4.74a2,2,0,0,1,3.37,2.16c-4.2,9.76-3.87,11.84-7,14.8C23,72.58,22.58,74.53,21.32,79.19Z"/><rect class="cls-8" x="11.62" y="73.42" width="7" height="15.5" rx="1" ry="1" transform="translate(-67.17 74.45) rotate(-74.78)"/><rect class="cls-9" x="11.62" y="73.42" width="7" height="15.5" rx="1" ry="1" transform="translate(-67.17 74.45) rotate(-74.78)"/><path class="cls-6" d="M15.93,69.6h2a0,0,0,0,1,0,0V83.1a0,0,0,0,1,0,0h-2a1,1,0,0,1-1-1V70.6a1,1,0,0,1,1-1Z" transform="translate(94.41 80.53) rotate(105.22)"/></g></g></g></svg>