<?xml version="1.0" encoding="utf-8"?>
<!-- Generator: Adobe Illustrator 22.1.0, SVG Export Plug-In . SVG Version: 6.00 Build 0)  -->
<svg version="1.1" id="Duotone" xmlns="http://www.w3.org/2000/svg" xmlns:xlink="http://www.w3.org/1999/xlink" x="0px" y="0px"
	 viewBox="0 0 100 112" style="enable-background:new 0 0 100 112;" xml:space="preserve">
<style type="text/css">
	.st0{fill:#FFF2F4;}
	.st1{fill:none;stroke:#078C04;stroke-linecap:round;stroke-linejoin:round;}
	.st2{clip-path:url(#SVGID_2_);}
	.st3{fill:#FFFFFF;stroke:#078C04;stroke-linecap:round;stroke-linejoin:round;}
	.st4{fill:#FFD4D9;stroke:#078C04;stroke-linecap:round;stroke-linejoin:round;}
	.st5{fill:none;stroke:#4550E5;stroke-linecap:round;stroke-linejoin:round;}
	.st6{fill:#FFFFFF;}
	.st7{fill:#FFFFFF;stroke:#4550E5;stroke-linecap:round;stroke-linejoin:round;}
	.st8{fill:#D6DAFF;}
</style>
<title>03- team-leader-teamwork-asian</title>
<g id="Icons">
	<g id="New_Symbol_14-25">
		<path class="st0" d="M90.5,56c0-22.1-17.9-40-40-40c-22.1,0-40,17.9-40,40c0,5.7,1.2,11.3,3.6,16.5h72.9
			C89.3,67.3,90.5,61.7,90.5,56z"/>
		<line class="st1" x1="11.5" y1="72.5" x2="89.5" y2="72.5"/>
		<line class="st1" x1="7" y1="72.5" x2="9.5" y2="72.5"/>
		<line class="st1" x1="91.5" y1="72.5" x2="94" y2="72.5"/>
	</g>
	<ellipse class="st0" cx="50.2" cy="85.5" rx="15.5" ry="1.5"/>
	<g>
		<defs>
			<circle id="SVGID_1_" cx="50.5" cy="56" r="40"/>
		</defs>
		<clipPath id="SVGID_2_">
			<use xlink:href="#SVGID_1_"  style="overflow:visible;"/>
		</clipPath>
		<g class="st2">
			<path class="st3" d="M39,62c0-8.6-6.9-15.5-15.5-15.5S8,53.4,8,62v2.5h6v8h19v-8h6V62z"/>
			<path class="st4" d="M39,62c0-8.6-6.9-15.5-15.5-15.5S8,53.4,8,62v2.5h6v8h19v-8h6V62z"/>
			<line class="st3" x1="14" y1="60.5" x2="14" y2="64.5"/>
			<line class="st5" x1="33" y1="60.5" x2="33" y2="64.5"/>
			<path class="st6" d="M20,47c0,1.9,1.6,3.5,3.5,3.5S27,48.9,27,47v-3.5h-7V47z"/>
			<path class="st5" d="M20,47v-3.5h7V47c0,1.9-1.6,3.5-3.5,3.5S20,48.9,20,47z"/>
			<rect x="9" y="64.5" class="st3" width="5" height="8"/>
			<rect x="33" y="64.5" class="st7" width="5" height="8"/>
			<path class="st4" d="M61.5,72.5V62c0-8.6,6.9-15.5,15.5-15.5S92.5,53.4,92.5,62v10.5H61.5z"/>
			<path class="st6" d="M73.5,47c0,1.9,1.6,3.5,3.5,3.5s3.5-1.6,3.5-3.5v-3.5h-7V47z"/>
			<path class="st3" d="M73.5,47v-3.5h7V47c0,1.9-1.6,3.5-3.5,3.5S73.5,48.9,73.5,47z"/>
			<path class="st3" d="M61.5,72.5V62c0-5.9,3.4-11.3,8.7-13.9c0.9,3.8,4.7,6.1,8.4,5.2c2.6-0.6,4.6-2.6,5.2-5.2
				c5.3,2.6,8.7,8,8.7,13.9v10.5H61.5z"/>
			<line class="st5" x1="67.5" y1="60.5" x2="67.5" y2="72.5"/>
			<line class="st3" x1="86.5" y1="60.5" x2="86.5" y2="72.5"/>
			<path class="st1" d="M61.5,72.5V62c0-5.9,3.4-11.3,8.7-13.9c0.9,3.8,4.7,6.1,8.4,5.2c2.6-0.6,4.6-2.6,5.2-5.2
				c5.3,2.6,8.7,8,8.7,13.9v10.5H61.5z"/>
			<path class="st4" d="M77,50.5c0,0-3.5-4.5-5-4.5s-2.6,2.5-2.6,2.5l3.5,3.8c0.3,0.4,0.9,0.4,1.3,0.1L77,50.5z"/>
			<path class="st4" d="M77,50.5c0,0,3.5-4.5,5-4.5s2.6,2.5,2.6,2.5l-3.5,3.8c-0.3,0.4-0.9,0.4-1.3,0.1L77,50.5z"/>
			<line class="st4" x1="77" y1="50.5" x2="77" y2="53.5"/>
		</g>
	</g>
	<path class="st3" d="M56.5,50.5c3.3,0,6-2.7,6-6v-12c0-6.6-5.3-12-12-12c-0.3,0-0.6,0-0.8,0c-6.4,0.6-11.3,6-11.2,12.4v11.6
		c0,3.3,2.7,6,6,6H56.5z"/>
	<path class="st3" d="M56.5,50.5c3.3,0,6-2.7,6-6v-12c0-6.6-5.3-12-12-12c-0.3,0-0.6,0-0.8,0c-6.4,0.6-11.3,6-11.2,12.4v11.6
		c0,3.3,2.7,6,6,6H56.5z"/>
	<path class="st8" d="M66,72.5V65c0-8.6-6.9-15.5-15.5-15.5S35,56.4,35,65v7.5H66z"/>
	<path class="st5" d="M66,72.5V65c0-8.6-6.9-15.5-15.5-15.5S35,56.4,35,65v7.5H66z"/>
	<path class="st4" d="M57,50.4c-0.7-1.2-2.1-1.9-3.5-1.9h-6c-1.4-0.1-2.8,0.7-3.5,1.9c-0.6,1-0.7,2.2-0.3,3.3l1.4,3.7
		c0.2,0.5,0.8,0.8,1.3,0.6c0.1,0,0.1,0,0.2-0.1l4-2.4l4,2.4c0.5,0.3,1.1,0.1,1.4-0.4c0-0.1,0.1-0.1,0.1-0.2l1.4-3.7
		C57.7,52.6,57.6,51.4,57,50.4z"/>
	<line class="st5" x1="50.5" y1="55.5" x2="50.5" y2="72.5"/>
	<polygon class="st6" points="54,52 50.5,55.5 47,52 47,46.5 54,46.5 	"/>
	<polygon class="st3" points="54,52 50.5,55.5 47,52 47,46.5 54,46.5 	"/>
	<line class="st5" x1="41" y1="63.5" x2="41" y2="72.5"/>
	<line class="st5" x1="60" y1="63.5" x2="60" y2="72.5"/>
	<path class="st3" d="M60.5,36v-2.5c0-0.2,0-0.5,0-0.7c-4.6,2.4-10.3,1.1-13.5-2.9c-0.4,2.7-2.7,4.6-5.5,4.6c-0.3,0-0.7,0-1-0.1V36
		c-1.1,0-2,0.9-2,2s0.9,2,2,2h0.1c0.9,5.5,6,9.2,11.4,8.3c4.3-0.7,7.7-4,8.3-8.3h0.1c1.1,0,2-0.9,2-2S61.6,36,60.5,36z"/>
	<path class="st3" d="M47.5,42.8c1.7,1.6,4.3,1.6,6,0"/>
	<path class="st3" d="M56,37c-0.4-0.8-1.3-1.2-2.1-0.9c-0.4,0.2-0.7,0.5-0.9,0.9"/>
	<path class="st3" d="M48,37c-0.4-0.8-1.3-1.2-2.1-0.9c-0.4,0.2-0.7,0.5-0.9,0.9"/>
	<circle class="st0" cx="44.8" cy="40.2" r="1.2"/>
	<circle class="st0" cx="56.2" cy="40.2" r="1.2"/>
	<path class="st3" d="M32,51.5h37c1.1,0,2,0.9,2,2v25c0,1.1-0.9,2-2,2H32c-1.1,0-2-0.9-2-2v-25C30,52.4,30.9,51.5,32,51.5z"/>
	<path class="st3" d="M57.5,83.5c0.1,0,0.3,0.1,0.4,0.2C58,83.8,58,83.9,58,84c0,0.3-0.1,0.6-0.3,0.8c-0.3,0.4-0.8,0.6-1.3,0.6H44.6
		c-0.5,0-1-0.2-1.3-0.6C43.2,84.6,43,84.4,43,84c0-0.1,0-0.3,0.1-0.4c0.1-0.1,0.2-0.2,0.4-0.2H57.5z"/>
	<path class="st3" d="M32,51.5h37c1.1,0,2,0.9,2,2v25c0,1.1-0.9,2-2,2H32c-1.1,0-2-0.9-2-2v-25C30,52.4,30.9,51.5,32,51.5z"/>
	<path class="st3" d="M56.5,85.5h-12c1.2-3.3,1.8-11.7,2-14.6c0-0.5,0.5-0.9,1-0.9h6.1c0.5,0,1,0.4,1,0.9
		C54.7,73.8,55.3,82.2,56.5,85.5z"/>
	<line class="st1" x1="33.5" y1="76" x2="33.5" y2="77.5"/>
	<line class="st1" x1="35.5" y1="76" x2="35.5" y2="77.5"/>
	<line class="st1" x1="37.5" y1="76" x2="37.5" y2="77.5"/>
	<line class="st1" x1="39.5" y1="76" x2="39.5" y2="77.5"/>
	<path class="st4" d="M51.6,62.6c0-0.4,0.2-0.7,0.5-0.9c-0.2-0.3-0.5-0.5-0.9-0.5c-0.4,0-0.7,0.2-0.9,0.2s-0.5-0.2-0.8-0.2
		c-0.4,0-0.8,0.2-1,0.6c-0.3,0.8-0.2,1.8,0.3,2.5c0.2,0.3,0.5,0.6,0.8,0.6s0.4-0.2,0.8-0.2s0.5,0.2,0.8,0.2s0.5-0.3,0.8-0.6
		c0.1-0.2,0.3-0.5,0.3-0.7C51.9,63.5,51.6,63.1,51.6,62.6z"/>
	<line class="st4" x1="50.8" y1="59.9" x2="51.2" y2="59.5"/>
	<line class="st1" x1="33" y1="53.5" x2="67.5" y2="53.5"/>
	<path class="st3" d="M33.5,33v-2.5c0-5.5-4.5-10-10-10s-10,4.5-10,10V33c-1.1,0-2,0.9-2,2s0.9,2,2,2h0.1c0.9,5.5,6,9.2,11.4,8.3
		c4.3-0.7,7.7-4,8.3-8.3h0.1c1.1,0,2-0.9,2-2S34.6,33,33.5,33z"/>
	<path class="st3" d="M29,34c-0.4-0.8-1.3-1.2-2.1-0.9c-0.4,0.2-0.7,0.5-0.9,0.9"/>
	<path class="st3" d="M21,34c-0.4-0.8-1.3-1.2-2.1-0.9c-0.4,0.2-0.7,0.5-0.9,0.9"/>
	<circle class="st0" cx="17.8" cy="37.2" r="1.2"/>
	<circle class="st0" cx="29.2" cy="37.2" r="1.2"/>
	<path class="st6" d="M34.5,29.5c0-6.6-4.9-12-11-12s-11,5.4-11,12c-0.1,1.2,0.1,2.4,0.4,3.6c0.2-0.1,0.4-0.1,0.6-0.1l0,0
		c0.6,0.1,1.1,0.4,1.4,1c0.1,0.2,0.2,0.5,0.2,0.7c0.4-1.3,0.4-2.7,0.2-4.1c1.1,0.4,2.8-1.1,2.8-1.1v-2.4c1.7,0.6,3.6,1,5.4,1.2
		c1.8-0.2,3.7-0.6,5.4-1.2v2.4c0,0,1.7,1.5,2.8,1.1c-0.2,1.4-0.2,2.7,0.2,4.1c0-0.2,0.1-0.5,0.2-0.7c0.3-0.6,0.8-0.9,1.4-1l0,0
		c0.2,0,0.4,0,0.6,0.1C34.4,31.9,34.5,30.7,34.5,29.5z"/>
	<path class="st6" d="M23.5,17.5c1,0,2,0.1,2.9,0.4c1.1-1.5,2.1-3.2,2.1-4.4c0-2.7-2.3-4.5-5-4.5s-5,1.8-5,4.5c0,1.2,1,2.9,2.1,4.4
		C21.5,17.6,22.5,17.5,23.5,17.5z"/>
	<path class="st3" d="M23.5,17.5c1,0,2,0.1,2.9,0.4c1.1-1.5,2.1-3.2,2.1-4.4c0-2.7-2.3-4.5-5-4.5s-5,1.8-5,4.5c0,1.2,1,2.9,2.1,4.4
		C21.5,17.6,22.5,17.5,23.5,17.5z"/>
	<path class="st4" d="M27.5,16.3c-2.6-1.1-5.4-1.1-8,0c0.3,0.5,0.7,1.1,1,1.6c1.9-0.6,3.9-0.6,5.9,0C26.8,17.4,27.2,16.9,27.5,16.3z
		"/>
	<path class="st4" d="M36,39.2c-0.2-1.3-1.3-2.2-2.6-2.2h-0.4c-0.9,0-1.7,0.6-1.9,1.4c-0.4,1.2-0.9,2-1.5,2.1c-2,0.3-3.5-2-6-2
		s-4,2.3-6,2c-0.6-0.1-1.1-0.9-1.5-2.1c-0.3-0.8-1-1.4-1.9-1.4h-0.4c-1.3,0-2.4,0.9-2.6,2.2c-0.1,0.9,0.3,1.8,1.1,2.4
		c-0.8,0.8-0.8,2-0.1,2.8c0.3,0.3,0.7,0.5,1.2,0.6c-0.1,0.3-0.2,0.7-0.2,1c0,1.7,1.3,3,3,3c0.3,0,0.7-0.1,1-0.2
		c0.2,1.3,1.2,2.2,2.5,2.2c0.3,0,0.7-0.1,1-0.2c1,1.7,3.1,2.2,4.7,1.3c0.5-0.3,1-0.7,1.3-1.3c0.3,0.1,0.7,0.2,1,0.2
		c1.3,0,2.3-0.9,2.5-2.2c0.3,0.1,0.7,0.2,1,0.2c1.7,0,3-1.3,3-3c0-0.3-0.1-0.7-0.2-1c1.1-0.2,1.8-1.2,1.7-2.3
		c-0.1-0.4-0.3-0.8-0.6-1.1C35.7,41.1,36.1,40.1,36,39.2z"/>
	<path class="st3" d="M23.5,44c-1.5,0-2.5,1-3,0c-0.8-1.6,1-3.5,3-3.5s3.8,1.9,3,3.5C26,45,25,44,23.5,44z"/>
	<path class="st3" d="M87,33v-2.5c0-5.5-4.5-10-10-10s-10,4.5-10,10V33c-1.1,0-2,0.9-2,2s0.9,2,2,2h0.1c0.9,5.5,6,9.2,11.4,8.3
		c4.3-0.7,7.7-4,8.3-8.3H87c1.1,0,2-0.9,2-2S88.1,33,87,33z"/>
	<path class="st3" d="M74,39.8c1.7,1.6,4.3,1.6,6,0"/>
	<path class="st3" d="M82.5,34c-0.4-0.8-1.3-1.2-2.1-0.9c-0.4,0.2-0.7,0.5-0.9,0.9"/>
	<path class="st3" d="M74.5,34c-0.4-0.8-1.3-1.2-2.1-0.9c-0.4,0.2-0.7,0.5-0.9,0.9"/>
	<circle class="st0" cx="71.2" cy="37.2" r="1.2"/>
	<circle class="st0" cx="82.8" cy="37.2" r="1.2"/>
	<path class="st3" d="M78,20.5c-0.3,0-0.7,0-1,0s-0.7,0-1,0c-5.1,0.5-9,4.8-9,10V33c0.9,0.1,1.6,0.8,1.6,1.7
		c0.4-1.3,0.5-2.7,0.2-4.1c1.1,0.4,2.8-1.1,2.8-1.1v-2.4c1.7,0.6,3.6,1,5.4,1.2c1.8-0.2,3.7-0.6,5.4-1.2v2.4c0,0,1.7,1.5,2.8,1.1
		c-0.2,1.4-0.2,2.7,0.2,4.1c0-0.9,0.7-1.6,1.6-1.7v-2.5C87,25.4,83.1,21.1,78,20.5z"/>
	<path class="st6" d="M87,18.5c0-0.6-0.4-1-1-1c0-0.6-0.4-1-1-1c0-0.6-0.4-1-1-1s-1,0.4-1,1c0,0-0.1,0-0.1,0
		c-0.3-0.5-0.9-0.6-1.4-0.4c-0.2,0.1-0.3,0.2-0.4,0.4c-0.1,0-0.2,0-0.3,0c-0.3-0.5-0.9-0.6-1.4-0.4c-0.2,0.1-0.3,0.2-0.4,0.4
		c0,0-0.1,0-0.1,0c-0.6,0-1,0.4-1,1c0-0.6-0.4-1-1-1s-1,0.4-1,1c0-0.6-0.4-1-1-1c0,0-0.1,0-0.1,0c-0.3-0.5-0.9-0.6-1.4-0.4
		c-0.2,0.1-0.3,0.2-0.4,0.4c-0.1,0-0.2,0-0.3,0c-0.3-0.5-0.9-0.6-1.4-0.4c-0.2,0.1-0.3,0.2-0.4,0.4c0,0-0.1,0-0.1,0c0-0.6-0.4-1-1-1
		s-1,0.4-1,1c-0.6,0-1,0.4-1,1c-0.6,0-1,0.4-1,1c0,0.4,0.2,0.7,0.5,0.9c0,0,0,0.1,0,0.1c0,0.2,0.1,0.3,0.2,0.5
		c-0.1,0.2-0.1,0.3-0.2,0.5c0,0.4,0.3,0.8,0.7,0.9l0.2,4.2l3.3,1.5c1.7,0.6,3.5,1,5.4,1.2c1.8-0.2,3.7-0.6,5.4-1.2l3.3-1.5l0.2-4.2
		c0.4-0.1,0.6-0.5,0.7-0.9c0-0.2-0.1-0.4-0.2-0.5c0.1-0.1,0.1-0.3,0.2-0.5c0,0,0-0.1,0-0.1C86.8,19.2,87,18.9,87,18.5z"/>
	<path class="st3" d="M87,18.5c0-0.6-0.4-1-1-1c0-0.6-0.4-1-1-1c0-0.6-0.4-1-1-1s-1,0.4-1,1c0,0-0.1,0-0.1,0
		c-0.3-0.5-0.9-0.6-1.4-0.4c-0.2,0.1-0.3,0.2-0.4,0.4c-0.1,0-0.2,0-0.3,0c-0.3-0.5-0.9-0.6-1.4-0.4c-0.2,0.1-0.3,0.2-0.4,0.4
		c0,0-0.1,0-0.1,0c-0.6,0-1,0.4-1,1c0-0.6-0.4-1-1-1s-1,0.4-1,1c0-0.6-0.4-1-1-1c0,0-0.1,0-0.1,0c-0.3-0.5-0.9-0.6-1.4-0.4
		c-0.2,0.1-0.3,0.2-0.4,0.4c-0.1,0-0.2,0-0.3,0c-0.3-0.5-0.9-0.6-1.4-0.4c-0.2,0.1-0.3,0.2-0.4,0.4c0,0-0.1,0-0.1,0c0-0.6-0.4-1-1-1
		s-1,0.4-1,1c-0.6,0-1,0.4-1,1c-0.6,0-1,0.4-1,1c0,0.4,0.2,0.7,0.5,0.9c0,0,0,0.1,0,0.1c0,0.2,0.1,0.3,0.2,0.5
		c-0.1,0.2-0.1,0.3-0.2,0.5c0,0.4,0.3,0.8,0.7,0.9l0.2,4.2l3.3,1.5c1.7,0.6,3.5,1,5.4,1.2c1.8-0.2,3.7-0.6,5.4-1.2l3.3-1.5l0.2-4.2
		c0.4-0.1,0.6-0.5,0.7-0.9c0-0.2-0.1-0.4-0.2-0.5c0.1-0.1,0.1-0.3,0.2-0.5c0,0,0-0.1,0-0.1C86.8,19.2,87,18.9,87,18.5z"/>
	<path class="st3" d="M34.5,29.5c0-6.6-4.9-12-11-12s-11,5.4-11,12c-0.1,1.2,0.1,2.4,0.4,3.6c0.2-0.1,0.4-0.1,0.6-0.1l0,0
		c0.6,0.1,1.1,0.4,1.4,1c0.1,0.2,0.2,0.5,0.2,0.7c0.4-1.3,0.4-2.7,0.2-4.1c1.1,0.4,2.8-1.1,2.8-1.1v-2.4c1.7,0.6,3.6,1,5.4,1.2
		c1.8-0.2,3.7-0.6,5.4-1.2v2.4c0,0,1.7,1.5,2.8,1.1c-0.2,1.4-0.2,2.7,0.2,4.1c0-0.2,0.1-0.5,0.2-0.7c0.3-0.6,0.8-0.9,1.4-1l0,0
		c0.2,0,0.4,0,0.6,0.1C34.4,31.9,34.5,30.7,34.5,29.5z"/>
</g>
</svg>
