<?xml version="1.0" encoding="utf-8"?>
<!-- Generator: Adobe Illustrator 22.1.0, SVG Export Plug-In . SVG Version: 6.00 Build 0)  -->
<svg version="1.1" id="Duotone" xmlns="http://www.w3.org/2000/svg" xmlns:xlink="http://www.w3.org/1999/xlink" x="0px" y="0px"
	 viewBox="0 0 100 112" style="enable-background:new 0 0 100 112;" xml:space="preserve">
<style type="text/css">
	.st0{fill:#FFF2F4;}
	.st1{fill:none;stroke:#078C04;stroke-linecap:round;stroke-linejoin:round;}
	.st2{fill:#FFFFFF;stroke:#078C04;stroke-linecap:round;stroke-linejoin:round;}
	.st3{fill:#FFD4D9;stroke:#078C04;stroke-linecap:round;stroke-linejoin:round;}
	.st4{clip-path:url(#SVGID_2_);fill:#FFFFFF;stroke:#078C04;stroke-linecap:round;stroke-linejoin:round;}
	.st5{clip-path:url(#SVGID_2_);fill:none;stroke:#078C04;stroke-linecap:round;stroke-linejoin:round;}
	.st6{clip-path:url(#SVGID_2_);fill:#FFFFFF;}
	.st7{clip-path:url(#SVGID_2_);fill:#FFD4D9;stroke:#078C04;stroke-linecap:round;stroke-linejoin:round;}
	.st8{fill:#FFFFFF;}
</style>
<title>19- team-idea-brainstorm-3</title>
<path class="st0" d="M90,56c0-22.1-17.9-40-40-40c-22.1,0-40,17.9-40,40c0,5.7,1.2,11.3,3.6,16.5h72.9C88.8,67.3,90,61.7,90,56z"/>
<line class="st1" x1="11" y1="72.5" x2="89" y2="72.5"/>
<line class="st1" x1="6.5" y1="72.5" x2="9" y2="72.5"/>
<line class="st1" x1="91" y1="72.5" x2="93.5" y2="72.5"/>
<path class="st2" d="M59,20c0-3.9-3.1-7-7-7s-7,3.1-7,7c0,1.6,0.6,3.2,1.6,4.5c0.9,1.1,1.4,2.4,1.4,3.8V31c0,1.1,0.9,2,2,2h4
	c1.1,0,2-0.9,2-2v-2.7c0-1.4,0.5-2.8,1.4-3.8C58.4,23.2,59,21.6,59,20z"/>
<ellipse class="st0" cx="46.8" cy="81.2" rx="16.8" ry="1.8"/>
<path class="st3" d="M48,30v1c0,1.1,0.9,2,2,2h4c1.1,0,2-0.9,2-2v-1H48z"/>
<path class="st3" d="M54,33.5c0,1.1-0.9,2-2,2s-2-0.9-2-2V33h4V33.5z"/>
<line class="st3" x1="52" y1="10.5" x2="52" y2="8.5"/>
<line class="st3" x1="58.7" y1="13.3" x2="60.1" y2="11.9"/>
<line class="st3" x1="61.5" y1="20" x2="63.5" y2="20"/>
<line class="st3" x1="45.3" y1="13.3" x2="43.9" y2="11.9"/>
<line class="st3" x1="42.5" y1="20" x2="40.5" y2="20"/>
<g>
	<defs>
		<circle id="SVGID_1_" cx="50" cy="56" r="40"/>
	</defs>
	<clipPath id="SVGID_2_">
		<use xlink:href="#SVGID_1_"  style="overflow:visible;"/>
	</clipPath>
	<path class="st4" d="M42,65c0-8.6-6.9-15.5-15.5-15.5S11,56.4,11,65v7.5h31V65z"/>
	<line class="st5" x1="36" y1="61" x2="36" y2="72.5"/>
	<path class="st4" d="M30,77.5c0,1.4-1.1,2.5-2.5,2.5H22v-5h5.5C28.9,75,30,76.1,30,77.5z"/>
	<path class="st6" d="M17,71.6c0,1.6,1.3,2.9,2.9,2.9H24c0.6,0,1,0.4,1,1v4c0,0.6-0.4,1-1,1h-4.1c-4.9,0-8.9-4-8.9-8.9H17z"/>
	<path class="st5" d="M17,61v10.6c0,1.6,1.3,2.9,2.9,2.9H24c0.6,0,1,0.4,1,1v4c0,0.6-0.4,1-1,1h-4.1c-4.9,0-8.9-4-8.9-8.9"/>
	<line class="st5" x1="34" y1="64.5" x2="30.8" y2="64.5"/>
	<path class="st7" d="M24,55.5h5l-0.8,3.2c-0.1,0.5-0.5,0.8-1,0.8h-1.4c-0.5,0-0.9-0.3-1-0.8L24,55.5z"/>
	<polygon class="st7" points="25.5,59.5 24,72.5 29,72.5 27.5,59.5 	"/>
	<path class="st4" d="M26.5,50.7v6l-4,2l-0.8,0.4c-0.5,0.2-1.1,0-1.3-0.5c0-0.1-0.1-0.2-0.1-0.3l-0.6-4c-0.3-1.8,0.5-3.7,2.1-4.6
		c0.2-0.1,0.3-0.2,0.5-0.2c0.6-0.1,1.2,1,1.8,0.9L26.5,50.7z"/>
	<path class="st4" d="M33.3,54.4l-0.6,4c-0.1,0.5-0.6,0.9-1.1,0.8c-0.1,0-0.2,0-0.3-0.1l-0.8-0.4l-4-2v-6l2.4-0.3
		c0.6,0.1,1.2-1,1.8-0.9c0.2,0.1,0.4,0.2,0.6,0.3C32.8,50.7,33.7,52.6,33.3,54.4z"/>
	<polygon class="st4" points="30,52 26.5,55.5 23,52 23,46.5 30,46.5 	"/>
	<polygon class="st5" points="30,52 26.5,55.5 23,52 23,46.5 30,46.5 	"/>
	<polygon class="st5" points="30,52 26.5,55.5 23,52 23,46.5 30,46.5 	"/>
	<path class="st7" d="M77.5,49c-7,0-13,4.7-14.6,11.5c-0.1,0.4,0.1,0.8,0.4,1c1.5,1.1,3,2,4.6,2.8c0.4,0.2,0.6,0.5,0.6,0.9v7.3h18
		v-7.3c0-0.4,0.2-0.8,0.6-0.9c1.6-0.8,3.2-1.7,4.6-2.8c0.3-0.2,0.5-0.6,0.4-1C90.5,53.7,84.5,49,77.5,49z"/>
	<polygon class="st4" points="74,52 77.5,52 81,52 81,46.5 74,46.5 	"/>
	<polygon class="st5" points="74,52 77.5,52 81,52 81,46.5 74,46.5 	"/>
	<line class="st5" x1="83" y1="50.5" x2="83" y2="53.5"/>
	<line class="st5" x1="72" y1="53.5" x2="72" y2="50.5"/>
	<path class="st5" d="M77.5,53.5c0,0-4.5,0.5-3.5,2c0.4,0.5,0.9,0.4,1.5,0.1C76.3,55,76.9,54.3,77.5,53.5z"/>
	<path class="st5" d="M77.5,53.5c-0.9,2.8-1.4,5.6-1.5,8.5"/>
	<path class="st5" d="M77.5,53.5c0,0,4.5,0.5,3.5,2c-0.4,0.5-0.9,0.4-1.5,0.1C78.7,55,78.1,54.3,77.5,53.5z"/>
	<path class="st5" d="M77.5,53.5c0.9,2.8,1.4,5.6,1.5,8.5"/>
	<line class="st5" x1="68" y1="58" x2="68.5" y2="65.5"/>
	<line class="st5" x1="64.2" y1="62.1" x2="65" y2="60.5"/>
	<line class="st5" x1="87" y1="58" x2="86.5" y2="65.5"/>
	<path class="st4" d="M87.1,64.3c-0.4,0.2-0.6,0.5-0.6,0.9v7.3h5V61.7C90.1,62.7,88.6,63.5,87.1,64.3z"/>
	<path class="st4" d="M68.5,65.2c0-0.4-0.2-0.8-0.6-0.9c-1.5-0.8-3-1.7-4.4-2.7V68c0,0.6-0.4,1-1,1s-1-0.4-1-1v-6.5l0,0V60l0.9-0.5
		c0.7-0.3,1.1-1,1.1-1.8v-0.3c0-1.1-0.9-2-2-2V50c0-0.8-0.7-1.5-1.5-1.5s-1.5,0.7-1.5,1.5v4.4l-1.7,0.4c-1,0.3-1.6,1.4-1.2,2.4
		c0,0,0,0,0,0l0.2,1c0.1,0.5,0.4,0.9,0.8,1.2c0,0.6-0.1,1.2-0.1,1.3v0.8l0,0V68c0,3.3,2.7,6,6,6c2.4,0,4.6-1.4,5.5-3.6
		c0.3-0.7,0.5-1.6,0.5-2.4L68.5,65.2z"/>
	<path class="st4" d="M57,59.7l2.6-0.6c1-0.3,1.5-1.4,1.2-2.4l-0.2-1c-0.2-1-1.2-1.7-2.2-1.5l-2.6,0.6c-1,0.3-1.6,1.4-1.2,2.4
		c0,0,0,0,0,0l0.2,1C55,59.2,56,59.9,57,59.7z"/>
	<path class="st7" d="M77.5,53.5c-4.1,0-5.3-2.5-5.4-2.5c-0.3-0.5-0.1-1.1,0.3-1.4c0.5-0.3,1.1-0.1,1.4,0.3c0,0,0,0.1,0.1,0.1
		c0,0,0.8,1.5,3.6,1.5s3.6-1.4,3.6-1.5c0.3-0.5,0.9-0.7,1.3-0.4c0.5,0.2,0.7,0.8,0.5,1.3c0,0,0,0,0,0C82.8,51,81.6,53.5,77.5,53.5z"
		/>
</g>
<path class="st2" d="M36.5,36v-2.5c0-5.5-4.5-10-10-10s-10,4.5-10,10V36c-1.1,0-2,0.9-2,2s0.9,2,2,2h0.1c0.9,5.5,6,9.2,11.4,8.3
	c4.3-0.7,7.7-4,8.3-8.3h0.1c1.1,0,2-0.9,2-2S37.6,36,36.5,36z"/>
<path class="st2" d="M23.5,42.8c1.7,1.6,4.3,1.6,6,0"/>
<circle class="st0" cx="20.8" cy="40.2" r="1.2"/>
<circle class="st0" cx="32.2" cy="40.2" r="1.2"/>
<path class="st2" d="M32,37c-0.4-0.8-1.3-1.2-2.1-0.9c-0.4,0.2-0.7,0.5-0.9,0.9"/>
<path class="st2" d="M24,37c-0.4-0.8-1.3-1.2-2.1-0.9c-0.4,0.2-0.7,0.5-0.9,0.9"/>
<path class="st2" d="M60.9,78H41.4l5-15.5h18.1c0.6,0,1,0.4,1,0.9c0,0.1,0,0.2,0,0.4L60.9,78z"/>
<path class="st8" d="M27,22.5L27,22.5c-6.1,0-11,4.9-11,11V36l0,0c1.5,0,2.8-1,3.3-2.4l0.9-2.6c0.2-0.5,0.7-0.8,1.3-0.6
	c1.8,0.6,3.7,1,5.5,1.1c2.2-0.2,4.4-0.7,6.5-1.5l1.2,3.6C35.2,35,36.5,36,38,36l0,0v-2.5C38,27.4,33.1,22.5,27,22.5z"/>
<path class="st2" d="M27,22.5L27,22.5c-6.1,0-11,4.9-11,11V36l0,0c1.5,0,2.8-1,3.3-2.4l0.9-2.6c0.2-0.5,0.7-0.8,1.3-0.6
	c1.8,0.6,3.7,1,5.5,1.1c2.2-0.2,4.4-0.7,6.5-1.5l1.2,3.6C35.2,35,36.5,36,38,36l0,0v-2.5C38,27.4,33.1,22.5,27,22.5z"/>
<path class="st8" d="M39,36c0,0-4,1-7-4c0,0-0.5,2.5-2.5,2.5c0,0,1.5-3-2.5-3c-3,0-5.5-2.5-5.5-5.5s2.5-5.5,5.5-5.5c0,0,8,0,11.5,7
	C38.5,27.5,40,30.5,39,36z"/>
<path class="st2" d="M39,36c0,0-4,1-7-4c0,0-0.5,2.5-2.5,2.5c0,0,1.5-3-2.5-3c-3,0-5.5-2.5-5.5-5.5s2.5-5.5,5.5-5.5c0,0,8,0,11.5,7
	C38.5,27.5,40,30.5,39,36z"/>
<circle class="st8" cx="76.4" cy="23.2" r="5.2"/>
<circle class="st2" cx="76.4" cy="23.2" r="5.2"/>
<circle class="st8" cx="77.5" cy="33.5" r="12"/>
<circle class="st2" cx="77.5" cy="33.5" r="12"/>
<path class="st2" d="M65.5,38c0,1.1,0.9,2,2,2h0.1c0.9,5.5,6,9.2,11.4,8.3c4.3-0.7,7.7-4,8.3-8.3h0.1c1.1,0,2-0.9,2-2s-0.9-2-2-2
	v-1.6c-2.6-0.2-5-1.3-6.7-3.2c-0.9-1.2-1.7-2.5-2.3-3.9c-0.7,2.1-2,3.9-3.6,5.4c-2.1,1.6-4.8,2.2-7.4,1.6V36
	C66.4,36,65.5,36.9,65.5,38C65.5,38,65.5,38,65.5,38z"/>
<path class="st2" d="M72,37c0.4-0.8,1.3-1.2,2.1-0.9c0.4,0.2,0.7,0.5,0.9,0.9"/>
<path class="st2" d="M80,37c0.4-0.8,1.3-1.2,2.1-0.9c0.4,0.2,0.7,0.5,0.9,0.9"/>
<circle class="st0" cx="83.2" cy="40.2" r="1.2"/>
<circle class="st0" cx="71.8" cy="40.2" r="1.2"/>
<path class="st2" d="M79.9,43c-1.4,1.3-3.6,1.3-5,0"/>
<circle class="st3" cx="67" cy="40" r="1"/>
<polygon class="st3" points="67,41 68,42 67,45.5 66,42 "/>
<circle class="st3" cx="88" cy="40" r="1"/>
<polygon class="st3" points="88,41 87,42 88,45.5 89,42 "/>
<line class="st2" x1="73.6" y1="21" x2="70.6" y2="18.5"/>
<circle class="st3" cx="69.6" cy="17.5" r="1.5"/>
<path class="st8" d="M77.5,24c5.7,0,10.4,4.3,11,9.9c0.1,0.5-0.3,1-0.9,1.1c0,0-0.1,0-0.1,0H67.6c-0.6,0-1-0.4-1-1c0,0,0-0.1,0-0.1
	C67.1,28.3,71.9,24,77.5,24z"/>
<path class="st2" d="M77.5,24c5.7,0,10.4,4.3,11,9.9c0.1,0.5-0.3,1-0.9,1.1c0,0-0.1,0-0.1,0H67.6c-0.6,0-1-0.4-1-1c0,0,0-0.1,0-0.1
	C67.1,28.3,71.9,24,77.5,24z"/>
<line class="st2" x1="85" y1="35" x2="85" y2="31.5"/>
<line class="st2" x1="81.5" y1="35" x2="81.5" y2="31.5"/>
<line class="st2" x1="78" y1="35" x2="78" y2="31.5"/>
<line class="st2" x1="74.5" y1="35" x2="74.5" y2="31.5"/>
<line class="st2" x1="71" y1="35" x2="71" y2="31.5"/>
<path class="st2" d="M41.4,78h-2.2l4.8-14.8c0.1-0.4,0.5-0.7,1-0.7h1.5L41.4,78z"/>
<path class="st2" d="M60.9,78H40.4v2.5h18.5c1.1,0,2-0.9,2-2V78z"/>
<path class="st2" d="M40.4,78h-9c-0.3,0-0.5,0.2-0.5,0.5c0,1.1,0.9,2,2,2h7.5L40.4,78z"/>
<path class="st3" d="M55.2,69.7c0-0.4,0.2-0.7,0.5-0.9c-0.2-0.3-0.5-0.5-0.9-0.5c-0.4,0-0.8,0.2-0.9,0.2s-0.5-0.2-0.8-0.2
	c-0.4,0-0.8,0.2-1,0.6c-0.3,0.8-0.2,1.8,0.3,2.5c0.2,0.3,0.5,0.6,0.8,0.6s0.4-0.2,0.8-0.2s0.5,0.2,0.8,0.2s0.5-0.3,0.8-0.6
	c0.2-0.2,0.3-0.4,0.3-0.7C55.5,70.5,55.2,70.1,55.2,69.7z"/>
<line class="st3" x1="54.4" y1="67" x2="54.8" y2="66.5"/>
</svg>
