<?xml version="1.0" encoding="utf-8"?>
<!-- Generator: Adobe Illustrator 22.1.0, SVG Export Plug-In . SVG Version: 6.00 Build 0)  -->
<svg version="1.1" id="Duotone" xmlns="http://www.w3.org/2000/svg" xmlns:xlink="http://www.w3.org/1999/xlink" x="0px" y="0px"
	 viewBox="0 0 100 112" style="enable-background:new 0 0 100 112;" xml:space="preserve">
<style type="text/css">
	.st0{fill:#FFF2F4;}
	.st1{fill:none;stroke:#078C04;stroke-linecap:round;stroke-linejoin:round;}
	.st2{fill:#FFFFFF;stroke:#078C04;stroke-linecap:round;stroke-linejoin:round;}
	.st3{fill:#FFD4D9;stroke:#078C04;stroke-linecap:round;stroke-linejoin:round;}
	.st4{fill:none;stroke:#078C04;stroke-linecap:round;stroke-linejoin:round;stroke-dasharray:0.99,1.49;}
</style>
<g id="Background">
	<path class="st0" d="M89.6,60.5c0.2-1.5,0.2-3,0.2-4.5c0-22.1-17.9-40-40-40s-40,17.9-40,40c0,1.5,0.1,3,0.2,4.5H89.6z"/>
	<line class="st1" x1="4.3" y1="60.5" x2="6.8" y2="60.5"/>
	<line class="st1" x1="95.3" y1="60.5" x2="92.8" y2="60.5"/>
	<line class="st1" x1="8.8" y1="60.5" x2="89.8" y2="60.5"/>
</g>
<path class="st2" d="M86.7,77.9c-0.3-1-1-1.3-1.7-1.8c-1.1-0.8-1-1.4-1-2.6c0-1-1.5-1.2-2.2-1.2c-1.7-0.2-2.5-1-3.9-1.9
	c-0.5,0.7-1.3,1.2-2.2,0.8c-0.6-0.3-0.8-0.9-1.2-1.3c-0.3-0.4-1.4-0.9-1.5-1.5c0-0.8,1.4-0.8,1.5-1.7c0.2-1.5-2.4-0.2-3.1-0.2
	c-0.9,0-0.8-0.3-1.3-0.8c-0.4-0.4-1.3-0.2-1.6-0.9c-0.3-0.8-2.2-1.3-3.1-1c-1.4,0.6,1.2,2.4,0.9,3.4c-1.8-1.1-3,3.3-4.8,1.2
	c-0.7-0.8-1.1-1.8-1.6-2.6c-0.6-0.9-1-0.9-1.8-1.4c-1.9-1.1,1.4-2,1.6-3c0.5-2.4-3.4-1.5-4.5-1.2c0.8-0.8-1.5-1.1-1.8-1.3
	c-0.8-0.4-1.5-1-2.4-1.3c-0.2-0.1-2.9-0.3-2.9-0.3c-0.1-0.5-0.4-0.8-0.7-1.2c-0.7-1,0-1.9-1.3-2.4c-0.5-0.2-1.5-0.5-1.9-0.1
	c-0.6,0.5,0.2,1.7-0.5,2.2c-0.2,0.1-0.8,0.2-1,0.3c-0.4,0.2-0.9,0.6-1.4,0.6c-1.1,0.1-1.6-1.5-2-2.3c-0.1-0.3-0.3-1.2-0.7-1.4
	s-1.1,0.1-1.5,0.1c-0.7-0.1-1.4-0.4-1.1,0.5c0.2,0.6,0.9,1.2,1.3,1.6c-1.4,0.5-2.8,1-4.1,1.7c-1.2,0.7-2.1,1.4-3.5,1.5
	c-1.2,0.1-1.7,0.1-2.3,1.1c-0.4,0.7-0.2,0.6-1,0.7c-0.8,0.1-1.3,0.3-2,0.7c0.3,1.1-2,1.2-2.5,1.8c-0.4,0.5-0.1,0.8-0.8,0.9
	c-0.6,0.1-1.2-0.2-1.8-0.2c-2.4,0.1-4.7,2-5.1,4.4c-0.3-0.5-1.1-2.3-1.8-2.3c-1,0-0.2,1.3,0,1.7c0.7,1.5,1.3,2.9,2.8,3.7
	c1,0.6,1.7,1.4,1.2,2.6c-0.5,1.1-1.1,1.4-0.5,2.7c0.8,1.8,1.6,4,3.1,5.3c0.8,0.6,1.8,1,2.6,1.5c0.9,0.6,1.3,1.5,2,2.3
	s1.7,0.8,2.3,1.5c0.8,0.8,0.4,1.6,1.7,1.9c2.3,0.5,3.9,3.1,5.4,4.7c0.7,0.7,1.4,1.6,2.5,1.6c0.9,0.1,1.7-0.5,2.5-0.7
	c0.5-0.1,0.9-0.2,1.4,0c0.3,0.1,0.9,0.7,1.3,0.6c0.7-0.3,0.4-2.2,1.1-2.8c0.8-0.8,1.8,0.3,2-1.1c0.1-0.9-0.4-2,0.3-2.8
	c0.6-0.7,2.3-0.4,1.7,0.6c0.6,0.1,1.3-0.1,1.6-0.6c1,0,1.8,0.6,2.6,1.1s1.6,0.6,2.6,0.8c1.9,0.4,3.1,1.9,5.1,2.2
	c0.8,0.1,1.6,0.3,2.3-0.2c0.8-0.6,0.8-1.2,2-0.6c0.4,0.2,0.7,0.6,1.2,0.9c0.4,0.2,0.9,0.2,1.3,0.3c0.8,0.3,1.2,1.1,1.5,1.9
	c0.4-1.9,1.4-4.6,3.8-4.1c2,0.4,3.6,0.6,5.3-0.8c0.9-0.7,1.8-1.4,2.8-2.1c0.8-0.6,0.9-1.1,1-2.1c0.1-0.9,0.1-1.6,0.9-2.2
	c0.7-0.5,2.4-0.8,2.2-2c1-0.2,1.4-1.4,2.4-1.8C85.3,79.3,87.2,79.8,86.7,77.9C86.7,78,86.7,77.9,86.7,77.9z"/>
<title>04- map-location-1</title>
<path class="st2" d="M62.8,41.1c0,7-12.8,24.4-12.8,24.4S37.2,48.1,37.2,41.1c0-7.1,5.7-12.8,12.8-12.8S62.8,34.1,62.8,41.1z"/>
<circle class="st3" cx="50" cy="41.1" r="5.8"/>
<path class="st3" d="M30,70.5c0,1.4-2.5,4.5-2.5,4.5S25,71.9,25,70.5s1.1-2.5,2.5-2.5S30,69.1,30,70.5z"/>
<path class="st3" d="M43.7,65.5c0,1.4-2.5,4.5-2.5,4.5s-2.5-3.1-2.5-4.5s1.1-2.5,2.5-2.5S43.7,64.1,43.7,65.5z"/>
<path class="st3" d="M73.9,74.9c0,1.4-2.5,4.5-2.5,4.5s-2.5-3.1-2.5-4.5s1.1-2.5,2.5-2.5S73.9,73.5,73.9,74.9z"/>
<path class="st3" d="M80.8,70.5c0,1.4-2.5,4.5-2.5,4.5s-2.5-3.1-2.5-4.5s1.1-2.5,2.5-2.5S80.8,69.1,80.8,70.5z"/>
<path class="st4" d="M49.5,71c-0.8,2.7-3.4,4.5-6.2,4.3l-6.1-0.4c-1.7-0.1-3.1,1.1-3.2,2.8v0.1l-0.2,3c-0.1,1.7,1.1,3.1,2.8,3.2h0.1
	c0.8,0,1.5,0.4,2.1,1c0.5,0.6,0.8,1.4,0.8,2.2l0,0c-0.1,2.3,1.4,4.3,3.6,4.7c0.2,0,0.4,0.1,0.7,0.1"/>
<line class="st1" x1="47.6" y1="66.4" x2="51.9" y2="71.2"/>
<line class="st1" x1="52.2" y1="66.7" x2="47.3" y2="70.9"/>
<rect x="24.3" y="84.1" transform="matrix(0.8829 -0.4696 0.4696 0.8829 -36.4707 26.508)" class="st2" width="21.2" height="4.5"/>
<polygon class="st3" points="49,78.9 43.3,79.3 45.4,83.4 "/>
<line class="st1" x1="49" y1="78.9" x2="50.4" y2="78.2"/>
<path class="st3" d="M23.8,94.9c-0.6,0.3-1.4,0.1-1.7-0.5l0,0l-1-1.8c-0.4-0.6-0.1-1.4,0.5-1.7c0,0,0,0,0.1,0l2.9-1.5l2.1,4
	L23.8,94.9z"/>
</svg>
