<svg xmlns="http://www.w3.org/2000/svg" viewBox="0 0 88 73.5"><defs><style>.cls-1{fill:#fff2f4;}.cls-2{fill:none;}.cls-2,.cls-3,.cls-7{stroke:#078c04;stroke-linejoin:round;}.cls-2,.cls-3{stroke-linecap:round;}.cls-3,.cls-6,.cls-7{fill:#fff;}.cls-4{fill:#078c04;}.cls-5{fill:#ffd4d9;}</style></defs><title>weekend-1</title><g id="Layer_2" data-name="Layer 2"><g id="Layer_1-2" data-name="Layer 1"><path class="cls-1" d="M84,40A40,40,0,1,0,7.56,56.5H80.44A39.85,39.85,0,0,0,84,40Z"/><line class="cls-2" x1="5" y1="56.5" x2="83" y2="56.5"/><line class="cls-2" x1="0.5" y1="56.5" x2="3" y2="56.5"/><line class="cls-2" x1="85" y1="56.5" x2="87.5" y2="56.5"/><path class="cls-3" d="M59,7.44a6.92,6.92,0,0,1,6.92,6.92v1.39c2,0,1.84,3.46-.35,3.46h0a6.9,6.9,0,0,1-13.49-2.08V14.36A6.92,6.92,0,0,1,59,7.44Z"/><path class="cls-4" d="M60.2,15.34a.87.87,0,1,0,.86.86.86.86,0,0,0-.86-.86Z"/><path class="cls-4" d="M55,15.34a.87.87,0,1,0,.86.86.86.86,0,0,0-.86-.86Z"/><path class="cls-5" d="M61.06,19a.7.7,0,1,0,.7-.69A.69.69,0,0,0,61.06,19Z"/><path class="cls-2" d="M59.33,20.11a2.6,2.6,0,0,1-3.46,0"/><path class="cls-6" d="M64.14,16.47a3,3,0,0,0-3-2.77h-9c-.73,0-1.29-.41-1.14-1.12A8.7,8.7,0,0,1,68.17,14.3V24.44a1.3,1.3,0,0,1-1.6,1.12c-1.73-.41-2.22-1.63-2.43-3.3Z"/><path class="cls-2" d="M64.14,16.47a3,3,0,0,0-3-2.77h-9c-.73,0-1.29-.41-1.14-1.12A8.7,8.7,0,0,1,68.17,14.3V24.44a1.3,1.3,0,0,1-1.6,1.12c-1.73-.41-2.22-1.63-2.43-3.3Z"/><line class="cls-2" x1="59.54" y1="13.7" x2="59.54" y2="11.19"/><line class="cls-2" x1="62.42" y1="14" x2="62.42" y2="11.19"/><line class="cls-2" x1="56.67" y1="13.7" x2="56.67" y2="11.19"/><line class="cls-2" x1="53.79" y1="13.7" x2="53.79" y2="11.19"/><ellipse class="cls-1" cx="56.36" cy="70.62" rx="8.36" ry="1.72"/><path class="cls-3" d="M42.45,47.91A2.08,2.08,0,0,0,44.53,50c4.57,0,9.68-4.43,9.68-10.37v-.7a2.08,2.08,0,1,0-4.15,0v.7c0,3.8-3.28,6.22-5.53,6.22A2.08,2.08,0,0,0,42.45,47.91Z"/><polygon class="cls-6" points="58.39 66.6 62.42 66.6 62.99 58.55 58.39 58.55 58.39 66.6"/><polygon class="cls-2" points="58.39 66.6 62.42 66.6 62.99 58.55 58.39 58.55 58.39 66.6"/><polygon class="cls-6" points="58.39 66.6 54.37 66.6 53.79 58.55 58.39 58.55 58.39 66.6"/><polygon class="cls-2" points="58.39 66.6 54.37 66.6 53.79 58.55 58.39 58.55 58.39 66.6"/><path class="cls-7" d="M58.39,66.6H54.9a3.93,3.93,0,0,0-3.19,1.51,1.2,1.2,0,0,0-.14,1.26,1.17,1.17,0,0,0,1.07.68h5.75Z"/><path class="cls-7" d="M62.42,66.6H58.93a3.92,3.92,0,0,0-3.19,1.51,1.18,1.18,0,0,0-.15,1.26,1.19,1.19,0,0,0,1.08.68h4.6a1.15,1.15,0,0,0,1.15-1.15Z"/><path class="cls-5" d="M64.72,46.47,64.2,57.4A1.21,1.21,0,0,1,63,58.55h-9.2a1.21,1.21,0,0,1-1.2-1.15l-.52-10.93Z"/><path class="cls-2" d="M64.72,46.47,64.2,57.4A1.21,1.21,0,0,1,63,58.55h-9.2a1.21,1.21,0,0,1-1.2-1.15l-.52-10.93Z"/><path class="cls-5" d="M49.19,36.15a9.85,9.85,0,0,1,9.87-9.69,9.68,9.68,0,0,1,9.68,9.69v4.57h-4v5.75H52.07V40.72H50.52a1.55,1.55,0,0,1-1.33-1.41Z"/><path class="cls-2" d="M49.19,36.15a9.85,9.85,0,0,1,9.87-9.69,9.68,9.68,0,0,1,9.68,9.69v4.57h-4v5.75H52.07V40.72H50.52a1.55,1.55,0,0,1-1.33-1.41Z"/><path class="cls-3" d="M59.06,26.46a9.91,9.91,0,0,1,2.45.31l-3.12,8.78-3-8.36A9.6,9.6,0,0,1,59.06,26.46Z"/><line class="cls-2" x1="64.72" y1="43.06" x2="64.72" y2="36.12"/><line class="cls-2" x1="58.39" y1="35.55" x2="58.39" y2="46.52"/><path class="cls-3" d="M53.47,31.09a1.14,1.14,0,0,0,1.06,1.58h2.82l-2-5.49-.37.16Z"/><path class="cls-3" d="M63.31,31.09l-1.74-4.3-.06,0-2.1,5.9h2.85A1.13,1.13,0,0,0,63.31,31.09Z"/><path class="cls-2" d="M52.07,40.72a3.71,3.71,0,0,0-.58-2.3,4.26,4.26,0,0,1-.57-2.3"/><path class="cls-3" d="M58.82,37.85h5.9a0,0,0,0,1,0,0V47.2a1,1,0,0,1-1,1h-4.9a1,1,0,0,1-1-1V38.85A1,1,0,0,1,58.82,37.85Z"/><path class="cls-3" d="M64.72,40.72A1.72,1.72,0,0,1,63,42.45H58.7a2,2,0,1,0,0,4H63a5.74,5.74,0,0,0,5.75-5.75Z"/><path class="cls-3" d="M34.54,51.94a2,2,0,0,0,4,0V40.15h-4Z"/><path class="cls-5" d="M35,66.6a3.11,3.11,0,0,1,.69.07V48.77H20.74V66.6h4.6a3.17,3.17,0,0,1,.69.07l.34-10.93a1.85,1.85,0,0,1,3.69,0l.35,10.86Z"/><path class="cls-2" d="M35,66.6a3.11,3.11,0,0,1,.69.07V48.77H20.74V66.6h4.6a3.17,3.17,0,0,1,.69.07l.34-10.93a1.85,1.85,0,0,1,3.69,0l.35,10.86Z"/><path class="cls-6" d="M16.72,38.42a10.93,10.93,0,0,1,21.85,0v1.73H35.69v8.62H20.74V40.15h-4Z"/><path class="cls-2" d="M16.72,38.42a10.93,10.93,0,0,1,21.85,0v1.73H35.69v8.62H20.74V40.15h-4Z"/><ellipse class="cls-1" cx="29.37" cy="71.2" rx="11.47" ry="2.3"/><line class="cls-2" x1="20.74" y1="40.15" x2="20.74" y2="36.7"/><line class="cls-2" x1="35.69" y1="40.15" x2="35.69" y2="36.7"/><path class="cls-3" d="M38.45,70.05A3.45,3.45,0,0,0,35,66.6H30.4v2.3a1.15,1.15,0,0,0,1.15,1.15Z"/><path class="cls-3" d="M28.79,70.05a3.44,3.44,0,0,0-3.45-3.45h-4.6v2.3a1.16,1.16,0,0,0,1.15,1.15Z"/><path class="cls-3" d="M32.24,28.51l-4,3-4-3.46a10.95,10.95,0,0,1,8.05.45Z"/><path class="cls-3" d="M28.22,31.52l-4-3.46,0,3.41a1.15,1.15,0,0,0,1.6,1.07Z"/><path class="cls-3" d="M28.22,31.52l4-3v3a1.13,1.13,0,0,1-.51,1,1.12,1.12,0,0,1-1.09.1Z"/><line class="cls-2" x1="28.22" y1="31.52" x2="28.22" y2="48.77"/><path class="cls-3" d="M28.22,9.1a6.9,6.9,0,0,0-6.9,6.9v.92a1.41,1.41,0,0,0,.14,2.79A6.9,6.9,0,0,0,35.12,18.3V16A6.9,6.9,0,0,0,28.22,9.1Z"/><path class="cls-4" d="M27.36,16a.86.86,0,1,0,.86.86.87.87,0,0,0-.86-.86Z"/><path class="cls-4" d="M32,16a.86.86,0,1,0,.86.86A.87.87,0,0,0,32,16Z"/><circle class="cls-5" cx="25.06" cy="19.16" r="0.86"/><path class="cls-2" d="M27.64,21.23a3.13,3.13,0,0,0,3.45,0"/><path class="cls-6" d="M20.17,12.55A4.6,4.6,0,0,1,24.77,8h5.17a1.15,1.15,0,0,0,1-.67.82.82,0,0,1,.68-.48h1a3.56,3.56,0,0,1,3.6,3.12,3.45,3.45,0,0,1-3.06,3.76A3.13,3.13,0,0,1,30.52,16H29.37a.2.2,0,0,1-.2-.15.21.21,0,0,1,.09-.24,2.32,2.32,0,0,0,1.06-1.4.37.37,0,0,0-.06-.35.39.39,0,0,0-.32-.16h-4.7a1.14,1.14,0,0,0-.81.34l-3.11,3.11h-.58a.58.58,0,0,1-.57-.58Z"/><path class="cls-2" d="M20.17,12.55A4.6,4.6,0,0,1,24.77,8h5.17a1.15,1.15,0,0,0,1-.67.82.82,0,0,1,.68-.48h1a3.56,3.56,0,0,1,3.6,3.12,3.45,3.45,0,0,1-3.06,3.76A3.13,3.13,0,0,1,30.52,16H29.37a.2.2,0,0,1-.2-.15.21.21,0,0,1,.09-.24,2.32,2.32,0,0,0,1.06-1.4.37.37,0,0,0-.06-.35.39.39,0,0,0-.32-.16h-4.7a1.14,1.14,0,0,0-.81.34l-3.11,3.11h-.58a.58.58,0,0,1-.57-.58Z"/><path class="cls-3" d="M28.47,47.91A2.07,2.07,0,0,1,26.4,50c-3.45,0-7.2-2.52-8.84-6.3a10.27,10.27,0,0,1-.84-3.53H20.8a6.27,6.27,0,0,0,1.56,3.53,5.7,5.7,0,0,0,4,2.15A2.08,2.08,0,0,1,28.47,47.91Z"/></g></g></svg>