<svg xmlns="http://www.w3.org/2000/svg" viewBox="0 0 88 74"><defs><style>.cls-1{fill:#fff2f4;}.cls-2,.cls-8{fill:none;}.cls-2,.cls-4,.cls-5,.cls-8{stroke:#078c04;}.cls-2,.cls-4,.cls-5{stroke-linecap:round;stroke-linejoin:round;}.cls-3,.cls-5{fill:#ffd4d9;}.cls-4,.cls-7{fill:#fff;}.cls-6{fill:#078c04;}.cls-8{stroke-miterlimit:10;}</style></defs><title>weekend-3</title><g id="Layer_2" data-name="Layer 2"><g id="Layer_1-2" data-name="Layer 1"><path class="cls-1" d="M84,41.5A40,40,0,1,0,7.56,58H80.44A39.85,39.85,0,0,0,84,41.5Z"/><line class="cls-2" x1="5" y1="58" x2="83" y2="58"/><line class="cls-2" x1="0.5" y1="58" x2="3" y2="58"/><line class="cls-2" x1="85" y1="58" x2="87.5" y2="58"/><path class="cls-3" d="M18.94,50.42V70.55a1.14,1.14,0,0,0,1.15,1.15H23a1.15,1.15,0,0,0,1.15-1.11l.41-13.13a1.85,1.85,0,1,1,3.7,0l.42,13.13a1.15,1.15,0,0,0,1.15,1.11h2.91a1.15,1.15,0,0,0,1.15-1.15V50.42Z"/><path class="cls-2" d="M18.94,50.42V70.55a1.14,1.14,0,0,0,1.15,1.15H23a1.15,1.15,0,0,0,1.15-1.11l.41-13.13a1.85,1.85,0,1,1,3.7,0l.42,13.13a1.15,1.15,0,0,0,1.15,1.11h2.91a1.15,1.15,0,0,0,1.15-1.15V50.42Z"/><path class="cls-3" d="M33.89,36.93V57.32H30.13A4.14,4.14,0,0,1,26.42,55a4.17,4.17,0,0,1-3.73,2.3H18.94V51.57h-4a.57.57,0,0,1-.57-.57V41.22A12.07,12.07,0,0,1,26.41,29.15h7.47s8.63,0,8.63-4.6h4.6s-.09,7.25-10.32,9A3.47,3.47,0,0,0,33.89,36.93Z"/><path class="cls-2" d="M33.89,36.93V57.32H30.13A4.14,4.14,0,0,1,26.42,55a4.17,4.17,0,0,1-3.73,2.3H18.94V51.57h-4a.57.57,0,0,1-.57-.57V41.22A12.07,12.07,0,0,1,26.41,29.15h7.47s8.63,0,8.63-4.6h4.6s-.09,7.25-10.32,9A3.47,3.47,0,0,0,33.89,36.93Z"/><line class="cls-2" x1="18.94" y1="38.35" x2="18.94" y2="51.57"/><path class="cls-4" d="M14.91,53.59a2,2,0,0,0,4,0v-2h-4Z"/><polygon class="cls-4" points="26.41 29.15 22.77 33.32 26.41 43.52 30.08 33.34 26.41 29.15"/><ellipse class="cls-1" cx="26.41" cy="72.28" rx="14.95" ry="1.73"/><path class="cls-4" d="M34.15,71.7a1.14,1.14,0,0,0,1-1.67,3.44,3.44,0,0,0-3-1.78h-.57a3.45,3.45,0,0,0-3,1.78,1.14,1.14,0,0,0,1,1.67Z"/><path class="cls-4" d="M23.23,71.7a1.15,1.15,0,0,0,1-1.67,3.45,3.45,0,0,0-3-1.78h-.58a3.45,3.45,0,0,0-3,1.78,1.15,1.15,0,0,0,1,1.67Z"/><path class="cls-5" d="M26.41,43.52l6.33-7.47-1.15-2.3L33.89,32s-1.59-2.56-2.3-2.87Z"/><polygon class="cls-5" points="26.41 29.15 24.44 38.01 26.41 43.52 28.39 38.04 26.41 29.15"/><path class="cls-5" d="M26.41,43.52,21.63,30.14a11.51,11.51,0,0,0-2,1.1l-.68,2.51h2.3l-1.15,2.3Z"/><polygon class="cls-4" points="31.59 29.15 26.41 29.15 30.08 33.34 31.59 29.15"/><path class="cls-4" d="M26.41,29.15a11.92,11.92,0,0,0-4.78,1l1.14,3.18Z"/><line class="cls-2" x1="26.41" y1="43.52" x2="26.41" y2="55.02"/><path class="cls-4" d="M34.46,20a1.42,1.42,0,0,0-1.15-1.38v-.92a6.9,6.9,0,0,0-13.8,0v.92a1.41,1.41,0,0,0,.15,2.79,6.9,6.9,0,0,0,13.51,0A1.43,1.43,0,0,0,34.46,20Z"/><path class="cls-6" d="M23.83,17.65a.86.86,0,1,0,.86.86.87.87,0,0,0-.86-.86Z"/><path class="cls-6" d="M29,17.65a.86.86,0,1,0,.86.86.86.86,0,0,0-.86-.86Z"/><circle class="cls-3" cx="22.68" cy="20.81" r="0.86"/><circle class="cls-3" cx="30.15" cy="20.81" r="0.86"/><path class="cls-2" d="M24.69,22.88a3.13,3.13,0,0,0,3.45,0"/><path class="cls-7" d="M33.89,15.92a7.48,7.48,0,0,0-14.95,0v2.3a5.91,5.91,0,0,0,4-3.45C26.18,16.94,30.44,16.5,33.89,15.92Z"/><path class="cls-2" d="M33.89,15.92a7.48,7.48,0,0,0-14.95,0v2.3a5.91,5.91,0,0,0,4-3.45C26.18,16.94,30.44,16.5,33.89,15.92Z"/><path class="cls-2" d="M21.81,13.62A3.67,3.67,0,0,0,23,14.77"/><path class="cls-4" d="M74.2,9.2a6,6,0,0,1-5,2.8L67.5,8.91a6,6,0,0,0,4.94-2.8Z"/><path class="cls-4" d="M60.19,2.07a6.05,6.05,0,0,1-2.5,5.1L54.5,5.6A6,6,0,0,0,57,.5Z"/><path class="cls-4" d="M43.92,15.5a6,6,0,0,1-1.19-5.56L46.2,9.2a6,6,0,0,0,1.19,5.55Z"/><path class="cls-4" d="M43.84,60a6,6,0,0,1,3.41,4.55l-2.84,2.13A6.05,6.05,0,0,0,41,62.13Z"/><path class="cls-4" d="M77.5,48a6.06,6.06,0,0,1-5.66.53L71.51,45a6,6,0,0,0,5.66-.53Z"/><path class="cls-4" d="M77.48,59.84A6,6,0,0,1,81,64.3l-2.79,2.2A6.07,6.07,0,0,0,74.69,62Z"/><path class="cls-4" d="M85.38,33.93A6,6,0,0,1,80,32.1l1.14-3.36a6.06,6.06,0,0,0,5.38,1.83Z"/><path class="cls-4" d="M42.11,49.83A6.05,6.05,0,0,1,45.8,45.5l2.7,2.3a6.05,6.05,0,0,0-3.69,4.33Z"/><path class="cls-3" d="M68.39,50.42V70.55a1.15,1.15,0,0,1-1.15,1.15H64.33a1.15,1.15,0,0,1-1.15-1.11l-.42-13.13a1.85,1.85,0,1,0-3.7,0l-.41,13.13A1.15,1.15,0,0,1,57.5,71.7H54.59a1.14,1.14,0,0,1-1.15-1.15V50.42Z"/><path class="cls-2" d="M68.39,50.42V70.55a1.15,1.15,0,0,1-1.15,1.15H64.33a1.15,1.15,0,0,1-1.15-1.11l-.42-13.13a1.85,1.85,0,1,0-3.7,0l-.41,13.13A1.15,1.15,0,0,1,57.5,71.7H54.59a1.14,1.14,0,0,1-1.15-1.15V50.42Z"/><ellipse class="cls-1" cx="60.91" cy="72.28" rx="14.95" ry="1.73"/><path class="cls-4" d="M68.65,71.7a1.14,1.14,0,0,0,1-1.67,3.44,3.44,0,0,0-3-1.78h-.57a3.45,3.45,0,0,0-3,1.78,1.14,1.14,0,0,0,1,1.67Z"/><path class="cls-4" d="M57.73,71.7a1.15,1.15,0,0,0,1-1.67,3.45,3.45,0,0,0-3-1.78h-.58a3.45,3.45,0,0,0-3,1.78,1.15,1.15,0,0,0,1,1.67Z"/><path class="cls-7" d="M68.39,50.42V36.93a3.5,3.5,0,0,1,3-3.42C80.07,32,81,24,81,21.69a.57.57,0,0,0-.57-.59h-4c0,8.62-8.05,8-8.05,8H53.44s-8,.57-8-8h-4a.58.58,0,0,0-.58.59c.08,2.27,1,10.33,9.69,11.82a3.5,3.5,0,0,1,3,3.42V50.42Z"/><path class="cls-2" d="M68.39,50.42V36.93a3.5,3.5,0,0,1,3-3.42C80.07,32,81,24,81,21.69a.57.57,0,0,0-.57-.59h-4c0,8.62-8.05,8-8.05,8H53.44s-8,.57-8-8h-4a.58.58,0,0,0-.58.59c.08,2.27,1,10.33,9.69,11.82a3.5,3.5,0,0,1,3,3.42V50.42Z"/><path class="cls-4" d="M41.36,19.09a2,2,0,1,1,4,0v2h-4Z"/><path class="cls-4" d="M80.46,19.09a2,2,0,1,0-4,0v2h4Z"/><path class="cls-2" d="M60.91,32.6l-2.23,2.24a1.16,1.16,0,0,1-1.88-.38l-2.21-5.31h2.3Z"/><path class="cls-2" d="M60.91,32.6l2.24,2.24A1.15,1.15,0,0,0,65,34.46l2.22-5.31h-2.3Z"/><path class="cls-4" d="M69,20a1.42,1.42,0,0,0-1.15-1.38v-.92a6.9,6.9,0,0,0-13.8,0v.92a1.41,1.41,0,0,0,.15,2.79,6.9,6.9,0,0,0,13.51,0A1.43,1.43,0,0,0,69,20Z"/><circle class="cls-3" cx="57.18" cy="20.81" r="0.86"/><path class="cls-3" d="M65.51,20.81a.86.86,0,1,1-.86-.86A.85.85,0,0,1,65.51,20.81Z"/><path class="cls-2" d="M59.19,22.88a3.13,3.13,0,0,0,3.45,0"/><path class="cls-7" d="M68.39,15.92a7.48,7.48,0,0,0-15,0v2.3a5.91,5.91,0,0,0,4-3.45C60.68,16.94,64.94,16.5,68.39,15.92Z"/><path class="cls-2" d="M68.39,15.92a7.48,7.48,0,0,0-15,0v2.3a5.91,5.91,0,0,0,4-3.45C60.68,16.94,64.94,16.5,68.39,15.92Z"/><path class="cls-2" d="M56.31,13.62a3.67,3.67,0,0,0,1.15,1.15"/><circle class="cls-8" cx="58.04" cy="18.22" r="2.87"/><path class="cls-8" d="M66.66,18.22a2.88,2.88,0,1,1-2.87-2.87A2.87,2.87,0,0,1,66.66,18.22Z"/><path class="cls-2" d="M57.4,18.51a1,1,0,0,1,1.38,0"/><path class="cls-2" d="M62.93,18.51a1,1,0,0,1,1.39,0"/><path class="cls-5" d="M60.91,32.6l2.14,9.61a2.34,2.34,0,0,1-.14,1.43l-1.47,3.3a.57.57,0,0,1-1,0l-1.47-3.3a2.27,2.27,0,0,1-.14-1.43Z"/><polygon class="cls-4" points="64.94 29.15 60.91 32.6 56.89 29.15 64.94 29.15"/><path class="cls-4" d="M44.46,23.25A2.65,2.65,0,0,0,43.05,27a2.77,2.77,0,0,0,3.43,1.17l.64-.24a1.76,1.76,0,0,0,1-2.23L47.58,24a1.75,1.75,0,0,0-2.28-1.07Z"/></g></g></svg>