<svg xmlns="http://www.w3.org/2000/svg" viewBox="0 0 88 75.29"><defs><style>.cls-1{fill:#fff2f4;}.cls-10,.cls-2{fill:none;}.cls-10,.cls-2,.cls-4,.cls-5,.cls-8,.cls-9{stroke:#078c04;stroke-linejoin:round;}.cls-2,.cls-4,.cls-5{stroke-linecap:round;}.cls-3,.cls-5,.cls-8{fill:#fff;}.cls-4,.cls-7,.cls-9{fill:#ffd4d9;}.cls-6{fill:#078c04;}</style></defs><title>co-ziskate-3</title><g id="Layer_2" data-name="Layer 2"><g id="Layer_1-2" data-name="Layer 1"><path class="cls-1" d="M84,40A40,40,0,1,0,7.56,56.5H80.43A39.7,39.7,0,0,0,84,40Z"/><line class="cls-2" x1="5" y1="56.5" x2="83" y2="56.5"/><line class="cls-2" x1="0.5" y1="56.5" x2="3" y2="56.5"/><line class="cls-2" x1="85" y1="56.5" x2="87.5" y2="56.5"/><ellipse class="cls-1" cx="59.13" cy="73.57" rx="11.5" ry="1.73"/><path class="cls-3" d="M55.25,69.54a6.15,6.15,0,0,0-2.61.55V50.22H67.82V69.54h-3a6.31,6.31,0,0,0-2.58.53l-.53-12.26a1.44,1.44,0,0,0-2.88,0l-.51,11.73Z"/><path class="cls-2" d="M55.25,69.54a6.15,6.15,0,0,0-2.61.55V50.22H67.82V69.54h-3a6.31,6.31,0,0,0-2.58.53l-.53-12.26a1.44,1.44,0,0,0-2.88,0l-.51,11.73Z"/><path class="cls-4" d="M50.7,73c0-2.47,2.42-3.45,4.55-3.45h3v2.3A1.14,1.14,0,0,1,57.14,73Z"/><path class="cls-4" d="M60.23,73c0-2.47,2.41-3.45,4.55-3.45h3v2.3A1.15,1.15,0,0,1,66.67,73Z"/><path class="cls-5" d="M60.22,11.35a6.9,6.9,0,0,1,6.9,6.9v1.38c2,0,1.83,3.45-.35,3.45h0A6.88,6.88,0,0,1,53.32,21V18.25A6.9,6.9,0,0,1,60.22,11.35Z"/><path class="cls-6" d="M61.42,18.94a.87.87,0,1,1-.86.87.87.87,0,0,1,.86-.87Z"/><path class="cls-6" d="M56.25,18.94a.87.87,0,1,1-.86.87.86.86,0,0,1,.86-.87Z"/><path class="cls-7" d="M62.29,22.57a.69.69,0,1,0,.69-.69A.69.69,0,0,0,62.29,22.57Z"/><path class="cls-2" d="M60.56,23.71a2.58,2.58,0,0,1-3,.28,2.71,2.71,0,0,1-.41-.28"/><path class="cls-5" d="M64,15.47c-3,2.94-8.24,2.46-11.38,1.39a7.59,7.59,0,0,1,15.18,0v2.4s-3.8-.95-3.8-3.8"/><path class="cls-2" d="M64,15.47c-3,2.94-8.24,2.46-11.38,1.39a7.59,7.59,0,0,1,15.18,0v2.4s-3.8-.95-3.8-3.8"/><path class="cls-2" d="M64,15.47a2.8,2.8,0,0,0,.69-.72"/><path class="cls-5" d="M67.82,55.74a2.07,2.07,0,1,0,4.14,0V53H67.82Z"/><path class="cls-3" d="M42.58,31.24l4.35-1.92c1.28,1.94,3.8,4.09,5.78,4.24a11.7,11.7,0,0,1,9.11-3.31,12,12,0,0,1,10.83,12v9.53A1.15,1.15,0,0,1,71.5,53H67.82v5.18H64.1a4.65,4.65,0,0,1-3.87-2.07,4.66,4.66,0,0,1-3.87,2.07H52.64V41.89a3.36,3.36,0,0,0-2.22-3.19A14,14,0,0,1,42.58,31.24Z"/><path class="cls-2" d="M42.58,31.24l4.35-1.92c1.28,1.94,3.8,4.09,5.78,4.24a11.7,11.7,0,0,1,9.11-3.31,12,12,0,0,1,10.83,12v9.53A1.15,1.15,0,0,1,71.5,53H67.82v5.18H64.1a4.65,4.65,0,0,1-3.87-2.07,4.66,4.66,0,0,1-3.87,2.07H52.64V41.89a3.36,3.36,0,0,0-2.22-3.19A14,14,0,0,1,42.58,31.24Z"/><line class="cls-2" x1="67.82" y1="52.98" x2="67.82" y2="41.25"/><path class="cls-5" d="M60.23,48.15l-4.8-16.57a11.69,11.69,0,0,1,5.49-1.37,11.82,11.82,0,0,1,4.26.81Z"/><path class="cls-5" d="M55.43,31.58l4.8,16.57-5.52-7.59V37.11L52,34.37A11.69,11.69,0,0,1,55.43,31.58Z"/><polygon class="cls-4" points="60.23 30.23 62.28 41.06 60.23 48.15 58.18 41.06 60.23 30.23"/><line class="cls-2" x1="60.23" y1="56.09" x2="60.23" y2="48.15"/><polyline class="cls-2" points="56.53 35.38 60.22 30.23 63.92 35.38"/><path class="cls-5" d="M60.23,48.15l5-17.14a11.91,11.91,0,0,1,4,2.65l-3.48,3.45v3.45Z"/><path class="cls-2" d="M33.64,16a2.09,2.09,0,0,0-.56,2.89"/><path class="cls-2" d="M32.1,13.68a4.83,4.83,0,0,0-1.31,6.72"/><path class="cls-2" d="M30.55,11.38A7.62,7.62,0,0,0,28.49,22"/><path class="cls-8" d="M42.48,32.5a1.38,1.38,0,1,0,2.76.16l.58-10-2.76-.16Z"/><path class="cls-3" d="M35.37,23.51a1.16,1.16,0,0,0,1.57,1.14,45.56,45.56,0,0,1,8.88-2l.28-4.83a45.33,45.33,0,0,1-8.59-3,1.13,1.13,0,0,0-1.1,0,1.14,1.14,0,0,0-.59.94Z"/><path class="cls-9" d="M45.82,22.63l1,.06a2.42,2.42,0,0,0,.27-4.83l-1-.06Z"/><path class="cls-10" d="M35.37,23.51a1.16,1.16,0,0,0,1.57,1.14,45.56,45.56,0,0,1,8.88-2l.28-4.83a45.33,45.33,0,0,1-8.59-3,1.13,1.13,0,0,0-1.1,0,1.14,1.14,0,0,0-.59.94Z"/><path class="cls-5" d="M44.81,30.83A2.08,2.08,0,1,0,45,26.68l-2.19-.27a1.14,1.14,0,0,0-1.29,1.07l-.1,1.85a1.13,1.13,0,0,0,1,1.2Z"/><path class="cls-5" d="M40.21,38.85a.38.38,0,0,0,.11-.39.37.37,0,0,0-.29-.27l-8.58-1.64a.35.35,0,0,1-.28-.22L28.42,30a.38.38,0,0,0-.7,0L25,36.33a.35.35,0,0,1-.28.22l-8.58,1.64a.37.37,0,0,0-.29.27.38.38,0,0,0,.11.39L21.81,44a.38.38,0,0,1,.12.36l-1.52,8.08a.4.4,0,0,0,.17.39.38.38,0,0,0,.42,0L27.85,48a.38.38,0,0,1,.44,0l6.85,4.78a.38.38,0,0,0,.42,0,.4.4,0,0,0,.17-.39l-1.52-8.08a.38.38,0,0,1,.12-.36Z"/><path class="cls-4" d="M28.07,42,20.6,52.82a.38.38,0,0,0,.4,0L27.85,48a.38.38,0,0,1,.44,0l6.85,4.78a.38.38,0,0,0,.4,0Z"/><path class="cls-5" d="M40.32,38.47h0a.37.37,0,0,0-.29-.27l-8.58-1.64a.35.35,0,0,1-.28-.22L28.42,30a.38.38,0,0,0-.35-.23V42Z"/><path class="cls-5" d="M15.82,38.47h0a.37.37,0,0,1,.29-.27l8.58-1.64a.35.35,0,0,0,.28-.22L27.72,30a.38.38,0,0,1,.35-.23V42Z"/><ellipse class="cls-7" cx="28.07" cy="63.86" rx="17.42" ry="1.14"/><path class="cls-4" d="M10.19,59.14a.38.38,0,0,0,.3.57l9.54.76a1.1,1.1,0,0,0,.86-.3,1.13,1.13,0,0,0,.36-.83V54.21l-10.64-.85a.38.38,0,0,0-.36.56l1.46,2.56Z"/><path class="cls-4" d="M16.92,58.2l3.82,2.09.15-.12a1.13,1.13,0,0,0,.36-.83V57.08h-5A1.26,1.26,0,0,0,16.92,58.2Z"/><path class="cls-4" d="M46,59.14a.38.38,0,0,1-.3.57l-9.54.76a1.1,1.1,0,0,1-.86-.3,1.13,1.13,0,0,1-.36-.83V54.21l10.64-.85a.38.38,0,0,1,.36.56l-1.46,2.56Z"/><path class="cls-4" d="M39.22,58.2,35.4,60.29l-.15-.12a1.13,1.13,0,0,1-.36-.83V57.08h5A1.26,1.26,0,0,1,39.22,58.2Z"/><rect class="cls-7" x="16.26" y="50.57" width="23.63" height="7.27" rx="1" ry="1"/><rect class="cls-2" x="16.26" y="50.57" width="23.63" height="7.27" rx="1" ry="1"/></g></g></svg>