<svg xmlns="http://www.w3.org/2000/svg" viewBox="0 0 88 74"><defs><style>.cls-1{fill:#fff2f4;}.cls-2,.cls-5,.cls-9{fill:none;}.cls-2,.cls-3,.cls-5,.cls-6,.cls-7,.cls-9{stroke:#078c04;}.cls-2,.cls-7,.cls-9{stroke-linecap:round;}.cls-2,.cls-3,.cls-5,.cls-6,.cls-7{stroke-linejoin:round;}.cls-3,.cls-8{fill:#ffd4d9;}.cls-4,.cls-6,.cls-7{fill:#fff;}.cls-9{stroke-miterlimit:10;}.cls-10{fill:#078c04;}</style></defs><title>co-ziskate-2</title><g id="Layer_2" data-name="Layer 2"><g id="Layer_1-2" data-name="Layer 1"><path class="cls-1" d="M84.5,40A40,40,0,1,0,8.06,56.5H80.94A39.85,39.85,0,0,0,84.5,40Z"/><line class="cls-2" x1="5" y1="56.5" x2="83" y2="56.5"/><line class="cls-2" x1="0.5" y1="56.5" x2="3" y2="56.5"/><line class="cls-2" x1="85" y1="56.5" x2="87.5" y2="56.5"/><path class="cls-2" d="M61.36,29.74s-.61-4.21,1.2-6"/><path class="cls-3" d="M67.21,21a1.21,1.21,0,0,1-.43,1.65l-2.6,1.52A1.21,1.21,0,1,1,63,22.08l2.6-1.52A1.22,1.22,0,0,1,67.21,21Z"/><path class="cls-4" d="M68.58,34.24H51.73l1.56-4.17a1,1,0,0,1,.94-.65H70.38Z"/><rect class="cls-4" x="48.52" y="40.25" width="25.68" height="16.25"/><rect class="cls-5" x="48.52" y="40.25" width="25.68" height="16.25"/><rect class="cls-5" x="53.53" y="40.25" width="15.64" height="16.25"/><path class="cls-6" d="M47.52,37.85H75.19a0,0,0,0,1,0,0v1.41a1,1,0,0,1-1,1H48.52a1,1,0,0,1-1-1V37.85A0,0,0,0,1,47.52,37.85Z"/><rect class="cls-6" x="45.71" y="34.24" width="31.29" height="3.61" rx="1" ry="1"/><path class="cls-6" d="M68.58,34.24H51.73l1.56-4.17a1,1,0,0,1,.94-.65H70.38Z"/><polygon class="cls-3" points="70.38 29.43 72.19 34.24 68.58 34.24 70.38 29.43"/><ellipse class="cls-1" cx="30.17" cy="72.27" rx="11.5" ry="1.73"/><polygon class="cls-4" points="31.71 62.27 32.09 71 37.61 71 37.61 62.27 31.71 62.27"/><polygon class="cls-2" points="31.71 62.27 32.09 71 37.61 71 37.61 62.27 31.71 62.27"/><path class="cls-7" d="M37.5,71.7H32.81a1.16,1.16,0,0,1-1.05-1.65C33,67.59,37.08,67.73,38.5,70A1.15,1.15,0,0,1,37.5,71.7Z"/><polygon class="cls-4" points="28.63 62.27 28.25 71 22.73 71 22.73 62.27 28.63 62.27"/><polygon class="cls-2" points="28.63 62.27 28.25 71 22.73 71 22.73 62.27 28.63 62.27"/><path class="cls-7" d="M22.83,71.7h4.7a1.15,1.15,0,0,0,1-1.65c-1.24-2.46-5.32-2.32-6.74-.09A1.16,1.16,0,0,0,22.83,71.7Z"/><path class="cls-7" d="M42.62,49.21V38.79a12.46,12.46,0,0,0-24.91,0V49.21Z"/><path class="cls-7" d="M42,51.25a2.08,2.08,0,0,1-4.16,0v-2H42Z"/><path class="cls-7" d="M22.36,51.25a2.09,2.09,0,0,1-4.17,0v-2h4.17Z"/><polygon class="cls-3" points="30.17 29.8 28.25 35.54 30.17 39.48 32.06 35.48 30.17 29.8"/><path class="cls-7" d="M33,26.66l-2.83,3.13-2.83-3.13a12.67,12.67,0,0,1,5.66,0Z"/><path class="cls-7" d="M30.17,29.79,29,31a1.16,1.16,0,0,1-1.69-.08l-2.72-3.24a12.38,12.38,0,0,1,2.77-1Z"/><path class="cls-7" d="M35.77,27.67l-2.72,3.24a1.16,1.16,0,0,1-1.69.08l-1.19-1.2L33,26.66A12.74,12.74,0,0,1,35.77,27.67Z"/><path class="cls-8" d="M22.49,62.27a1.38,1.38,0,0,1-1.38-1.38l1.38-13.84-6-2.42a1.14,1.14,0,0,1-.71-1.28c1.48-7.84,3.39-13.22,8.7-15.68l5.73,11.81,5.6-11.81c5.3,2.46,7.21,7.84,8.7,15.68a1.15,1.15,0,0,1-.71,1.28l-6,2.42L39.1,60.89a1.38,1.38,0,0,1-1.39,1.38Z"/><path class="cls-5" d="M22.49,62.27a1.38,1.38,0,0,1-1.38-1.38l1.38-13.84-6-2.42a1.14,1.14,0,0,1-.71-1.28c1.48-7.84,3.39-13.22,8.7-15.68l5.73,11.81,5.6-11.81c5.3,2.46,7.21,7.84,8.7,15.68a1.15,1.15,0,0,1-.71,1.28l-6,2.42L39.1,60.89a1.38,1.38,0,0,1-1.39,1.38Z"/><line class="cls-9" x1="22.56" y1="47.09" x2="22.56" y2="38.39"/><line class="cls-9" x1="37.8" y1="47.09" x2="37.8" y2="38.39"/><path class="cls-6" d="M30.18,24.26a6.9,6.9,0,0,0,6.57-4.84h0c2.19,0,2.32-3.46.35-3.46V14.57a6.92,6.92,0,0,0-13.84,0V16c-2,0-1.84,3.46.34,3.46h0A6.89,6.89,0,0,0,30.18,24.26Z"/><path class="cls-10" d="M27.93,15.27a.87.87,0,1,0,.86.86.86.86,0,0,0-.86-.86Z"/><path class="cls-10" d="M32.42,15.27a.87.87,0,0,0,0,1.73.87.87,0,1,0,0-1.73Z"/><path class="cls-8" d="M26.72,18a.7.7,0,1,1-.7-.69A.7.7,0,0,1,26.72,18Z"/><circle class="cls-8" cx="34.33" cy="18.03" r="0.69"/><path class="cls-2" d="M28.45,20.17a3.11,3.11,0,0,0,3.46,0"/><path class="cls-4" d="M30.17,5.58a8.3,8.3,0,0,0-8.3,8.3V16c2.07,0,3.46-1.39,4.15-4.85a8.72,8.72,0,0,0,4.15,1.39,8.77,8.77,0,0,0,4.15-1.39C35,14.57,36.4,16,38.47,16V13.88A8.31,8.31,0,0,0,30.17,5.58Z"/><path class="cls-2" d="M30.17,5.58a8.3,8.3,0,0,0-8.3,8.3V16c2.07,0,3.46-1.39,4.15-4.85a8.72,8.72,0,0,0,4.15,1.39,8.77,8.77,0,0,0,4.15-1.39C35,14.57,36.4,16,38.47,16V13.88A8.31,8.31,0,0,0,30.17,5.58Z"/><line class="cls-5" x1="30.17" y1="62.26" x2="30.17" y2="39.48"/></g></g></svg>