<?xml version="1.0" encoding="utf-8"?>
<!-- Generator: Adobe Illustrator 22.1.0, SVG Export Plug-In . SVG Version: 6.00 Build 0)  -->
<svg version="1.1"
	 id="svg2008" inkscape:version="0.48.5 r10040" sodipodi:docname="T-Mobile_logo.svg" sodipodi:version="0.32" xmlns:cc="http://creativecommons.org/ns#" xmlns:dc="http://purl.org/dc/elements/1.1/" xmlns:inkscape="http://www.inkscape.org/namespaces/inkscape" xmlns:rdf="http://www.w3.org/1999/02/22-rdf-syntax-ns#" xmlns:sodipodi="http://sodipodi.sourceforge.net/DTD/sodipodi-0.dtd" xmlns:svg="http://www.w3.org/2000/svg"
	 xmlns="http://www.w3.org/2000/svg" xmlns:xlink="http://www.w3.org/1999/xlink" x="0px" y="0px" viewBox="0 0 192 123"
	 style="enable-background:new 0 0 192 123;" xml:space="preserve">
<sodipodi:namedview  bordercolor="#666666" borderopacity="1.0" height="27.6mm" id="base" inkscape:bbox-nodes="true" inkscape:bbox-paths="true" inkscape:current-layer="svg2008" inkscape:cx="503.25509" inkscape:cy="-177.77119" inkscape:document-units="px" inkscape:guide-bbox="true" inkscape:object-nodes="true" inkscape:object-paths="true" inkscape:pageopacity="0.0" inkscape:pageshadow="2" inkscape:snap-bbox="true" inkscape:snap-bbox-edge-midpoints="true" inkscape:snap-bbox-midpoints="true" inkscape:snap-center="true" inkscape:snap-intersection-paths="true" inkscape:snap-object-midpoints="true" inkscape:snap-smooth-nodes="true" inkscape:window-height="1018" inkscape:window-maximized="1" inkscape:window-width="1920" inkscape:window-x="-8" inkscape:window-y="-8" inkscape:zoom="0.78723292" pagecolor="#ffffff" showgrid="false" showguides="false" units="mm" width="186.67mm">
	<sodipodi:guide  id="guide3247" orientation="0,1" position="62.635787,-253.72888"></sodipodi:guide>
	<sodipodi:guide  id="guide3265" orientation="0,1" position="243.25454,-217.78617"></sodipodi:guide>
	<sodipodi:guide  id="guide4070" orientation="0,1" position="342.87554,-242.11217"></sodipodi:guide>
</sodipodi:namedview>
<rect id="rect3213" x="160.4" y="57.2" width="16.1" height="16.4"/>
<rect id="rect3215" x="112.1" y="57.2" width="16.1" height="16.4"/>
<rect id="rect3217" x="64.5" y="57.2" width="16.1" height="16.4"/>
<rect id="rect3219" x="15.2" y="57.2" width="16.1" height="16.4"/>
<path id="path3221" inkscape:connector-curvature="0" d="M53.9,24.4h1.9c12.3,0,18.1,6.6,20.5,24.2l3.8-0.2l-0.5-27.9H16.8
	l-0.6,27.9l3.7,0.2c0.6-6.6,1.4-10.2,3.1-13.7c2.9-6.6,9-10.5,16.6-10.5h2.7v60.8c0,6.4-0.4,8.5-1.9,10c-1.3,1.2-3.8,1.7-6.8,1.7
	h-2.9v4.1h34.9v-4.1h-2.9c-2.9,0-5.5-0.5-6.7-1.7c-1.5-1.5-1.9-3.6-1.9-10L53.9,24.4"/>
</svg>
