<svg xmlns="http://www.w3.org/2000/svg" viewBox="0 0 80 80"><defs><style>.cls-1{fill:#fff2f4;}.cls-2,.cls-5{fill:#ffd4d9;}.cls-3{fill:none;}.cls-3,.cls-4,.cls-5{stroke:#078c04;stroke-linejoin:round;}.cls-4,.cls-6{fill:#fff;}</style></defs><title>weekend-2</title><g id="Layer_2" data-name="Layer 2"><g id="Layer_1-2" data-name="Layer 1"><circle class="cls-1" cx="40" cy="40" r="40"/><path class="cls-2" d="M43.46,18.12H67.35a0,0,0,0,1,0,0V28.23a0,0,0,0,1,0,0H43.46a1,1,0,0,1-1-1V19.12A1,1,0,0,1,43.46,18.12Z" transform="translate(109.81 46.35) rotate(180)"/><path class="cls-3" d="M43.46,18.12H67.35a0,0,0,0,1,0,0V28.23a0,0,0,0,1,0,0H43.46a1,1,0,0,1-1-1V19.12A1,1,0,0,1,43.46,18.12Z" transform="translate(109.81 46.35) rotate(180)"/><rect class="cls-4" x="38.57" y="18.12" width="3.89" height="10.11" transform="translate(81.02 46.35) rotate(180)"/><path class="cls-5" d="M12.73,20.84H36.62a0,0,0,0,1,0,0V31a0,0,0,0,1,0,0H12.73a1,1,0,0,1-1-1V21.84A1,1,0,0,1,12.73,20.84Z" transform="translate(50.07 1.72) rotate(90)"/><rect class="cls-4" x="22.23" y="35.23" width="3.89" height="10.11" transform="translate(64.46 16.11) rotate(90)"/><path class="cls-4" d="M16,50a3,3,0,0,1,1.35-2.56c1-.67,1.76-1.08,1.76-2.47V42.23H29.23v.54l2.67,6.66a6.33,6.33,0,0,1,.44,2.32v9.93a1.56,1.56,0,1,1-3.11,0v.78a1.56,1.56,0,1,1-3.11,0v.78a1.56,1.56,0,0,1-3.11,0v0a1.56,1.56,0,0,1-3.12,0V51.57H16Z"/><path class="cls-4" d="M65.79,29.85a3.07,3.07,0,0,1-1.34,2.56c-1,.66-1.77,1.08-1.77,2.47v2.69H52.57V37L49.9,30.37a6.33,6.33,0,0,1-.44-2.32V18.12a1.56,1.56,0,1,1,3.11,0v-.78a1.56,1.56,0,1,1,3.11,0v-.78a1.56,1.56,0,0,1,3.11,0v0a1.56,1.56,0,1,1,3.12,0V28.23h3.87Z"/><path class="cls-5" d="M46.18,48.85H70.07a0,0,0,0,1,0,0V59a0,0,0,0,1,0,0H46.18a1,1,0,0,1-1-1V49.85A1,1,0,0,1,46.18,48.85Z" transform="translate(3.72 111.53) rotate(-90)"/><rect class="cls-4" x="55.68" y="34.45" width="3.89" height="10.11" transform="translate(18.11 97.14) rotate(-90)"/><path class="cls-6" d="M51,64.79a3.07,3.07,0,0,1-2.56-1.34c-.66-1-1.08-1.77-2.47-1.77H43.23V51.57h.54l6.67-2.67a6.28,6.28,0,0,1,2.31-.44h9.93a1.56,1.56,0,1,1,0,3.11h.78a1.56,1.56,0,1,1,0,3.11h.78a1.56,1.56,0,1,1,0,3.11h0a1.56,1.56,0,1,1,0,3.12H52.57v3.87Z"/><path class="cls-2" d="M19.87,51.57H15.6a1.15,1.15,0,0,0-1.15,1.15v7.81a1.15,1.15,0,0,0,1.15,1.15h4.29Z"/><rect class="cls-2" x="32.34" y="51.57" width="7" height="10.11"/><path class="cls-3" d="M51,64.79a3.07,3.07,0,0,1-2.56-1.34c-.66-1-1.08-1.77-2.47-1.77H43.23V51.57h.54l6.67-2.67a6.28,6.28,0,0,1,2.31-.44h9.93a1.56,1.56,0,1,1,0,3.11h.78a1.56,1.56,0,1,1,0,3.11h.78a1.56,1.56,0,1,1,0,3.11h0a1.56,1.56,0,1,1,0,3.12H52.57v3.87Z"/><rect class="cls-4" x="39.35" y="51.57" width="3.89" height="10.11"/><path class="cls-3" d="M19.87,51.57H15.6a1.15,1.15,0,0,0-1.15,1.15v7.81a1.15,1.15,0,0,0,1.15,1.15h4.29Z"/><rect class="cls-3" x="32.34" y="51.57" width="7" height="10.11"/><path class="cls-6" d="M30.85,15a3.07,3.07,0,0,1,2.56,1.35c.67,1,1.08,1.77,2.47,1.77h2.69V28.23H38L31.37,30.9a6.33,6.33,0,0,1-2.32.44H19.12a1.56,1.56,0,1,1,0-3.11h-.78a1.56,1.56,0,0,1,0-3.11h-.78a1.56,1.56,0,0,1,0-3.11h0a1.56,1.56,0,0,1,0-3.12H29.23V15Z"/><path class="cls-3" d="M30.85,15a3.07,3.07,0,0,1,2.56,1.35c.67,1,1.08,1.77,2.47,1.77h2.69V28.23H38L31.37,30.9a6.33,6.33,0,0,1-2.32.44H19.12a1.56,1.56,0,1,1,0-3.11h-.78a1.56,1.56,0,0,1,0-3.11h-.78a1.56,1.56,0,0,1,0-3.11h0a1.56,1.56,0,0,1,0-3.12H29.23V15Z"/></g></g></svg>